<svg width="32" height="36" viewBox="0 0 32 36" fill="none" xmlns="http://www.w3.org/2000/svg">
<path d="M0.00282173 0.00634354C0.00282173 0.145901 -0.00352717 0.241055 0.00282173 0.336208C0.24408 2.97512 0.485338 5.61404 0.720248 8.25929C1.05039 12.002 1.37418 15.7447 1.70433 19.481C2.07891 23.6804 2.45985 27.8735 2.82173 32.073C2.84713 32.3774 2.95506 32.5107 3.24076 32.5868C7.30406 33.7032 11.3547 34.826 15.418 35.9362C15.691 36.0123 16.0211 36.025 16.2941 35.9489C20.3701 34.8324 24.4397 33.6969 28.5157 32.5741C28.8268 32.4853 28.9348 32.3457 28.9602 32.0285C29.0871 30.4427 29.2395 28.8504 29.3792 27.2645C29.6141 24.6383 29.8427 22.0121 30.0776 19.3859C30.3506 16.3029 30.6299 13.2263 30.9029 10.1433C31.1061 7.84696 31.322 5.55694 31.5251 3.26058C31.6204 2.18218 31.7029 1.10378 31.7918 0H0.00282173V0.00634354ZM25.6587 9.16642C25.4492 11.4882 25.2397 13.8162 25.0302 16.138C24.7889 18.8086 24.5477 21.4792 24.3064 24.1435C24.2366 24.9111 24.135 25.6787 24.116 26.4526C24.1033 26.8649 23.9255 26.9727 23.5826 27.0679C21.132 27.7276 18.6876 28.4064 16.2433 29.0788C16.1354 29.1105 16.0338 29.1486 15.9259 29.1803C15.8878 29.1613 15.8497 29.1486 15.8052 29.1295C13.1895 28.4191 10.5737 27.7023 7.958 26.9791C7.85007 26.9474 7.71039 26.7761 7.69769 26.6556C7.51357 24.6764 7.3485 22.6972 7.17073 20.6799H11.1642C11.234 21.4729 11.3102 22.2785 11.3737 23.0905C11.4308 23.839 11.4245 23.839 12.1292 24.0293C13.3927 24.3655 14.6624 24.6954 15.9259 25.0253L15.9132 24.9936C17.2972 24.6256 18.6813 24.2641 20.0654 23.8708C20.1923 23.8327 20.3384 23.6297 20.3574 23.4901C20.4399 22.8812 20.4844 22.2658 20.5352 21.6569C20.6177 20.6736 20.7002 19.6904 20.7891 18.6627H15.9132L15.9259 18.6373C15.8941 18.6373 15.856 18.6373 15.8243 18.6373H6.98661C6.86599 17.3242 6.75171 16.0238 6.63108 14.6853H15.8306C15.8624 14.6853 15.9005 14.6853 15.9322 14.6853L15.9195 14.6599H21.1447C21.2653 13.2961 21.3859 11.9639 21.5066 10.6064H15.9132L15.9259 10.581C15.8941 10.581 15.856 10.581 15.8243 10.581C12.6943 10.5874 9.56427 10.5874 6.43426 10.5937C6.38982 10.5937 6.34538 10.5747 6.26284 10.5493C6.14856 9.25523 6.02793 7.96115 5.91365 6.629H15.8243C15.856 6.629 15.8941 6.629 15.9259 6.629L15.9132 6.60363H25.8682C25.7984 7.49172 25.7286 8.32907 25.6587 9.16642Z" fill="#89BCD9"/>
</svg>
