<svg width="41" height="45" viewBox="0 0 41 45" fill="none" xmlns="http://www.w3.org/2000/svg">
<path d="M0.00359465 0.00792943C0.00359465 0.182377 -0.00449331 0.301318 0.00359465 0.42026C0.310937 3.7189 0.618279 7.01755 0.917534 10.3241C1.33811 15.0025 1.75059 19.6808 2.17117 24.3513C2.64836 29.6006 3.13363 34.8419 3.59465 40.0912C3.627 40.4718 3.76449 40.6383 4.12845 40.7335C9.30475 42.1291 14.4649 43.5326 19.6412 44.9202C19.9889 45.0154 20.4095 45.0312 20.7573 44.9361C25.9498 43.5405 31.1341 42.1211 36.3266 40.7176C36.7229 40.6066 36.8604 40.4322 36.8928 40.0357C37.0545 38.0533 37.2486 36.063 37.4266 34.0807C37.7258 30.7979 38.017 27.5151 38.3162 24.2323C38.664 20.3786 39.0199 16.5329 39.3677 12.6792C39.6265 9.8087 39.9015 6.94618 40.1603 4.07573C40.2816 2.72772 40.3868 1.37972 40.5 0H0.00359465V0.00792943ZM32.687 11.458C32.4201 14.3602 32.1532 17.2703 31.8863 20.1725C31.579 23.5108 31.2716 26.849 30.9643 30.1794C30.8753 31.1389 30.7459 32.0983 30.7217 33.0657C30.7055 33.5811 30.479 33.7159 30.0423 33.8349C26.9203 34.6595 23.8065 35.508 20.6926 36.3485C20.5551 36.3881 20.4257 36.4357 20.2882 36.4754C20.2397 36.4516 20.1911 36.4357 20.1345 36.4119C16.8023 35.5238 13.47 34.6278 10.1378 33.7239C10.0003 33.6842 9.82237 33.4701 9.8062 33.3195C9.57165 30.8455 9.36136 28.3715 9.1349 25.8499H14.2222C14.3112 26.8411 14.4082 27.8482 14.4891 28.8631C14.5619 29.7988 14.5538 29.7988 15.4516 30.0367C17.0611 30.4569 18.6787 30.8693 20.2882 31.2816L20.272 31.2419C22.0352 30.782 23.7984 30.3301 25.5615 29.8384C25.7233 29.7909 25.9093 29.5371 25.9336 29.3627C26.0387 28.6014 26.0953 27.8323 26.16 27.0711C26.2652 25.842 26.3703 24.6129 26.4836 23.3284H20.272L20.2882 23.2967C20.2478 23.2967 20.1992 23.2967 20.1588 23.2967H8.90035C8.74668 21.6553 8.60109 20.0297 8.44742 18.3566H20.1669C20.2073 18.3566 20.2558 18.3566 20.2963 18.3566L20.2801 18.3249H26.9365C27.0902 16.6201 27.2438 14.9549 27.3975 13.258H20.272L20.2882 13.2263C20.2478 13.2263 20.1992 13.2263 20.1588 13.2263C16.1714 13.2342 12.1841 13.2342 8.1967 13.2421C8.14008 13.2421 8.08346 13.2184 7.97832 13.1866C7.83274 11.569 7.67907 9.95143 7.53348 8.28625H20.1588C20.1992 8.28625 20.2478 8.28625 20.2882 8.28625L20.272 8.25453H32.9539C32.865 9.36466 32.776 10.4113 32.687 11.458Z" fill="#89BCD9"/>
</svg>
