<svg width="45" height="45" viewBox="0 0 45 45" fill="none" xmlns="http://www.w3.org/2000/svg">
<path d="M44.1558 20.5179L24.4821 0.844209C23.3564 -0.281403 21.4967 -0.281403 20.3711 0.844209L16.3091 4.9062L21.4967 10.0938C22.7202 9.70228 24.0905 9.94698 25.0204 10.9258C25.9992 11.9046 26.2439 13.2749 25.8524 14.4984L30.8442 19.4902C32.0677 19.0987 33.438 19.3434 34.4168 20.3222C35.7871 21.6436 35.7871 23.8458 34.4168 25.2162C33.0465 26.5865 30.8932 26.5865 29.5228 25.2162C28.4951 24.1884 28.2504 22.7202 28.7887 21.4478L24.1395 16.7985V29.0334C24.4821 29.1803 24.7757 29.425 25.0693 29.6697C26.4396 30.991 26.4396 33.1933 25.0693 34.5636C23.699 35.885 21.5457 35.885 20.1754 34.5636C18.8051 33.1933 18.8051 31.04 20.1754 29.6697C20.5179 29.3271 20.9095 29.0824 21.301 28.9356V16.5538C20.9095 16.407 20.5179 16.1134 20.1754 15.8197C19.1476 14.792 18.9029 13.3238 19.4413 12.0514L14.3026 6.96166L0.844209 20.4201C-0.281403 21.5457 -0.281403 23.4054 0.844209 24.531L20.469 44.1558C21.5946 45.2814 23.4543 45.2814 24.5799 44.1558L44.1069 24.6289C45.2814 23.4543 45.2814 21.6436 44.1558 20.5179Z" fill="#89BCD9"/>
</svg>
