<svg width="36" height="36" viewBox="0 0 36 36" fill="none" xmlns="http://www.w3.org/2000/svg">
<path d="M0 0C12.0081 0 23.9919 0 36 0C36 12.0081 36 24.0162 36 36C24.0162 36 12.0081 36 0 36C0 23.9676 0 11.9838 0 0ZM32.208 19.0574C31.4787 17.7448 30.4821 16.8454 29.0479 16.5294C28.027 16.2863 27.0061 16.2863 25.9851 16.5051C22.6793 17.1857 21.2694 21.1722 23.4085 23.8217C24.1621 24.7454 25.1587 25.3045 26.2039 25.7907C27.1276 26.2282 28.0756 26.6415 28.9993 27.1033C29.6313 27.4193 29.8987 28.0027 29.8258 28.7076C29.7529 29.4126 29.2667 29.8015 28.659 30.0203C27.2978 30.5064 25.7178 30.0689 24.7941 28.9264C24.5996 28.6833 24.4051 28.4159 24.2107 28.1485C23.287 28.6833 22.3876 29.1938 21.4882 29.7286C22.0473 30.8224 22.8251 31.6975 23.8947 32.2809C25.7178 33.2775 27.6381 33.4234 29.607 32.9372C30.8953 32.6212 31.9892 31.9649 32.6698 30.7738C33.9338 28.5132 33.2046 25.6934 30.9683 24.3079C29.9716 23.7002 28.8535 23.287 27.8082 22.7522C27.2978 22.4848 26.763 22.2417 26.3255 21.9014C25.5476 21.2694 25.6934 20.0054 26.5685 19.5192C27.4193 19.0331 28.6104 19.3248 29.2667 20.1756C29.4126 20.3457 29.5098 20.5402 29.6556 20.7346C30.4821 20.1756 31.3329 19.6165 32.208 19.0574ZM9.48008 30.0932C9.96624 31.1384 10.6712 31.9649 11.6678 32.4997C12.9561 33.2046 14.366 33.3261 15.8001 33.1074C17.0885 32.9129 18.158 32.3295 18.8629 31.1627C19.4463 30.1904 19.6165 29.1209 19.6165 27.9784C19.6165 24.2836 19.6165 20.5888 19.6165 16.894C19.6165 16.7968 19.6165 16.6752 19.6165 16.5537C18.474 16.5537 17.3801 16.5537 16.2377 16.5537C16.2377 16.6995 16.2377 16.8211 16.2377 16.9669C16.2377 20.6131 16.2377 24.235 16.2377 27.8812C16.2377 28.2215 16.2134 28.5861 16.1648 28.9264C16.0675 29.4855 15.7758 29.8987 15.2167 30.0689C14.1715 30.3849 13.3207 30.0689 12.713 29.1695C12.5672 28.9264 12.4213 28.6833 12.2512 28.4402C11.3032 28.9993 10.4038 29.5341 9.48008 30.0932Z" fill="#89BCD9"/>
</svg>
