<svg width="45" height="45" viewBox="0 0 45 45" fill="none" xmlns="http://www.w3.org/2000/svg">
<path d="M0 0C15.0101 0 29.9899 0 45 0C45 15.0101 45 30.0203 45 45C30.0202 45 15.0101 45 0 45C0 29.9595 0 14.9797 0 0ZM40.26 23.8217C39.3484 22.181 38.1026 21.0567 36.3099 20.6617C35.0338 20.3579 33.7576 20.3579 32.4814 20.6313C28.3491 21.4821 26.5868 26.4652 29.2606 29.7772C30.2026 30.9318 31.4483 31.6307 32.7549 32.2384C33.9095 32.7853 35.0945 33.3018 36.2491 33.8791C37.0392 34.2741 37.3734 35.0034 37.2822 35.8845C37.1911 36.7657 36.5834 37.2519 35.8238 37.5253C34.1222 38.133 32.1472 37.5861 30.9926 36.158C30.7495 35.8542 30.5064 35.5199 30.2633 35.1857C29.1087 35.8542 27.9845 36.4922 26.8602 37.1607C27.5591 38.528 28.5314 39.6219 29.8683 40.3511C32.1472 41.5969 34.5476 41.7792 37.0088 41.1715C38.6192 40.7765 39.9865 39.9561 40.8373 38.4673C42.4173 35.6415 41.5057 32.1168 38.7103 30.3849C37.4645 29.6253 36.0668 29.1087 34.7603 28.4402C34.1222 28.106 33.4537 27.8022 32.9068 27.3768C31.9345 26.5868 32.1168 25.0068 33.2107 24.3991C34.2741 23.7914 35.763 24.156 36.5834 25.2194C36.7657 25.4321 36.8872 25.6752 37.0695 25.9183C38.1026 25.2194 39.1661 24.5206 40.26 23.8217ZM11.8501 37.6165C12.4578 38.923 13.339 39.9561 14.5847 40.6246C16.1951 41.5057 17.9575 41.6577 19.7502 41.3842C21.3606 41.1411 22.6975 40.4119 23.5787 38.9534C24.3079 37.738 24.5206 36.4011 24.5206 34.973C24.5206 30.3545 24.5206 25.736 24.5206 21.1175C24.5206 20.9959 24.5206 20.844 24.5206 20.6921C23.0925 20.6921 21.7252 20.6921 20.2971 20.6921C20.2971 20.8744 20.2971 21.0263 20.2971 21.2086C20.2971 25.7664 20.2971 30.2937 20.2971 34.8515C20.2971 35.2768 20.2667 35.7326 20.2059 36.158C20.0844 36.8569 19.7198 37.3734 19.0209 37.5861C17.7144 37.9811 16.6509 37.5861 15.8913 36.4618C15.709 36.158 15.5267 35.8542 15.314 35.5503C14.129 36.2492 13.0047 36.9176 11.8501 37.6165Z" fill="#89BCD9"/>
</svg>
