<svg width="45" height="45" viewBox="0 0 45 45" fill="none" xmlns="http://www.w3.org/2000/svg">
<g clip-path="url(#clip0_2297_3806)">
<path d="M5.91147 7.35156V37.7266C2.24486 33.6766 0 28.3516 0 22.5016C0 16.6516 2.24486 11.3266 5.91147 7.35156Z" fill="#89BCD9"/>
<path d="M8.30469 10.6484L21.2501 36.6734H8.30469V10.6484Z" fill="#89BCD9"/>
<path d="M22.4475 33.7492L9.72656 8.32422H35.1683L22.4475 33.7492Z" fill="#89BCD9"/>
<path d="M22.4513 0C28.288 0 33.6008 2.25 37.5668 5.925H7.33594C11.3019 2.25 16.6147 0 22.4513 0Z" fill="#89BCD9"/>
<path d="M36.5938 36.6734H23.6484L36.5938 10.6484V36.6734Z" fill="#89BCD9"/>
<path d="M37.5668 39.0742C33.6008 42.7492 28.288 44.9992 22.4513 44.9992C16.6147 44.9992 11.3019 42.7492 7.33594 39.0742H37.5668Z" fill="#89BCD9"/>
<path d="M38.9844 37.6516V7.35156C42.651 11.3266 44.8958 16.6516 44.8958 22.5016C44.8958 28.3516 42.651 33.6766 38.9844 37.6516Z" fill="#89BCD9"/>
<path d="M8.30469 10.6484L21.2501 36.6734H8.30469V10.6484Z" fill="#89BCD9"/>
<path d="M22.4475 33.7492L9.72656 8.32422H35.1683L22.4475 33.7492Z" fill="#89BCD9"/>
<path d="M23.6484 36.6734L36.5938 10.6484V36.6734H23.6484Z" fill="#89BCD9"/>
<path d="M9.72656 8.32422H35.1683L22.4475 33.7492L9.72656 8.32422Z" fill="#89BCD9"/>
</g>
<defs>
<clipPath id="clip0_2297_3806">
<rect width="44.8973" height="45" fill="white"/>
</clipPath>
</defs>
</svg>
