<svg width="48" height="45" viewBox="0 0 48 45" fill="none" xmlns="http://www.w3.org/2000/svg">
<path fill-rule="evenodd" clip-rule="evenodd" d="M46.9587 11.8229L42.7071 17.7812L38.4555 11.8229H40.7736C40.5969 7.39583 36.9482 3.85417 32.4887 3.85417C28.7257 3.85417 25.5343 6.38542 24.526 9.83333C23.2994 9.4375 22.0312 9.1875 20.7422 9.07292C20.8877 8.52083 21.0748 7.96875 21.3035 7.4375C21.9168 5.98958 22.79 4.6875 23.9023 3.57292C25.0146 2.45833 26.314 1.57292 27.7589 0.96875C29.2558 0.322917 30.8463 0 32.4887 0C34.1311 0 35.7216 0.322917 37.2185 0.958333C38.6634 1.57292 39.9628 2.44792 41.0751 3.5625C42.1874 4.67708 43.0605 5.97917 43.6739 7.42708C44.2664 8.82292 44.5886 10.3021 44.6198 11.8229H46.9587Z" fill="#89BCD9"/>
<path fill-rule="evenodd" clip-rule="evenodd" d="M41.0087 44.9987V42.4362H26.3516C26.4555 42.3841 26.5595 42.3424 26.6634 42.2904C28.2539 41.5299 29.7196 40.5404 31.0294 39.332C31.2061 39.1654 31.3724 39.0091 31.5283 38.8529C31.7051 38.6758 31.8922 38.4883 32.0689 38.2904C32.2768 38.0612 32.4847 37.8216 32.6718 37.582H41.0087V35.0195L47.9734 40.0091L41.0087 44.9987Z" fill="#89BCD9"/>
<path fill-rule="evenodd" clip-rule="evenodd" d="M35.6033 26.4909C35.6033 28.7096 35.1667 30.8659 34.3143 32.8971C33.5867 34.6263 32.568 36.2096 31.2998 37.5951C31.1334 37.7721 30.9671 37.9492 30.8008 38.1263C30.6449 38.2826 30.4889 38.4284 30.333 38.5846C29.1064 39.7201 27.7342 40.6471 26.2373 41.3659C26.0294 41.4701 25.8111 41.5638 25.5928 41.6576C25.5824 41.6576 25.5824 41.668 25.572 41.668C24.3246 42.1992 22.9836 42.4596 21.6219 42.4596H0V37.6159H20.073C26.1438 37.6159 31.123 32.7513 31.2062 26.668C31.2062 26.6159 31.2062 26.5638 31.2062 26.5117C31.2062 19.8659 25.8215 14.4701 19.1894 14.4701C12.5573 14.4492 7.17264 19.8346 7.17264 26.4909H9.95854L4.97927 33.4701L0 26.4909H2.7859C2.7859 24.2721 3.22249 22.1159 4.07489 20.0846C4.9065 18.1263 6.08115 16.3659 7.58845 14.8555C9.09574 13.3451 10.8525 12.1576 12.8068 11.3346C14.8339 10.4805 16.9857 10.043 19.1998 10.043C19.6468 10.043 20.0834 10.0638 20.52 10.0951C21.809 10.1992 23.0668 10.4492 24.2934 10.8555C24.73 11.0013 25.1562 11.1576 25.5824 11.3451C27.5367 12.1784 29.2935 13.3555 30.8008 14.8659C32.3081 16.3763 33.4931 18.1367 34.3143 20.0951C35.1667 22.1159 35.6033 24.2721 35.6033 26.4909Z" fill="#89BCD9"/>
</svg>
