<svg width="36" height="36" viewBox="0 0 36 36" fill="none" xmlns="http://www.w3.org/2000/svg">
<path d="M35.9345 2.86494C35.6726 1.48977 34.6085 0.376535 33.2497 0.0818554C33.1842 0.0654843 33.1187 0.0654843 33.0368 0.0491132C33.0205 0.0491132 33.0041 0.0163711 32.9877 0H2.96317C2.94679 0.0163711 2.93042 0.0491132 2.89768 0.0491132C1.53888 0.278308 0.392906 1.3588 0.0818554 2.73397C0.0654843 2.78308 0.0327422 2.84857 0 2.91405V33.0205C0.0163711 33.0532 0.0491132 33.0696 0.0491132 33.1023C0.376535 34.6085 1.29332 35.5416 2.78308 35.9181C2.8322 35.9345 2.86494 35.9673 2.89768 36H33.0368C33.0696 35.9836 33.0859 35.9509 33.1187 35.9345C34.6085 35.5907 35.5252 34.6903 35.9018 33.2006C35.9181 33.1514 35.9018 33.0859 35.9181 33.0368C35.9181 33.0205 35.9509 33.0041 35.9673 32.9877V2.96317C35.9673 2.93042 35.9345 2.91405 35.9345 2.86494ZM20.8731 19.9563H20.693C19.3342 19.9563 17.9591 19.9563 16.6003 19.9563C16.5348 19.9563 16.4693 19.9563 16.4038 19.9563C16.4038 19.9727 16.3874 19.9727 16.3874 19.9891C16.3874 20.0546 16.3874 20.1201 16.3874 20.1855V32.8076H12.8022V19.9727H8.30014V17.1078H20.8568V19.9563H20.8731ZM32.955 28.5184C32.9222 29.075 32.8404 29.6153 32.6112 30.1392C32.5457 30.3029 32.4966 30.4502 32.4147 30.6139C32.1201 31.236 31.6289 31.678 31.0559 32.0382C30.4011 32.4475 29.6808 32.6767 28.9277 32.824C28.0928 32.9877 27.2578 33.0368 26.4066 33.0041C25.9973 32.9877 25.588 32.9877 25.1787 32.9386C24.2128 32.824 23.2633 32.6112 22.3793 32.1855C22.3302 32.1692 22.2647 32.0873 22.2647 32.0382C22.2647 30.9741 22.2647 29.91 22.2647 28.8458C22.2647 28.8295 22.2647 28.8131 22.2647 28.7804C22.5266 28.9604 22.7885 29.1405 23.0505 29.2879C23.689 29.6644 24.3929 29.9263 25.1132 30.09C25.7353 30.2374 26.3574 30.2538 26.9795 30.221C27.4543 30.2046 27.9291 30.09 28.3547 29.8772C28.7312 29.6808 29.0423 29.4188 29.1241 28.9768C29.206 28.5839 29.1733 28.191 28.9441 27.8472C28.6166 27.3561 28.1583 27.045 27.6508 26.7831C27.0778 26.5048 26.5048 26.2592 25.9154 25.9973C25.0478 25.6044 24.1965 25.1787 23.4925 24.5239C22.9195 23.9836 22.4939 23.3452 22.2974 22.5757C22.1828 22.1173 22.1501 21.6589 22.1664 21.2005C22.1828 20.0709 22.5921 19.105 23.3943 18.3029C24.0491 17.648 24.8513 17.2551 25.7353 17.0259C26.3411 16.8786 26.9468 16.764 27.5689 16.7476C28.0109 16.7476 28.4529 16.6985 28.8786 16.7149C29.5498 16.7312 30.2046 16.764 30.8595 16.9277C31.2851 17.0423 31.7271 17.1569 32.1528 17.2551C32.2347 17.2715 32.2674 17.3206 32.2674 17.4188C32.2674 18.4338 32.2674 19.4652 32.2674 20.4802C32.2674 20.513 32.2674 20.5457 32.251 20.5948C32.1201 20.513 32.0055 20.4475 31.8909 20.382C31.367 20.0873 30.8104 19.8909 30.2374 19.7435C29.5989 19.5962 28.9604 19.498 28.3056 19.5143C27.8636 19.5307 27.4052 19.5962 26.9959 19.7435C26.4884 19.9236 26.0791 20.2183 25.899 20.7585C25.7517 21.1842 25.8663 21.5443 26.1282 21.8881C26.4557 22.3138 26.8977 22.6085 27.3724 22.8377C28.0109 23.1487 28.6658 23.4106 29.2879 23.7053C30.0082 24.0491 30.7285 24.3929 31.3342 24.9004C31.8581 25.3424 32.3329 25.8336 32.5948 26.4884C32.7422 26.8813 32.8731 27.2906 32.8731 27.7326C32.9386 27.9945 32.9714 28.2565 32.955 28.5184Z" fill="#89BCD9"/>
</svg>
