<svg width="52" height="61" viewBox="0 0 52 61" fill="none" xmlns="http://www.w3.org/2000/svg">
<mask id="mask0_126_55" style="mask-type:luminance" maskUnits="userSpaceOnUse" x="9" y="0" width="35" height="36">
<path d="M43.4681 0H9V36H43.4681V0Z" fill="white"/>
</mask>
<g mask="url(#mask0_126_55)">
<path fill-rule="evenodd" clip-rule="evenodd" d="M12.7464 9.39098H26.2337V7.82572H17.9914V3.91286C17.9914 3.91286 17.9914 0 26.2337 0C34.4761 0 34.4761 3.91286 34.4761 3.91286C34.4761 3.91286 34.5381 10.8813 34.5071 13.2664C34.4761 15.6521 32.9774 17.2167 30.7249 17.2167H21.7383C18.741 17.2167 16.4934 19.5643 16.4934 22.6948V26.6077H12.747C12.747 26.6077 9 26.6084 9 17.9997C9 9.39098 12.7464 9.39098 12.7464 9.39098ZM23.2364 3.9135C23.2364 4.77773 22.5652 5.47876 21.7378 5.47876C20.9103 5.47876 20.2391 4.77773 20.2391 3.9135C20.2391 3.04926 20.9103 2.34822 21.7378 2.34822C22.5652 2.34822 23.2364 3.04926 23.2364 3.9135Z" fill="#89BCD9"/>
<path fill-rule="evenodd" clip-rule="evenodd" d="M39.725 26.6095H26.2376V28.1748H34.48V32.0877C34.48 32.0877 34.48 36.0005 26.2376 36.0005C17.9952 36.0005 17.9952 32.0877 17.9952 32.0877V22.6967C17.9952 20.3485 19.4939 18.7838 21.7416 18.7838H30.7337C33.731 18.7838 35.9786 16.4362 35.9786 13.3057V9.39282H39.725C39.725 9.39282 43.4713 9.39282 43.4713 18.0016C43.4713 26.6102 39.725 26.6095 39.725 26.6095ZM32.231 32.0883C32.231 32.9526 31.5598 33.6536 30.7324 33.6536C29.9049 33.6536 29.2337 32.9526 29.2337 32.0883C29.2337 31.2241 29.9049 30.5231 30.7324 30.5231C31.5598 30.5231 32.231 31.2241 32.231 32.0883Z" fill="#89BCD9"/>
</g>
<path d="M4.752 45.432C5.59467 45.432 6.31467 45.576 6.912 45.864C7.50933 46.1413 7.968 46.5467 8.288 47.08C8.61867 47.6133 8.784 48.2587 8.784 49.016C8.784 49.4747 8.71467 49.928 8.576 50.376C8.43733 50.8133 8.21333 51.2133 7.904 51.576C7.60533 51.928 7.21067 52.2107 6.72 52.424C6.22933 52.6373 5.632 52.744 4.928 52.744H3.216V57H1.664V45.432H4.752ZM4.912 51.256C5.37067 51.256 5.74933 51.1813 6.048 51.032C6.34667 50.8827 6.58133 50.696 6.752 50.472C6.92267 50.2373 7.04533 49.992 7.12 49.736C7.19467 49.48 7.232 49.2507 7.232 49.048C7.232 48.8133 7.19467 48.5733 7.12 48.328C7.04533 48.072 6.91733 47.8427 6.736 47.64C6.56533 47.4267 6.336 47.256 6.048 47.128C5.77067 46.9893 5.424 46.92 5.008 46.92H3.216V51.256H4.912ZM11.3716 60.184L15.7396 50.376H17.1156L12.8436 60.184H11.3716ZM13.0036 57.048L9.81963 50.376H11.4996L14.1716 56.296L13.0036 57.048ZM19.3579 47.464H20.8459V50.408H22.6699V51.576H20.8459V57H19.3579V51.576H18.1419V50.408H19.3579V47.464ZM24.4679 57V44.616H25.9239V51.912L25.8919 51.64C26.1159 51.2027 26.4572 50.84 26.9159 50.552C27.3852 50.264 27.9345 50.12 28.5639 50.12C29.1932 50.12 29.7052 50.3067 30.0999 50.68C30.5052 51.0427 30.7132 51.5173 30.7239 52.104V57H29.2199V52.632C29.2092 52.2693 29.1025 51.976 28.8999 51.752C28.7079 51.5173 28.4039 51.4 27.9879 51.4C27.6039 51.4 27.2572 51.512 26.9479 51.736C26.6385 51.9493 26.3932 52.2427 26.2119 52.616C26.0412 52.9893 25.9559 53.416 25.9559 53.896V57H24.4679ZM32.7356 53.624C32.7356 52.9627 32.8903 52.3653 33.1996 51.832C33.5196 51.2987 33.957 50.8773 34.5116 50.568C35.0663 50.2587 35.6956 50.104 36.3996 50.104C37.125 50.104 37.7596 50.2587 38.3036 50.568C38.8476 50.8773 39.269 51.2987 39.5676 51.832C39.8663 52.3653 40.0156 52.9627 40.0156 53.624C40.0156 54.2853 39.8663 54.888 39.5676 55.432C39.269 55.9653 38.8423 56.3867 38.2876 56.696C37.7436 57.0053 37.109 57.16 36.3836 57.16C35.6796 57.16 35.0503 57.016 34.4956 56.728C33.9516 56.4293 33.5196 56.0187 33.1996 55.496C32.8903 54.9627 32.7356 54.3387 32.7356 53.624ZM34.2236 53.64C34.2236 54.0667 34.3196 54.456 34.5116 54.808C34.7036 55.1493 34.9596 55.4213 35.2796 55.624C35.6103 55.8267 35.973 55.928 36.3676 55.928C36.7836 55.928 37.1516 55.8267 37.4716 55.624C37.8023 55.4213 38.0583 55.1493 38.2396 54.808C38.421 54.456 38.5116 54.0667 38.5116 53.64C38.5116 53.2133 38.421 52.8293 38.2396 52.488C38.0583 52.136 37.8023 51.8587 37.4716 51.656C37.1516 51.4427 36.7836 51.336 36.3676 51.336C35.9623 51.336 35.5943 51.4427 35.2636 51.656C34.9436 51.8693 34.6876 52.152 34.4956 52.504C34.3143 52.8453 34.2236 53.224 34.2236 53.64ZM43.3584 50.376L43.4864 51.992L43.4224 51.736C43.6357 51.2453 43.9824 50.856 44.4624 50.568C44.9424 50.2693 45.497 50.12 46.1264 50.12C46.7557 50.12 47.2677 50.3067 47.6624 50.68C48.0677 51.0427 48.2757 51.5173 48.2864 52.104V57H46.7824V52.632C46.7717 52.2693 46.665 51.976 46.4624 51.752C46.2704 51.5173 45.9664 51.4 45.5504 51.4C45.1664 51.4 44.8197 51.5067 44.5104 51.72C44.201 51.9333 43.9557 52.2267 43.7744 52.6C43.6037 52.9733 43.5184 53.4053 43.5184 53.896V57H42.0304V50.376H43.3584Z" fill="white"/>
</svg>
