<svg width="45" height="63" viewBox="0 0 45 63" fill="none" xmlns="http://www.w3.org/2000/svg">
<mask id="mask0_114_80" style="mask-type:luminance" maskUnits="userSpaceOnUse" x="0" y="0" width="42" height="44">
<path d="M42 0H0V43.8667H42V0Z" fill="white"/>
</mask>
<g mask="url(#mask0_114_80)">
<path fill-rule="evenodd" clip-rule="evenodd" d="M4.56501 11.4431H20.9996V9.53579H10.9562V4.76789C10.9562 4.76789 10.9562 0 20.9996 0C31.0431 0 31.0431 4.76789 31.0431 4.76789C31.0431 4.76789 31.1187 13.2591 31.0809 16.1654C31.0431 19.0724 29.2169 20.9789 26.4722 20.9789H15.5219C11.8696 20.9789 9.1308 23.8395 9.1308 27.6541V32.422H4.56575C4.56575 32.422 0 32.4228 0 21.933C0 11.4431 4.56501 11.4431 4.56501 11.4431ZM17.3473 4.76867C17.3473 5.82175 16.5294 6.67598 15.5212 6.67598C14.5129 6.67598 13.695 5.82175 13.695 4.76867C13.695 3.71558 14.5129 2.86135 15.5212 2.86135C16.5294 2.86135 17.3473 3.71558 17.3473 4.76867Z" fill="#89BCD9"/>
<path fill-rule="evenodd" clip-rule="evenodd" d="M37.439 32.4242H21.0044V34.3315H31.0479V39.0994C31.0479 39.0994 31.0479 43.8673 21.0044 43.8673C10.9609 43.8673 10.9609 39.0994 10.9609 39.0994V27.6563C10.9609 24.795 12.7871 22.8884 15.5259 22.8884H26.4829C30.1352 22.8884 32.874 20.0278 32.874 16.2132V11.4453H37.439C37.439 11.4453 42.004 11.4453 42.004 21.9352C42.004 32.425 37.439 32.4242 37.439 32.4242ZM28.3075 39.1002C28.3075 40.1533 27.4896 41.0075 26.4814 41.0075C25.4731 41.0075 24.6552 40.1533 24.6552 39.1002C24.6552 38.0471 25.4731 37.1929 26.4814 37.1929C27.4896 37.1929 28.3075 38.0471 28.3075 39.1002Z" fill="#89BCD9"/>
</g>
<path d="M4.861 50.601C5.54567 50.601 6.13067 50.718 6.616 50.952C7.10133 51.1773 7.474 51.5067 7.734 51.94C8.00267 52.3733 8.137 52.8977 8.137 53.513C8.137 53.8857 8.08067 54.254 7.968 54.618C7.85533 54.9733 7.67333 55.2983 7.422 55.593C7.17933 55.879 6.85867 56.1087 6.46 56.282C6.06133 56.4553 5.576 56.542 5.004 56.542H3.613V60H2.352V50.601H4.861ZM4.991 55.333C5.36367 55.333 5.67133 55.2723 5.914 55.151C6.15667 55.0297 6.34733 54.878 6.486 54.696C6.62467 54.5053 6.72433 54.306 6.785 54.098C6.84567 53.89 6.876 53.7037 6.876 53.539C6.876 53.3483 6.84567 53.1533 6.785 52.954C6.72433 52.746 6.62033 52.5597 6.473 52.395C6.33433 52.2217 6.148 52.083 5.914 51.979C5.68867 51.8663 5.407 51.81 5.069 51.81H3.613V55.333H4.991ZM10.2394 62.587L13.7884 54.618H14.9064L11.4354 62.587H10.2394ZM11.5654 60.039L8.97845 54.618H10.3434L12.5144 59.428L11.5654 60.039ZM16.7283 52.252H17.9373V54.644H19.4193V55.593H17.9373V60H16.7283V55.593H15.7403V54.644H16.7283V52.252ZM20.8801 60V49.938H22.0631V55.866L22.0371 55.645C22.2191 55.2897 22.4965 54.995 22.8691 54.761C23.2505 54.527 23.6968 54.41 24.2081 54.41C24.7195 54.41 25.1355 54.5617 25.4561 54.865C25.7855 55.1597 25.9545 55.5453 25.9631 56.022V60H24.7411V56.451C24.7325 56.1563 24.6458 55.918 24.4811 55.736C24.3251 55.5453 24.0781 55.45 23.7401 55.45C23.4281 55.45 23.1465 55.541 22.8951 55.723C22.6438 55.8963 22.4445 56.1347 22.2971 56.438C22.1585 56.7413 22.0891 57.088 22.0891 57.478V60H20.8801ZM27.5977 57.257C27.5977 56.7197 27.7234 56.2343 27.9747 55.801C28.2347 55.3677 28.59 55.0253 29.0407 54.774C29.4914 54.5227 30.0027 54.397 30.5747 54.397C31.164 54.397 31.6797 54.5227 32.1217 54.774C32.5637 55.0253 32.906 55.3677 33.1487 55.801C33.3914 56.2343 33.5127 56.7197 33.5127 57.257C33.5127 57.7943 33.3914 58.284 33.1487 58.726C32.906 59.1593 32.5594 59.5017 32.1087 59.753C31.6667 60.0043 31.151 60.13 30.5617 60.13C29.9897 60.13 29.4784 60.013 29.0277 59.779C28.5857 59.5363 28.2347 59.2027 27.9747 58.778C27.7234 58.3447 27.5977 57.8377 27.5977 57.257ZM28.8067 57.27C28.8067 57.6167 28.8847 57.933 29.0407 58.219C29.1967 58.4963 29.4047 58.7173 29.6647 58.882C29.9334 59.0467 30.228 59.129 30.5487 59.129C30.8867 59.129 31.1857 59.0467 31.4457 58.882C31.7144 58.7173 31.9224 58.4963 32.0697 58.219C32.217 57.933 32.2907 57.6167 32.2907 57.27C32.2907 56.9233 32.217 56.6113 32.0697 56.334C31.9224 56.048 31.7144 55.8227 31.4457 55.658C31.1857 55.4847 30.8867 55.398 30.5487 55.398C30.2194 55.398 29.9204 55.4847 29.6517 55.658C29.3917 55.8313 29.1837 56.061 29.0277 56.347C28.8804 56.6243 28.8067 56.932 28.8067 57.27ZM36.2287 54.618L36.3327 55.931L36.2807 55.723C36.454 55.3243 36.7357 55.008 37.1257 54.774C37.5157 54.5313 37.9663 54.41 38.4777 54.41C38.989 54.41 39.405 54.5617 39.7257 54.865C40.055 55.1597 40.224 55.5453 40.2327 56.022V60H39.0107V56.451C39.002 56.1563 38.9153 55.918 38.7507 55.736C38.5947 55.5453 38.3477 55.45 38.0097 55.45C37.6977 55.45 37.416 55.5367 37.1647 55.71C36.9133 55.8833 36.714 56.1217 36.5667 56.425C36.428 56.7283 36.3587 57.0793 36.3587 57.478V60H35.1497V54.618H36.2287Z" fill="white"/>
</svg>
