<svg width="45" height="64" viewBox="0 0 45 64" fill="none" xmlns="http://www.w3.org/2000/svg">
<path fill-rule="evenodd" clip-rule="evenodd" d="M11.7266 45.9L1 0.75L44 13.6219L11.7266 45.9Z" stroke="#89BCD9" stroke-width="1.5" stroke-miterlimit="10" stroke-linejoin="round"/>
<path fill-rule="evenodd" clip-rule="evenodd" d="M22.4921 7.18713L27.8516 29.7689L6.36346 23.3308L22.4921 7.18713Z" stroke="#89BCD9" stroke-width="1.5" stroke-miterlimit="10" stroke-linejoin="round"/>
<path fill-rule="evenodd" clip-rule="evenodd" d="M17.1601 26.3938L14.4982 15.176L25.1738 18.3624L17.1601 26.3938Z" stroke="#89BCD9" stroke-width="1.5" stroke-miterlimit="10" stroke-linejoin="round"/>
<path fill-rule="evenodd" clip-rule="evenodd" d="M11.8352 3.97168L14.4972 15.1895L3.82153 12.0031L11.8352 3.97168Z" stroke="#89BCD9" stroke-width="1.5" stroke-miterlimit="10" stroke-linejoin="round"/>
<path fill-rule="evenodd" clip-rule="evenodd" d="M33.1856 10.3662L35.8475 21.584L25.1719 18.3977L33.1856 10.3662Z" stroke="#89BCD9" stroke-width="1.5" stroke-miterlimit="10" stroke-linejoin="round"/>
<path fill-rule="evenodd" clip-rule="evenodd" d="M17.1613 26.4015L19.8232 37.6193L9.14758 34.433L17.1613 26.4015Z" stroke="#89BCD9" stroke-width="1.5" stroke-miterlimit="10" stroke-linejoin="round"/>
<path d="M0.663 51.351H6.903V52.56H4.381V60.75H3.12V52.56H0.663V51.351ZM8.60671 60.75V50.688H9.78971V56.616L9.76371 56.395C9.94571 56.0397 10.223 55.745 10.5957 55.511C10.977 55.277 11.4234 55.16 11.9347 55.16C12.446 55.16 12.862 55.3117 13.1827 55.615C13.512 55.9097 13.681 56.2953 13.6897 56.772V60.75H12.4677V57.201C12.459 56.9063 12.3724 56.668 12.2077 56.486C12.0517 56.2953 11.8047 56.2 11.4667 56.2C11.1547 56.2 10.873 56.291 10.6217 56.473C10.3704 56.6463 10.171 56.8847 10.0237 57.188C9.88504 57.4913 9.81571 57.838 9.81571 58.228V60.75H8.60671ZM16.8713 55.368L16.9883 56.928L16.9233 56.72C17.0619 56.3907 17.2613 56.1133 17.5213 55.888C17.7899 55.654 18.0673 55.4763 18.3533 55.355C18.6479 55.225 18.9036 55.16 19.1203 55.16L19.0553 56.356C18.6479 56.33 18.2883 56.408 17.9763 56.59C17.6729 56.772 17.4303 57.0147 17.2483 57.318C17.0749 57.6213 16.9883 57.9463 16.9883 58.293V60.75H15.7923V55.368H16.8713ZM22.9474 60.88C22.3321 60.88 21.8034 60.7587 21.3614 60.516C20.9194 60.2647 20.5771 59.9267 20.3344 59.502C20.1004 59.0687 19.9834 58.5747 19.9834 58.02C19.9834 57.4913 20.1178 57.0103 20.3864 56.577C20.6551 56.1437 21.0148 55.797 21.4654 55.537C21.9161 55.277 22.4188 55.147 22.9734 55.147C23.6841 55.147 24.2734 55.355 24.7414 55.771C25.2094 56.187 25.5258 56.759 25.6904 57.487L21.2574 59.047L20.9714 58.332L24.6114 57.006L24.3514 57.175C24.2474 56.889 24.0741 56.642 23.8314 56.434C23.5888 56.2173 23.2724 56.109 22.8824 56.109C22.5531 56.109 22.2584 56.1913 21.9984 56.356C21.7384 56.512 21.5348 56.7287 21.3874 57.006C21.2401 57.2833 21.1664 57.5997 21.1664 57.955C21.1664 58.3277 21.2444 58.657 21.4004 58.943C21.5564 59.2203 21.7688 59.4413 22.0374 59.606C22.3148 59.762 22.6268 59.84 22.9734 59.84C23.2074 59.84 23.4328 59.7967 23.6494 59.71C23.8748 59.6233 24.0828 59.5107 24.2734 59.372L24.8324 60.269C24.5638 60.451 24.2604 60.5983 23.9224 60.711C23.5931 60.8237 23.2681 60.88 22.9474 60.88ZM29.7013 60.88C29.086 60.88 28.5573 60.7587 28.1153 60.516C27.6733 60.2647 27.331 59.9267 27.0883 59.502C26.8543 59.0687 26.7373 58.5747 26.7373 58.02C26.7373 57.4913 26.8717 57.0103 27.1403 56.577C27.409 56.1437 27.7687 55.797 28.2193 55.537C28.67 55.277 29.1727 55.147 29.7273 55.147C30.438 55.147 31.0273 55.355 31.4953 55.771C31.9633 56.187 32.2797 56.759 32.4443 57.487L28.0113 59.047L27.7253 58.332L31.3653 57.006L31.1053 57.175C31.0013 56.889 30.828 56.642 30.5853 56.434C30.3427 56.2173 30.0263 56.109 29.6363 56.109C29.307 56.109 29.0123 56.1913 28.7523 56.356C28.4923 56.512 28.2887 56.7287 28.1413 57.006C27.994 57.2833 27.9203 57.5997 27.9203 57.955C27.9203 58.3277 27.9983 58.657 28.1543 58.943C28.3103 59.2203 28.5227 59.4413 28.7913 59.606C29.0687 59.762 29.3807 59.84 29.7273 59.84C29.9613 59.84 30.1867 59.7967 30.4033 59.71C30.6287 59.6233 30.8367 59.5107 31.0273 59.372L31.5863 60.269C31.3177 60.451 31.0143 60.5983 30.6763 60.711C30.347 60.8237 30.022 60.88 29.7013 60.88ZM33.3483 60.061C33.3483 59.8703 33.4176 59.71 33.5563 59.58C33.7036 59.4413 33.8639 59.372 34.0373 59.372C34.1933 59.372 34.3406 59.4413 34.4793 59.58C34.6266 59.71 34.7003 59.8703 34.7003 60.061C34.7003 60.269 34.6266 60.438 34.4793 60.568C34.3406 60.6893 34.1933 60.75 34.0373 60.75C33.8639 60.75 33.7036 60.6893 33.5563 60.568C33.4176 60.438 33.3483 60.269 33.3483 60.061ZM36.2078 63.337L35.4928 62.596C35.7355 62.388 35.9262 62.128 36.0648 61.816C36.2035 61.5127 36.2728 61.153 36.2728 60.737V55.368H37.4948V60.789C37.4948 61.3957 37.3908 61.907 37.1828 62.323C36.9835 62.7477 36.6585 63.0857 36.2078 63.337ZM36.1688 53.418C36.1688 53.2273 36.2425 53.067 36.3898 52.937C36.5458 52.807 36.7148 52.742 36.8968 52.742C37.0788 52.742 37.2392 52.807 37.3778 52.937C37.5252 53.067 37.5988 53.2273 37.5988 53.418C37.5988 53.6173 37.5252 53.782 37.3778 53.912C37.2392 54.0333 37.0788 54.094 36.8968 54.094C36.7148 54.094 36.5458 54.029 36.3898 53.899C36.2425 53.769 36.1688 53.6087 36.1688 53.418ZM41.0151 60.854C40.6338 60.854 40.2611 60.789 39.8971 60.659C39.5418 60.5203 39.2471 60.3167 39.0131 60.048L39.5201 59.346C39.7454 59.5627 39.9751 59.7273 40.2091 59.84C40.4518 59.944 40.6901 59.996 40.9241 59.996C41.0974 59.996 41.2578 59.9743 41.4051 59.931C41.5524 59.8877 41.6694 59.8183 41.7561 59.723C41.8514 59.619 41.8991 59.4803 41.8991 59.307C41.8991 59.1163 41.8341 58.9647 41.7041 58.852C41.5828 58.7393 41.4224 58.6483 41.2231 58.579C41.0324 58.5097 40.8288 58.4447 40.6121 58.384C40.1701 58.2367 39.8321 58.033 39.5981 57.773C39.3641 57.513 39.2471 57.1967 39.2471 56.824C39.2471 56.538 39.3164 56.2737 39.4551 56.031C39.6024 55.7797 39.8148 55.576 40.0921 55.42C40.3781 55.264 40.7291 55.186 41.1451 55.186C41.5178 55.186 41.8514 55.2337 42.1461 55.329C42.4408 55.4157 42.7181 55.563 42.9781 55.771L42.4971 56.525C42.3411 56.3603 42.1548 56.239 41.9381 56.161C41.7214 56.083 41.5264 56.0397 41.3531 56.031C41.2058 56.0223 41.0628 56.044 40.9241 56.096C40.7941 56.148 40.6858 56.2217 40.5991 56.317C40.5124 56.4123 40.4691 56.525 40.4691 56.655C40.4691 56.837 40.5298 56.9843 40.6511 57.097C40.7724 57.2097 40.9284 57.3007 41.1191 57.37C41.3184 57.4307 41.5134 57.4957 41.7041 57.565C41.9728 57.643 42.2111 57.747 42.4191 57.877C42.6271 58.007 42.7918 58.1673 42.9131 58.358C43.0431 58.5487 43.1081 58.787 43.1081 59.073C43.1081 59.3937 43.0301 59.6927 42.8741 59.97C42.7268 60.2387 42.4971 60.4553 42.1851 60.62C41.8818 60.776 41.4918 60.854 41.0151 60.854Z" fill="white"/>
</svg>
