<svg width="56" height="60" viewBox="0 0 56 60" fill="none" xmlns="http://www.w3.org/2000/svg">
<path fill-rule="evenodd" clip-rule="evenodd" d="M20.0776 34.75L12 0.75L44.381 10.4431L20.0776 34.75Z" stroke="#89BCD9" stroke-width="1.5" stroke-miterlimit="10" stroke-linejoin="round"/>
<path fill-rule="evenodd" clip-rule="evenodd" d="M28.1846 5.59741L32.2204 22.6025L16.0389 17.7543L28.1846 5.59741Z" stroke="#89BCD9" stroke-width="1.5" stroke-miterlimit="10" stroke-linejoin="round"/>
<path fill-rule="evenodd" clip-rule="evenodd" d="M24.1693 20.0609L22.1647 11.6134L30.204 14.0129L24.1693 20.0609Z" stroke="#89BCD9" stroke-width="1.5" stroke-miterlimit="10" stroke-linejoin="round"/>
<path fill-rule="evenodd" clip-rule="evenodd" d="M20.1594 3.17603L22.164 11.6235L14.1248 9.22408L20.1594 3.17603Z" stroke="#89BCD9" stroke-width="1.5" stroke-miterlimit="10" stroke-linejoin="round"/>
<path fill-rule="evenodd" clip-rule="evenodd" d="M36.2372 7.99146L38.2418 16.439L30.2025 14.0395L36.2372 7.99146Z" stroke="#89BCD9" stroke-width="1.5" stroke-miterlimit="10" stroke-linejoin="round"/>
<path fill-rule="evenodd" clip-rule="evenodd" d="M24.1702 20.0668L26.1748 28.5143L18.1355 26.1148L24.1702 20.0668Z" stroke="#89BCD9" stroke-width="1.5" stroke-miterlimit="10" stroke-linejoin="round"/>
<path d="M0.816 45.182H8.496V46.67H5.392V56.75H3.84V46.67H0.816V45.182ZM10.5929 56.75V44.366H12.0489V51.662L12.0169 51.39C12.2409 50.9527 12.5822 50.59 13.0409 50.302C13.5102 50.014 14.0595 49.87 14.6889 49.87C15.3182 49.87 15.8302 50.0567 16.2249 50.43C16.6302 50.7927 16.8382 51.2673 16.8489 51.854V56.75H15.3449V52.382C15.3342 52.0193 15.2275 51.726 15.0249 51.502C14.8329 51.2673 14.5289 51.15 14.1129 51.15C13.7289 51.15 13.3822 51.262 13.0729 51.486C12.7635 51.6993 12.5182 51.9927 12.3369 52.366C12.1662 52.7393 12.0809 53.166 12.0809 53.646V56.75H10.5929ZM20.7646 50.126L20.9086 52.046L20.8286 51.79C20.9993 51.3847 21.2446 51.0433 21.5646 50.766C21.8953 50.478 22.2366 50.2593 22.5886 50.11C22.9513 49.95 23.266 49.87 23.5326 49.87L23.4526 51.342C22.9513 51.31 22.5086 51.406 22.1246 51.63C21.7513 51.854 21.4526 52.1527 21.2286 52.526C21.0153 52.8993 20.9086 53.2993 20.9086 53.726V56.75H19.4366V50.126H20.7646ZM28.243 56.91C27.4857 56.91 26.835 56.7607 26.291 56.462C25.747 56.1527 25.3257 55.7367 25.027 55.214C24.739 54.6807 24.595 54.0727 24.595 53.39C24.595 52.7393 24.7603 52.1473 25.091 51.614C25.4217 51.0807 25.8643 50.654 26.419 50.334C26.9737 50.014 27.5923 49.854 28.275 49.854C29.1497 49.854 29.875 50.11 30.451 50.622C31.027 51.134 31.4163 51.838 31.619 52.734L26.163 54.654L25.811 53.774L30.291 52.142L29.971 52.35C29.843 51.998 29.6297 51.694 29.331 51.438C29.0323 51.1713 28.643 51.038 28.163 51.038C27.7577 51.038 27.395 51.1393 27.075 51.342C26.755 51.534 26.5043 51.8007 26.323 52.142C26.1417 52.4833 26.051 52.8727 26.051 53.31C26.051 53.7687 26.147 54.174 26.339 54.526C26.531 54.8673 26.7923 55.1393 27.123 55.342C27.4643 55.534 27.8483 55.63 28.275 55.63C28.563 55.63 28.8403 55.5767 29.107 55.47C29.3843 55.3633 29.6403 55.2247 29.875 55.054L30.563 56.158C30.2323 56.382 29.859 56.5633 29.443 56.702C29.0377 56.8407 28.6377 56.91 28.243 56.91ZM36.5555 56.91C35.7982 56.91 35.1475 56.7607 34.6035 56.462C34.0595 56.1527 33.6382 55.7367 33.3395 55.214C33.0515 54.6807 32.9075 54.0727 32.9075 53.39C32.9075 52.7393 33.0728 52.1473 33.4035 51.614C33.7342 51.0807 34.1768 50.654 34.7315 50.334C35.2862 50.014 35.9048 49.854 36.5875 49.854C37.4622 49.854 38.1875 50.11 38.7635 50.622C39.3395 51.134 39.7288 51.838 39.9315 52.734L34.4755 54.654L34.1235 53.774L38.6035 52.142L38.2835 52.35C38.1555 51.998 37.9422 51.694 37.6435 51.438C37.3448 51.1713 36.9555 51.038 36.4755 51.038C36.0702 51.038 35.7075 51.1393 35.3875 51.342C35.0675 51.534 34.8168 51.8007 34.6355 52.142C34.4542 52.4833 34.3635 52.8727 34.3635 53.31C34.3635 53.7687 34.4595 54.174 34.6515 54.526C34.8435 54.8673 35.1048 55.1393 35.4355 55.342C35.7768 55.534 36.1608 55.63 36.5875 55.63C36.8755 55.63 37.1528 55.5767 37.4195 55.47C37.6968 55.3633 37.9528 55.2247 38.1875 55.054L38.8755 56.158C38.5448 56.382 38.1715 56.5633 37.7555 56.702C37.3502 56.8407 36.9502 56.91 36.5555 56.91ZM41.044 55.902C41.044 55.6673 41.1293 55.47 41.3 55.31C41.4813 55.1393 41.6787 55.054 41.892 55.054C42.084 55.054 42.2653 55.1393 42.436 55.31C42.6173 55.47 42.708 55.6673 42.708 55.902C42.708 56.158 42.6173 56.366 42.436 56.526C42.2653 56.6753 42.084 56.75 41.892 56.75C41.6787 56.75 41.4813 56.6753 41.3 56.526C41.1293 56.366 41.044 56.158 41.044 55.902ZM44.5635 59.934L43.6835 59.022C43.9822 58.766 44.2168 58.446 44.3875 58.062C44.5582 57.6887 44.6435 57.246 44.6435 56.734V50.126H46.1475V56.798C46.1475 57.5447 46.0195 58.174 45.7635 58.686C45.5182 59.2087 45.1182 59.6247 44.5635 59.934ZM44.5155 47.726C44.5155 47.4913 44.6062 47.294 44.7875 47.134C44.9795 46.974 45.1875 46.894 45.4115 46.894C45.6355 46.894 45.8328 46.974 46.0035 47.134C46.1848 47.294 46.2755 47.4913 46.2755 47.726C46.2755 47.9713 46.1848 48.174 46.0035 48.334C45.8328 48.4833 45.6355 48.558 45.4115 48.558C45.1875 48.558 44.9795 48.478 44.7875 48.318C44.6062 48.158 44.5155 47.9607 44.5155 47.726ZM50.4801 56.878C50.0108 56.878 49.5521 56.798 49.1041 56.638C48.6668 56.4673 48.3041 56.2167 48.0161 55.886L48.6401 55.022C48.9175 55.2887 49.2001 55.4913 49.4881 55.63C49.7868 55.758 50.0801 55.822 50.3681 55.822C50.5815 55.822 50.7788 55.7953 50.9601 55.742C51.1415 55.6887 51.2855 55.6033 51.3921 55.486C51.5095 55.358 51.5681 55.1873 51.5681 54.974C51.5681 54.7393 51.4881 54.5527 51.3281 54.414C51.1788 54.2753 50.9815 54.1633 50.7361 54.078C50.5015 53.9927 50.2508 53.9127 49.9841 53.838C49.4401 53.6567 49.0241 53.406 48.7361 53.086C48.4481 52.766 48.3041 52.3767 48.3041 51.918C48.3041 51.566 48.3895 51.2407 48.5601 50.942C48.7415 50.6327 49.0028 50.382 49.3441 50.19C49.6961 49.998 50.1281 49.902 50.6401 49.902C51.0988 49.902 51.5095 49.9607 51.8721 50.078C52.2348 50.1847 52.5761 50.366 52.8961 50.622L52.3041 51.55C52.1121 51.3473 51.8828 51.198 51.6161 51.102C51.3495 51.006 51.1095 50.9527 50.8961 50.942C50.7148 50.9313 50.5388 50.958 50.3681 51.022C50.2081 51.086 50.0748 51.1767 49.9681 51.294C49.8615 51.4113 49.8081 51.55 49.8081 51.71C49.8081 51.934 49.8828 52.1153 50.0321 52.254C50.1815 52.3927 50.3735 52.5047 50.6081 52.59C50.8535 52.6647 51.0935 52.7447 51.3281 52.83C51.6588 52.926 51.9521 53.054 52.2081 53.214C52.4641 53.374 52.6668 53.5713 52.8161 53.806C52.9761 54.0407 53.0561 54.334 53.0561 54.686C53.0561 55.0807 52.9601 55.4487 52.7681 55.79C52.5868 56.1207 52.3041 56.3873 51.9201 56.59C51.5468 56.782 51.0668 56.878 50.4801 56.878Z" fill="white"/>
</svg>
