<svg width="40" height="54" viewBox="0 0 40 54" fill="none" xmlns="http://www.w3.org/2000/svg">
<path d="M23.6951 2.66797L20.0006 9.06797L16.3049 2.66797H4L20.0006 30.3817L36 2.66797H23.6951Z" fill="#89BCD9"/>
<path d="M23.6936 2.66797L19.999 9.06797L16.3033 2.66797H10.3984L19.999 19.2957L29.5984 2.66797H23.6936Z" fill="#F8F5EC"/>
<path d="M2.65373 38.878L5.98573 47.25L5.21573 47.096L8.37973 38.878H9.96173L5.49573 49.462L1.04373 38.878H2.65373ZM12.3381 49.224C11.8155 49.224 11.3815 49.0653 11.0361 48.748C10.7001 48.4213 10.5228 48.0013 10.5041 47.488V43.204H11.8061V47.026C11.8248 47.3433 11.9135 47.6 12.0721 47.796C12.2401 47.992 12.5015 48.0947 12.8561 48.104C13.1828 48.104 13.4721 48.0107 13.7241 47.824C13.9855 47.628 14.1955 47.3667 14.3541 47.04C14.5128 46.704 14.5921 46.326 14.5921 45.906V43.204H15.8941V49H14.7041L14.5921 47.572L14.6621 47.824C14.5501 48.0947 14.3775 48.3373 14.1441 48.552C13.9201 48.7573 13.6541 48.9207 13.3461 49.042C13.0381 49.1633 12.7021 49.224 12.3381 49.224ZM20.8347 49.14C20.172 49.14 19.6027 49.0093 19.1267 48.748C18.6507 48.4773 18.282 48.1133 18.0207 47.656C17.7687 47.1893 17.6427 46.6573 17.6427 46.06C17.6427 45.4907 17.7874 44.9727 18.0767 44.506C18.366 44.0393 18.7534 43.666 19.2387 43.386C19.724 43.106 20.2654 42.966 20.8627 42.966C21.628 42.966 22.2627 43.19 22.7667 43.638C23.2707 44.086 23.6114 44.702 23.7887 45.486L19.0147 47.166L18.7067 46.396L22.6267 44.968L22.3467 45.15C22.2347 44.842 22.048 44.576 21.7867 44.352C21.5254 44.1187 21.1847 44.002 20.7647 44.002C20.41 44.002 20.0927 44.0907 19.8127 44.268C19.5327 44.436 19.3134 44.6693 19.1547 44.968C18.996 45.2667 18.9167 45.6073 18.9167 45.99C18.9167 46.3913 19.0007 46.746 19.1687 47.054C19.3367 47.3527 19.5654 47.5907 19.8547 47.768C20.1534 47.936 20.4894 48.02 20.8627 48.02C21.1147 48.02 21.3574 47.9733 21.5907 47.88C21.8334 47.7867 22.0574 47.6653 22.2627 47.516L22.8647 48.482C22.5754 48.678 22.2487 48.8367 21.8847 48.958C21.53 49.0793 21.18 49.14 20.8347 49.14ZM32.3698 47.166C32.3698 47.9873 32.2112 48.6873 31.8938 49.266C31.5858 49.8447 31.1612 50.2833 30.6198 50.582C30.0785 50.89 29.4578 51.058 28.7578 51.086V49.77C29.4112 49.7327 29.9478 49.4993 30.3678 49.07C30.7972 48.65 31.0118 48.0013 31.0118 47.124V38.878H32.3698V47.166ZM36.5871 49.112C36.1764 49.112 35.7751 49.042 35.3831 48.902C35.0004 48.7527 34.6831 48.5333 34.4311 48.244L34.9771 47.488C35.2198 47.7213 35.4671 47.8987 35.7191 48.02C35.9804 48.132 36.2371 48.188 36.4891 48.188C36.6758 48.188 36.8484 48.1647 37.0071 48.118C37.1658 48.0713 37.2918 47.9967 37.3851 47.894C37.4878 47.782 37.5391 47.6327 37.5391 47.446C37.5391 47.2407 37.4691 47.0773 37.3291 46.956C37.1984 46.8347 37.0258 46.7367 36.8111 46.662C36.6058 46.5873 36.3864 46.5173 36.1531 46.452C35.6771 46.2933 35.3131 46.074 35.0611 45.794C34.8091 45.514 34.6831 45.1733 34.6831 44.772C34.6831 44.464 34.7578 44.1793 34.9071 43.918C35.0658 43.6473 35.2944 43.428 35.5931 43.26C35.9011 43.092 36.2791 43.008 36.7271 43.008C37.1284 43.008 37.4878 43.0593 37.8051 43.162C38.1224 43.2553 38.4211 43.414 38.7011 43.638L38.1831 44.45C38.0151 44.2727 37.8144 44.142 37.5811 44.058C37.3478 43.974 37.1378 43.9273 36.9511 43.918C36.7924 43.9087 36.6384 43.932 36.4891 43.988C36.3491 44.044 36.2324 44.1233 36.1391 44.226C36.0458 44.3287 35.9991 44.45 35.9991 44.59C35.9991 44.786 36.0644 44.9447 36.1951 45.066C36.3258 45.1873 36.4938 45.2853 36.6991 45.36C36.9138 45.4253 37.1238 45.4953 37.3291 45.57C37.6184 45.654 37.8751 45.766 38.0991 45.906C38.3231 46.046 38.5004 46.2187 38.6311 46.424C38.7711 46.6293 38.8411 46.886 38.8411 47.194C38.8411 47.5393 38.7571 47.8613 38.5891 48.16C38.4304 48.4493 38.1831 48.6827 37.8471 48.86C37.5204 49.028 37.1004 49.112 36.5871 49.112Z" fill="#F8F5EC"/>
</svg>
