<svg width="38" height="89" viewBox="0 0 38 89" fill="none" xmlns="http://www.w3.org/2000/svg">
<path d="M20.4142 65.0634L27.3265 58.7604C27.7082 58.4123 28.2923 58.4123 28.6741 58.7604L29.1897 59.2306C29.6246 59.6272 29.6246 60.3118 29.1897 60.7084L19.6738 69.3856C19.292 69.7337 18.708 69.7337 18.3262 69.3856L8.81034 60.7084C8.3754 60.3118 8.3754 59.6272 8.81034 59.2306L9.32595 58.7604C9.7077 58.4123 10.2918 58.4123 10.6735 58.7604L17.5858 65.0634L17.5858 21C17.5858 20.4477 18.0335 20 18.5858 20H19.4142C19.9665 20 20.4142 20.4477 20.4142 21L20.4142 65.0634Z" fill="#89BCD9"/>
<rect x="0.5" y="0.5" width="37" height="88" rx="18.5" stroke="#89BCD9"/>
</svg>
