<svg width="38" height="89" viewBox="0 0 38 89" fill="none" xmlns="http://www.w3.org/2000/svg">
<path d="M17.5858 24.9366L10.6735 31.2396C10.2918 31.5877 9.7077 31.5877 9.32595 31.2396L8.81034 30.7694C8.3754 30.3728 8.3754 29.6882 8.81034 29.2916L18.3262 20.6144C18.708 20.2663 19.292 20.2663 19.6738 20.6144L29.1897 29.2916C29.6246 29.6882 29.6246 30.3728 29.1897 30.7694L28.6741 31.2396C28.2923 31.5877 27.7082 31.5877 27.3265 31.2396L20.4142 24.9366L20.4142 69C20.4142 69.5523 19.9665 70 19.4142 70H18.5858C18.0335 70 17.5858 69.5523 17.5858 69L17.5858 24.9366Z" fill="#89BCD9"/>
<rect x="0.5" y="0.5" width="37" height="88" rx="18.5" stroke="#89BCD9"/>
</svg>
