<svg width="50" height="22" viewBox="0 0 50 22" fill="none" xmlns="http://www.w3.org/2000/svg">
<g clip-path="url(#clip0_59_9)">
<path d="M4.58327 11.9301L10.8863 18.8423C11.2344 19.2241 11.2344 19.8082 10.8863 20.1899L10.4161 20.7055C10.0195 21.1405 9.33489 21.1405 8.93828 20.7055L0.261079 11.1897C-0.0870265 10.8079 -0.0870265 10.2239 0.261079 9.84207L8.93828 0.326176C9.33489 -0.108724 10.0195 -0.108724 10.4161 0.326176L10.8863 0.841774C11.2344 1.22357 11.2344 1.80767 10.8863 2.18937L4.58327 9.10167H48.6467C49.199 9.10167 49.6467 9.54937 49.6467 10.1017V10.9301C49.6467 11.4824 49.199 11.9301 48.6467 11.9301H4.58327Z" fill="#89BCD9"/>
</g>
<defs>
<clipPath id="clip0_59_9">
<rect width="21.0317" height="49.6467" fill="white" transform="matrix(0 -1 1 0 0 21.0317)"/>
</clipPath>
</defs>
</svg>
