<svg width="40" height="40" viewBox="0 0 40 40" fill="none" xmlns="http://www.w3.org/2000/svg">
<path d="M28.5 24.5026C28.7557 24.4951 28.9695 24.4313 29.1413 24.3112C29.3132 24.1911 29.4514 24.0373 29.5562 23.8496C29.6568 23.6658 29.7281 23.4575 29.77 23.2248C29.8161 22.9959 29.8391 22.7651 29.8391 22.5324V21.5811C29.8391 21.2846 29.8873 21.0107 29.9838 20.7592C30.0843 20.5078 30.2373 20.2902 30.4427 20.1063C30.5516 20.0087 30.6732 19.9205 30.8073 19.8417C30.9456 19.7629 31.0965 19.6935 31.26 19.6334C31.0923 19.5734 30.9373 19.5021 30.7948 19.4195C30.6564 19.337 30.5349 19.245 30.4301 19.1437C30.229 18.956 30.0802 18.7384 29.9838 18.4907C29.8873 18.2393 29.8391 17.9672 29.8391 17.6745V16.7175C29.8391 16.4886 29.8245 16.2578 29.7951 16.0252C29.77 15.7925 29.7134 15.5823 29.6254 15.3947C29.5332 15.2108 29.399 15.0589 29.223 14.9387C29.047 14.8186 28.8081 14.7549 28.5063 14.7474L28.6321 14.1C29.0386 14.1113 29.3865 14.1882 29.6757 14.3308C29.9691 14.4734 30.21 14.6592 30.3987 14.8881C30.6124 15.147 30.7654 15.4378 30.8576 15.7606C30.954 16.0833 31.0022 16.4023 31.0022 16.7175V17.6745C31.0022 17.8997 31.0253 18.0985 31.0714 18.2712C31.1216 18.4401 31.195 18.5864 31.2914 18.7103C31.4298 18.8867 31.6204 19.0161 31.8635 19.0986C32.1108 19.1775 32.4063 19.2169 32.75 19.2169V20.0331C32.4482 20.0368 32.1842 20.0706 31.9578 20.1344C31.7357 20.1945 31.5534 20.2902 31.4109 20.4215C31.2726 20.5491 31.1698 20.7086 31.1028 20.8999C31.0358 21.0914 31.0022 21.3184 31.0022 21.5811V22.5324C31.0022 22.8326 30.9561 23.1347 30.8639 23.4387C30.7717 23.7465 30.6292 24.026 30.4364 24.2774C30.2394 24.5289 29.9921 24.7353 29.6945 24.8966C29.3969 25.058 29.0428 25.1425 28.6321 25.15L28.5 24.5026Z" fill="#242B30"/>
<path d="M11.2454 25.1921C10.8876 25.1811 10.5777 25.098 10.3157 24.9431C10.0538 24.7881 9.83611 24.5834 9.66271 24.3288C9.49675 24.0853 9.3713 23.8123 9.28644 23.5098C9.20159 23.211 9.15916 22.914 9.15916 22.6189V21.6836C9.15916 21.1523 9.03187 20.7669 8.77729 20.527C8.52647 20.2872 8.14093 20.1655 7.62073 20.1618V19.3594C8.14093 19.3594 8.52647 19.2413 8.77729 19.0052C9.03187 18.7655 9.15916 18.3781 9.15916 17.8431V16.9023C9.15916 16.6036 9.1979 16.2992 9.27539 15.9893C9.35657 15.6757 9.48379 15.3953 9.65719 15.1481C9.81954 14.9121 10.0317 14.7202 10.2936 14.5726C10.5556 14.4213 10.8728 14.3402 11.2454 14.3291L11.3616 14.9655C11.096 14.9729 10.8839 15.0356 10.7252 15.1537C10.5703 15.2718 10.4541 15.4211 10.3766 15.6019C10.2955 15.7864 10.2438 15.993 10.2217 16.2217C10.1996 16.4504 10.1884 16.6773 10.1884 16.9023V17.8431C10.1884 18.2859 10.0852 18.6751 9.87854 19.0108C9.67567 19.3428 9.36025 19.5955 8.93228 19.7689C9.36025 19.9386 9.67567 20.1913 9.87854 20.527C10.0815 20.8591 10.1848 21.2446 10.1884 21.6836V22.6189C10.1884 22.8476 10.2069 23.0745 10.2438 23.2995C10.2807 23.5282 10.3453 23.733 10.4375 23.9138C10.526 24.0982 10.6441 24.2495 10.7917 24.3675C10.9429 24.4856 11.1329 24.5483 11.3616 24.5557L11.2454 25.1921Z" fill="#242B30"/>
<path d="M24.3736 30.25H29.698L37 19.8577L29.698 9H24.3736L14.4855 30.25H9.61746L3 19.8577L9.61746 9H14.4855" stroke="#262E34" stroke-opacity="0.8" stroke-width="4" stroke-linecap="round"/>
</svg>
