<svg width="40" height="40" viewBox="0 0 40 40" fill="none" xmlns="http://www.w3.org/2000/svg">
<path d="M11.2454 25.1921C10.8876 25.1811 10.5777 25.098 10.3157 24.9431C10.0538 24.7881 9.83611 24.5834 9.66271 24.3288C9.49675 24.0853 9.3713 23.8123 9.28644 23.5098C9.20159 23.211 9.15916 22.914 9.15916 22.6189V21.6836C9.15916 21.1523 9.03187 20.7669 8.77729 20.527C8.52647 20.2872 8.14093 20.1655 7.62073 20.1618V19.3594C8.14093 19.3594 8.52647 19.2413 8.77729 19.0052C9.03187 18.7655 9.15916 18.3781 9.15916 17.8431V16.9023C9.15916 16.6036 9.1979 16.2992 9.27539 15.9893C9.35657 15.6757 9.48379 15.3953 9.65719 15.1481C9.81954 14.9121 10.0317 14.7202 10.2936 14.5726C10.5556 14.4213 10.8728 14.3402 11.2454 14.3291L11.3616 14.9655C11.096 14.9729 10.8839 15.0356 10.7252 15.1537C10.5703 15.2718 10.4541 15.4211 10.3766 15.6019C10.2955 15.7864 10.2438 15.993 10.2217 16.2217C10.1996 16.4504 10.1884 16.6773 10.1884 16.9023V17.8431C10.1884 18.2859 10.0852 18.6751 9.87854 19.0108C9.67567 19.3428 9.36025 19.5955 8.93228 19.7689C9.36025 19.9386 9.67567 20.1913 9.87854 20.527C10.0815 20.8591 10.1848 21.2446 10.1884 21.6836V22.6189C10.1884 22.8476 10.2069 23.0745 10.2438 23.2995C10.2807 23.5282 10.3453 23.733 10.4375 23.9138C10.526 24.0982 10.6441 24.2495 10.7917 24.3675C10.9429 24.4856 11.1329 24.5483 11.3616 24.5557L11.2454 25.1921Z" fill="#F8F5EC"/>
<path d="M28.8707 24.5557C29.0958 24.5483 29.284 24.4856 29.4352 24.3675C29.5865 24.2495 29.7082 24.0982 29.8004 23.9138C29.889 23.733 29.9517 23.5282 29.9886 23.2995C30.0292 23.0745 30.0495 22.8476 30.0495 22.6189V21.6836C30.0495 21.3922 30.0919 21.1229 30.1768 20.8757C30.2653 20.6285 30.3999 20.4145 30.5807 20.2338C30.6766 20.1379 30.7837 20.0512 30.9017 19.9737C31.0234 19.8962 31.1562 19.828 31.3001 19.7689C31.1526 19.7099 31.0161 19.6398 30.8906 19.5586C30.7688 19.4775 30.6619 19.3871 30.5697 19.2874C30.3926 19.103 30.2616 18.889 30.1768 18.6455C30.0919 18.3983 30.0495 18.1309 30.0495 17.8431V16.9023C30.0495 16.6773 30.0366 16.4504 30.0107 16.2217C29.9886 15.993 29.9388 15.7864 29.8613 15.6019C29.7802 15.4211 29.6621 15.2718 29.5072 15.1537C29.3522 15.0356 29.1419 14.9729 28.8763 14.9655L28.987 14.3291C29.3448 14.3402 29.651 14.4158 29.9056 14.5561C30.1639 14.6962 30.3759 14.8788 30.542 15.1039C30.7301 15.3585 30.8648 15.6443 30.9459 15.9616C31.0308 16.2789 31.0732 16.5925 31.0732 16.9023V17.8431C31.0732 18.0645 31.0935 18.26 31.1341 18.4297C31.1783 18.5957 31.2429 18.7396 31.3278 18.8614C31.4496 19.0348 31.6174 19.1621 31.8313 19.2432C32.049 19.3207 32.3091 19.3594 32.6116 19.3594V20.1618C32.346 20.1655 32.1136 20.1987 31.9144 20.2614C31.7189 20.3205 31.5584 20.4145 31.4329 20.5437C31.3112 20.6691 31.2208 20.8259 31.1618 21.014C31.1028 21.2022 31.0732 21.4254 31.0732 21.6836V22.6189C31.0732 22.914 31.0326 23.211 30.9515 23.5098C30.8704 23.8123 30.7449 24.0872 30.5752 24.3343C30.4018 24.5815 30.1841 24.7845 29.9222 24.9431C29.6602 25.1017 29.3485 25.1847 28.987 25.1921L28.8707 24.5557Z" fill="#F8F5EC"/>
<path d="M24.3736 30.25H29.698L37 19.8577L29.698 9H24.3736L14.4855 30.25H9.61746L3 19.8577L9.61746 9H14.4855" stroke="#89BCD9" stroke-width="4" stroke-linecap="round"/>
</svg>
