<svg width="57" height="38" viewBox="0 0 57 38" fill="none" xmlns="http://www.w3.org/2000/svg">
<path d="M14.0078 26.8594C13.5026 26.8438 13.0651 26.7266 12.6953 26.5078C12.3255 26.2891 12.0182 26 11.7734 25.6406C11.5391 25.2969 11.362 24.9115 11.2422 24.4844C11.1224 24.0625 11.0625 23.6432 11.0625 23.2266V21.9062C11.0625 21.1562 10.8828 20.612 10.5234 20.2734C10.1693 19.9349 9.625 19.763 8.89062 19.7578V18.625C9.625 18.625 10.1693 18.4583 10.5234 18.125C10.8828 17.7865 11.0625 17.2396 11.0625 16.4844V15.1562C11.0625 14.7344 11.1172 14.3047 11.2266 13.8672C11.3411 13.4245 11.5208 13.0286 11.7656 12.6797C11.9948 12.3464 12.2943 12.0755 12.6641 11.8672C13.0339 11.6536 13.4818 11.5391 14.0078 11.5234L14.1719 12.4219C13.7969 12.4323 13.4974 12.5208 13.2734 12.6875C13.0547 12.8542 12.8906 13.0651 12.7812 13.3203C12.6667 13.5807 12.5938 13.8724 12.5625 14.1953C12.5312 14.5182 12.5156 14.8385 12.5156 15.1562V16.4844C12.5156 17.1094 12.3698 17.6589 12.0781 18.1328C11.7917 18.6016 11.3464 18.9583 10.7422 19.2031C11.3464 19.4427 11.7917 19.7995 12.0781 20.2734C12.3646 20.7422 12.5104 21.2865 12.5156 21.9062V23.2266C12.5156 23.5495 12.5417 23.8698 12.5938 24.1875C12.6458 24.5104 12.737 24.7995 12.8672 25.0547C12.9922 25.3151 13.1589 25.5286 13.3672 25.6953C13.5807 25.862 13.849 25.9505 14.1719 25.9609L14.0078 26.8594Z" fill="#F8F5EC"/>
<path d="M42.8906 25.9609C43.2083 25.9505 43.474 25.862 43.6875 25.6953C43.901 25.5286 44.0729 25.3151 44.2031 25.0547C44.3281 24.7995 44.4167 24.5104 44.4688 24.1875C44.526 23.8698 44.5547 23.5495 44.5547 23.2266V21.9062C44.5547 21.4948 44.6146 21.1146 44.7344 20.7656C44.8594 20.4167 45.0495 20.1146 45.3047 19.8594C45.4401 19.724 45.5911 19.6016 45.7578 19.4922C45.9297 19.3828 46.1172 19.2865 46.3203 19.2031C46.112 19.1198 45.9193 19.0208 45.7422 18.9062C45.5703 18.7917 45.4193 18.6641 45.2891 18.5234C45.0391 18.263 44.8542 17.9609 44.7344 17.6172C44.6146 17.2682 44.5547 16.8906 44.5547 16.4844V15.1562C44.5547 14.8385 44.5365 14.5182 44.5 14.1953C44.4688 13.8724 44.3984 13.5807 44.2891 13.3203C44.1745 13.0651 44.0078 12.8542 43.7891 12.6875C43.5703 12.5208 43.2734 12.4323 42.8984 12.4219L43.0547 11.5234C43.5599 11.5391 43.9922 11.6458 44.3516 11.8438C44.7161 12.0417 45.0156 12.2995 45.25 12.6172C45.5156 12.9766 45.7057 13.3802 45.8203 13.8281C45.9401 14.276 46 14.7188 46 15.1562V16.4844C46 16.7969 46.0286 17.0729 46.0859 17.3125C46.1484 17.5469 46.2396 17.75 46.3594 17.9219C46.5312 18.1667 46.7682 18.3464 47.0703 18.4609C47.3776 18.5703 47.7448 18.625 48.1719 18.625V19.7578C47.7969 19.763 47.4688 19.8099 47.1875 19.8984C46.9115 19.9818 46.6849 20.1146 46.5078 20.2969C46.3359 20.474 46.2083 20.6953 46.125 20.9609C46.0417 21.2266 46 21.5417 46 21.9062V23.2266C46 23.6432 45.9427 24.0625 45.8281 24.4844C45.7135 24.9115 45.5365 25.2995 45.2969 25.6484C45.0521 25.9974 44.7448 26.2839 44.375 26.5078C44.0052 26.7318 43.5651 26.849 43.0547 26.8594L42.8906 25.9609Z" fill="#F8F5EC"/>
<path d="M35.0562 35H43.1994L54.3672 19.3504L43.1994 3H35.0562L19.9332 35H12.488L2.36719 19.3504L12.488 3H19.9332" stroke="#89BCD9" stroke-width="4" stroke-linecap="round"/>
</svg>
