<svg width="63" height="38" viewBox="0 0 63 38" fill="none" xmlns="http://www.w3.org/2000/svg">
<path d="M18.0859 26.8594C17.5807 26.8438 17.1432 26.7266 16.7734 26.5078C16.4036 26.2891 16.0964 26 15.8516 25.6406C15.6172 25.2969 15.4401 24.9115 15.3203 24.4844C15.2005 24.0625 15.1406 23.6432 15.1406 23.2266V21.9062C15.1406 21.1562 14.9609 20.612 14.6016 20.2734C14.2474 19.9349 13.7031 19.763 12.9688 19.7578V18.625C13.7031 18.625 14.2474 18.4583 14.6016 18.125C14.9609 17.7865 15.1406 17.2396 15.1406 16.4844V15.1562C15.1406 14.7344 15.1953 14.3047 15.3047 13.8672C15.4193 13.4245 15.599 13.0286 15.8438 12.6797C16.0729 12.3464 16.3724 12.0755 16.7422 11.8672C17.112 11.6536 17.5599 11.5391 18.0859 11.5234L18.25 12.4219C17.875 12.4323 17.5755 12.5208 17.3516 12.6875C17.1328 12.8542 16.9688 13.0651 16.8594 13.3203C16.7448 13.5807 16.6719 13.8724 16.6406 14.1953C16.6094 14.5182 16.5938 14.8385 16.5938 15.1562V16.4844C16.5938 17.1094 16.4479 17.6589 16.1562 18.1328C15.8698 18.6016 15.4245 18.9583 14.8203 19.2031C15.4245 19.4427 15.8698 19.7995 16.1562 20.2734C16.4427 20.7422 16.5885 21.2865 16.5938 21.9062V23.2266C16.5938 23.5495 16.6198 23.8698 16.6719 24.1875C16.724 24.5104 16.8151 24.7995 16.9453 25.0547C17.0703 25.3151 17.237 25.5286 17.4453 25.6953C17.6589 25.862 17.9271 25.9505 18.25 25.9609L18.0859 26.8594Z" fill="#F8F5EC"/>
<path d="M46.9688 25.9609C47.2865 25.9505 47.5521 25.862 47.7656 25.6953C47.9792 25.5286 48.151 25.3151 48.2812 25.0547C48.4062 24.7995 48.4948 24.5104 48.5469 24.1875C48.6042 23.8698 48.6328 23.5495 48.6328 23.2266V21.9062C48.6328 21.4948 48.6927 21.1146 48.8125 20.7656C48.9375 20.4167 49.1276 20.1146 49.3828 19.8594C49.5182 19.724 49.6693 19.6016 49.8359 19.4922C50.0078 19.3828 50.1953 19.2865 50.3984 19.2031C50.1901 19.1198 49.9974 19.0208 49.8203 18.9062C49.6484 18.7917 49.4974 18.6641 49.3672 18.5234C49.1172 18.263 48.9323 17.9609 48.8125 17.6172C48.6927 17.2682 48.6328 16.8906 48.6328 16.4844V15.1562C48.6328 14.8385 48.6146 14.5182 48.5781 14.1953C48.5469 13.8724 48.4766 13.5807 48.3672 13.3203C48.2526 13.0651 48.0859 12.8542 47.8672 12.6875C47.6484 12.5208 47.3516 12.4323 46.9766 12.4219L47.1328 11.5234C47.638 11.5391 48.0703 11.6458 48.4297 11.8438C48.7943 12.0417 49.0938 12.2995 49.3281 12.6172C49.5938 12.9766 49.7839 13.3802 49.8984 13.8281C50.0182 14.276 50.0781 14.7188 50.0781 15.1562V16.4844C50.0781 16.7969 50.1068 17.0729 50.1641 17.3125C50.2266 17.5469 50.3177 17.75 50.4375 17.9219C50.6094 18.1667 50.8464 18.3464 51.1484 18.4609C51.4557 18.5703 51.8229 18.625 52.25 18.625V19.7578C51.875 19.763 51.5469 19.8099 51.2656 19.8984C50.9896 19.9818 50.763 20.1146 50.5859 20.2969C50.4141 20.474 50.2865 20.6953 50.2031 20.9609C50.1198 21.2266 50.0781 21.5417 50.0781 21.9062V23.2266C50.0781 23.6432 50.0208 24.0625 49.9062 24.4844C49.7917 24.9115 49.6146 25.2995 49.375 25.6484C49.1302 25.9974 48.8229 26.2839 48.4531 26.5078C48.0833 26.7318 47.6432 26.849 47.1328 26.8594L46.9688 25.9609Z" fill="#F8F5EC"/>
<path d="M38.9062 35H47.9889L60.4453 19.3504L47.9889 3H38.9062L22.0382 35H13.7339L2.44531 19.3504L13.7339 3H22.0382" stroke="#89BCD9" stroke-width="4" stroke-linecap="round"/>
</svg>
