<svg width="66" height="73" viewBox="0 0 66 73" fill="none" xmlns="http://www.w3.org/2000/svg">
<g clip-path="url(#clip0_106_9)">
<path d="M18.6406 26.8594C18.1354 26.8438 17.6979 26.7266 17.3281 26.5078C16.9583 26.2891 16.651 26 16.4062 25.6406C16.1719 25.2969 15.9948 24.9115 15.875 24.4844C15.7552 24.0625 15.6953 23.6432 15.6953 23.2266V21.9062C15.6953 21.1562 15.5156 20.612 15.1562 20.2734C14.8021 19.9349 14.2578 19.763 13.5234 19.7578V18.625C14.2578 18.625 14.8021 18.4583 15.1562 18.125C15.5156 17.7865 15.6953 17.2396 15.6953 16.4844V15.1562C15.6953 14.7344 15.75 14.3047 15.8594 13.8672C15.974 13.4245 16.1536 13.0286 16.3984 12.6797C16.6276 12.3464 16.9271 12.0755 17.2969 11.8672C17.6667 11.6536 18.1146 11.5391 18.6406 11.5234L18.8047 12.4219C18.4297 12.4323 18.1302 12.5208 17.9062 12.6875C17.6875 12.8542 17.5234 13.0651 17.4141 13.3203C17.2995 13.5807 17.2266 13.8724 17.1953 14.1953C17.1641 14.5182 17.1484 14.8385 17.1484 15.1562V16.4844C17.1484 17.1094 17.0026 17.6589 16.7109 18.1328C16.4245 18.6016 15.9792 18.9583 15.375 19.2031C15.9792 19.4427 16.4245 19.7995 16.7109 20.2734C16.9974 20.7422 17.1432 21.2865 17.1484 21.9062V23.2266C17.1484 23.5495 17.1745 23.8698 17.2266 24.1875C17.2786 24.5104 17.3698 24.7995 17.5 25.0547C17.625 25.3151 17.7917 25.5286 18 25.6953C18.2135 25.862 18.4818 25.9505 18.8047 25.9609L18.6406 26.8594Z" fill="#F8F5EC"/>
<path d="M47.5234 25.9609C47.8411 25.9505 48.1068 25.862 48.3203 25.6953C48.5339 25.5286 48.7057 25.3151 48.8359 25.0547C48.9609 24.7995 49.0495 24.5104 49.1016 24.1875C49.1589 23.8698 49.1875 23.5495 49.1875 23.2266V21.9062C49.1875 21.4948 49.2474 21.1146 49.3672 20.7656C49.4922 20.4167 49.6823 20.1146 49.9375 19.8594C50.0729 19.724 50.224 19.6016 50.3906 19.4922C50.5625 19.3828 50.75 19.2865 50.9531 19.2031C50.7448 19.1198 50.5521 19.0208 50.375 18.9062C50.2031 18.7917 50.0521 18.6641 49.9219 18.5234C49.6719 18.263 49.487 17.9609 49.3672 17.6172C49.2474 17.2682 49.1875 16.8906 49.1875 16.4844V15.1562C49.1875 14.8385 49.1693 14.5182 49.1328 14.1953C49.1016 13.8724 49.0312 13.5807 48.9219 13.3203C48.8073 13.0651 48.6406 12.8542 48.4219 12.6875C48.2031 12.5208 47.9062 12.4323 47.5312 12.4219L47.6875 11.5234C48.1927 11.5391 48.625 11.6458 48.9844 11.8438C49.349 12.0417 49.6484 12.2995 49.8828 12.6172C50.1484 12.9766 50.3385 13.3802 50.4531 13.8281C50.5729 14.276 50.6328 14.7188 50.6328 15.1562V16.4844C50.6328 16.7969 50.6615 17.0729 50.7188 17.3125C50.7812 17.5469 50.8724 17.75 50.9922 17.9219C51.1641 18.1667 51.401 18.3464 51.7031 18.4609C52.0104 18.5703 52.3776 18.625 52.8047 18.625V19.7578C52.4297 19.763 52.1016 19.8099 51.8203 19.8984C51.5443 19.9818 51.3177 20.1146 51.1406 20.2969C50.9688 20.474 50.8411 20.6953 50.7578 20.9609C50.6745 21.2266 50.6328 21.5417 50.6328 21.9062V23.2266C50.6328 23.6432 50.5755 24.0625 50.4609 24.4844C50.3464 24.9115 50.1693 25.2995 49.9297 25.6484C49.6849 25.9974 49.3776 26.2839 49.0078 26.5078C48.638 26.7318 48.1979 26.849 47.6875 26.8594L47.5234 25.9609Z" fill="#F8F5EC"/>
<path d="M39.4609 35H48.5436L61 19.3504L48.5436 3H39.4609L22.5928 35H14.2886L3 19.3504L14.2886 3H22.5928" stroke="#89BCD9" stroke-width="4" stroke-linecap="round"/>
<path d="M3.98401 68.128C3.39734 68.128 2.86401 67.9893 2.38401 67.712C1.90401 67.424 1.52001 67.0293 1.23201 66.528C0.954677 66.0267 0.81601 65.4613 0.81601 64.832C0.81601 64.16 0.96001 63.5787 1.24801 63.088C1.53601 62.5973 1.92534 62.2187 2.41601 61.952C2.91734 61.6853 3.46668 61.552 4.06401 61.552C4.66134 61.552 5.22668 61.7067 5.76001 62.016C6.30401 62.3253 6.69868 62.7307 6.94401 63.232L6.81601 63.584V55.84H7.56801V68H6.80001V66.08L6.96001 66.432C6.69334 66.9333 6.29334 67.344 5.76001 67.664C5.22668 67.9733 4.63468 68.128 3.98401 68.128ZM4.17601 67.472C4.65601 67.472 5.08801 67.3707 5.47201 67.168C5.85601 66.9547 6.16534 66.672 6.40001 66.32C6.63468 65.9573 6.76801 65.552 6.80001 65.104V64.304C6.72534 63.8987 6.56001 63.536 6.30401 63.216C6.04801 62.896 5.73868 62.6453 5.37601 62.464C5.01334 62.272 4.61334 62.176 4.17601 62.176C3.69601 62.176 3.25868 62.288 2.86401 62.512C2.46934 62.736 2.15468 63.0453 1.92001 63.44C1.68534 63.8347 1.56801 64.2933 1.56801 64.816C1.56801 65.3067 1.68534 65.7547 1.92001 66.16C2.15468 66.5547 2.46934 66.8747 2.86401 67.12C3.26934 67.3547 3.70668 67.472 4.17601 67.472ZM13.1284 68.128C12.4777 68.128 11.9017 67.984 11.4004 67.696C10.899 67.408 10.5044 67.0187 10.2164 66.528C9.93905 66.0267 9.80039 65.4667 9.80039 64.848C9.80039 64.24 9.94972 63.6853 10.2484 63.184C10.547 62.6827 10.947 62.2827 11.4484 61.984C11.9604 61.6853 12.5257 61.536 13.1444 61.536C13.891 61.536 14.515 61.7547 15.0164 62.192C15.5284 62.6293 15.8964 63.2 16.1204 63.904L10.6484 66.016L10.4244 65.472L15.4324 63.52L15.2724 63.744C15.091 63.3173 14.8137 62.9493 14.4404 62.64C14.0777 62.3307 13.6297 62.176 13.0964 62.176C12.6164 62.176 12.1844 62.2933 11.8004 62.528C11.4164 62.7627 11.107 63.0773 10.8724 63.472C10.6484 63.8667 10.5364 64.3147 10.5364 64.816C10.5364 65.2853 10.643 65.7227 10.8564 66.128C11.0804 66.5333 11.3897 66.8587 11.7844 67.104C12.179 67.3493 12.6324 67.472 13.1444 67.472C13.4857 67.472 13.811 67.408 14.1204 67.28C14.4404 67.152 14.723 66.9867 14.9684 66.784L15.3524 67.328C15.0537 67.5627 14.707 67.7547 14.3124 67.904C13.9284 68.0533 13.5337 68.128 13.1284 68.128ZM20.2566 68.24L17.0886 61.744H17.9686L20.5766 67.424L20.1126 67.408L22.6246 61.744H23.4566L20.3526 68.24H20.2566ZM27.9721 68.128C27.3215 68.128 26.7455 67.984 26.2441 67.696C25.7428 67.408 25.3481 67.0187 25.0601 66.528C24.7828 66.0267 24.6441 65.4667 24.6441 64.848C24.6441 64.24 24.7935 63.6853 25.0921 63.184C25.3908 62.6827 25.7908 62.2827 26.2921 61.984C26.8041 61.6853 27.3695 61.536 27.9881 61.536C28.7348 61.536 29.3588 61.7547 29.8601 62.192C30.3721 62.6293 30.7401 63.2 30.9641 63.904L25.4921 66.016L25.2681 65.472L30.2761 63.52L30.1161 63.744C29.9348 63.3173 29.6575 62.9493 29.2841 62.64C28.9215 62.3307 28.4735 62.176 27.9401 62.176C27.4601 62.176 27.0281 62.2933 26.6441 62.528C26.2601 62.7627 25.9508 63.0773 25.7161 63.472C25.4921 63.8667 25.3801 64.3147 25.3801 64.816C25.3801 65.2853 25.4868 65.7227 25.7001 66.128C25.9241 66.5333 26.2335 66.8587 26.6281 67.104C27.0228 67.3493 27.4761 67.472 27.9881 67.472C28.3295 67.472 28.6548 67.408 28.9641 67.28C29.2841 67.152 29.5668 66.9867 29.8121 66.784L30.1961 67.328C29.8975 67.5627 29.5508 67.7547 29.1561 67.904C28.7721 68.0533 28.3775 68.128 27.9721 68.128ZM33.049 55.84H33.801V68H33.049V55.84ZM36.0348 64.832C36.0348 64.224 36.1788 63.6693 36.4668 63.168C36.7654 62.6667 37.1654 62.272 37.6668 61.984C38.1788 61.6853 38.7494 61.536 39.3788 61.536C40.0188 61.536 40.5894 61.6853 41.0908 61.984C41.5921 62.272 41.9868 62.6667 42.2748 63.168C42.5628 63.6693 42.7068 64.224 42.7068 64.832C42.7068 65.44 42.5628 65.9947 42.2748 66.496C41.9868 66.9973 41.5868 67.3973 41.0748 67.696C40.5734 67.984 40.0081 68.128 39.3788 68.128C38.7388 68.128 38.1681 67.9893 37.6668 67.712C37.1654 67.424 36.7654 67.0347 36.4668 66.544C36.1788 66.0427 36.0348 65.472 36.0348 64.832ZM36.7868 64.848C36.7868 65.3387 36.8988 65.7867 37.1228 66.192C37.3574 66.5867 37.6668 66.9013 38.0508 67.136C38.4454 67.3707 38.8828 67.488 39.3628 67.488C39.8428 67.488 40.2748 67.3707 40.6588 67.136C41.0534 66.9013 41.3628 66.5867 41.5868 66.192C41.8214 65.7867 41.9388 65.3387 41.9388 64.848C41.9388 64.3573 41.8214 63.9147 41.5868 63.52C41.3628 63.1147 41.0534 62.7947 40.6588 62.56C40.2748 62.3147 39.8428 62.192 39.3628 62.192C38.8721 62.192 38.4294 62.32 38.0348 62.576C37.6508 62.8213 37.3468 63.1467 37.1228 63.552C36.8988 63.9573 36.7868 64.3893 36.7868 64.848ZM48.3956 68.128C47.7983 68.128 47.2383 67.9733 46.7156 67.664C46.193 67.344 45.809 66.9333 45.5636 66.432L45.6916 66.16V71.008H44.9396V61.696H45.6116L45.6916 63.744L45.5476 63.28C45.825 62.7787 46.2303 62.368 46.7636 62.048C47.297 61.7173 47.8783 61.552 48.5076 61.552C49.105 61.552 49.6436 61.696 50.1236 61.984C50.6036 62.272 50.9823 62.6667 51.2596 63.168C51.5476 63.6587 51.6916 64.224 51.6916 64.864C51.6916 65.4933 51.5423 66.0587 51.2436 66.56C50.9556 67.0507 50.561 67.4347 50.0596 67.712C49.569 67.9893 49.0143 68.128 48.3956 68.128ZM48.2676 67.504C48.7583 67.504 49.201 67.3867 49.5956 67.152C50.001 66.9173 50.321 66.6027 50.5556 66.208C50.801 65.8027 50.9236 65.3547 50.9236 64.864C50.9236 64.3627 50.8063 63.9147 50.5716 63.52C50.337 63.1147 50.0223 62.7947 49.6276 62.56C49.2436 62.3253 48.8063 62.208 48.3156 62.208C47.8463 62.208 47.4196 62.3147 47.0356 62.528C46.6516 62.7413 46.3423 63.0293 46.1076 63.392C45.873 63.7547 45.7343 64.1653 45.6916 64.624V65.136C45.7236 65.5733 45.857 65.9733 46.0916 66.336C46.337 66.6987 46.6463 66.9867 47.0196 67.2C47.4036 67.4027 47.8196 67.504 48.2676 67.504ZM56.644 68.128C55.9933 68.128 55.4173 67.984 54.916 67.696C54.4147 67.408 54.02 67.0187 53.732 66.528C53.4547 66.0267 53.316 65.4667 53.316 64.848C53.316 64.24 53.4653 63.6853 53.764 63.184C54.0627 62.6827 54.4627 62.2827 54.964 61.984C55.476 61.6853 56.0413 61.536 56.66 61.536C57.4067 61.536 58.0307 61.7547 58.532 62.192C59.044 62.6293 59.412 63.2 59.636 63.904L54.164 66.016L53.94 65.472L58.948 63.52L58.788 63.744C58.6067 63.3173 58.3293 62.9493 57.956 62.64C57.5933 62.3307 57.1453 62.176 56.612 62.176C56.132 62.176 55.7 62.2933 55.316 62.528C54.932 62.7627 54.6227 63.0773 54.388 63.472C54.164 63.8667 54.052 64.3147 54.052 64.816C54.052 65.2853 54.1587 65.7227 54.372 66.128C54.596 66.5333 54.9053 66.8587 55.3 67.104C55.6947 67.3493 56.148 67.472 56.66 67.472C57.0013 67.472 57.3267 67.408 57.636 67.28C57.956 67.152 58.2387 66.9867 58.484 66.784L58.868 67.328C58.5693 67.5627 58.2227 67.7547 57.828 67.904C57.444 68.0533 57.0493 68.128 56.644 68.128ZM62.3769 61.744L62.4569 63.664L62.3609 63.424C62.4995 63.04 62.7182 62.7093 63.0169 62.432C63.3155 62.1547 63.6462 61.9413 64.0089 61.792C64.3822 61.6427 64.7395 61.568 65.0809 61.568L65.0489 62.304C64.5689 62.304 64.1315 62.4107 63.7369 62.624C63.3529 62.8373 63.0435 63.1253 62.8089 63.488C62.5849 63.84 62.4729 64.24 62.4729 64.688V68H61.7209V61.744H62.3769Z" fill="#89BCD9"/>
<path d="M1.87891 44.1045C1.87891 43.6406 1.99365 43.2183 2.22314 42.8374C2.45752 42.4565 2.77002 42.1538 3.16064 41.9292C3.55615 41.6997 3.99072 41.585 4.46436 41.585H9.85498V43.123H4.46436C4.18115 43.123 3.93701 43.2231 3.73193 43.4233C3.52686 43.6235 3.42432 43.8652 3.42432 44.1484V44.8662C3.42432 45.125 3.52686 45.3472 3.73193 45.5327C3.93701 45.7183 4.18115 45.811 4.46436 45.811H7.78223C8.26074 45.811 8.69531 45.9258 9.08594 46.1553C9.47656 46.3799 9.78662 46.6851 10.0161 47.0708C10.2505 47.4517 10.3677 47.874 10.3677 48.3379V49.4731C10.3677 49.937 10.2505 50.3618 10.0161 50.7476C9.78662 51.1284 9.47656 51.4336 9.08594 51.6631C8.69531 51.8877 8.26074 52 7.78223 52H1.88623V50.4546H7.78223C8.07031 50.4546 8.31445 50.3594 8.51465 50.1689C8.71973 49.9736 8.82227 49.7393 8.82227 49.4658V48.3452C8.82227 48.0718 8.71973 47.8374 8.51465 47.6421C8.31445 47.4468 8.07031 47.3491 7.78223 47.3491H4.46436C3.99072 47.3491 3.55615 47.2393 3.16064 47.0195C2.77002 46.7949 2.45752 46.4946 2.22314 46.1187C1.99365 45.7427 1.87891 45.3276 1.87891 44.8735V44.1045ZM12.0962 51.1211C12.0962 50.8574 12.189 50.6328 12.3745 50.4473C12.5601 50.2617 12.7847 50.1689 13.0483 50.1689C13.3169 50.1689 13.5415 50.2617 13.7222 50.4473C13.9077 50.6279 14.0005 50.8525 14.0005 51.1211C14.0005 51.3896 13.9077 51.6167 13.7222 51.8022C13.5415 51.9829 13.3169 52.0732 13.0483 52.0732C12.7847 52.0732 12.5601 51.9805 12.3745 51.7949C12.189 51.6094 12.0962 51.3848 12.0962 51.1211ZM15.7217 44.1045C15.7217 43.6406 15.8364 43.2183 16.0659 42.8374C16.3003 42.4565 16.6128 42.1538 17.0034 41.9292C17.3989 41.6997 17.8335 41.585 18.3071 41.585H23.6978V43.123H18.3071C18.0239 43.123 17.7798 43.2231 17.5747 43.4233C17.3696 43.6235 17.2671 43.8652 17.2671 44.1484V44.8662C17.2671 45.125 17.3696 45.3472 17.5747 45.5327C17.7798 45.7183 18.0239 45.811 18.3071 45.811H21.625C22.1035 45.811 22.5381 45.9258 22.9287 46.1553C23.3193 46.3799 23.6294 46.6851 23.8589 47.0708C24.0933 47.4517 24.2104 47.874 24.2104 48.3379V49.4731C24.2104 49.937 24.0933 50.3618 23.8589 50.7476C23.6294 51.1284 23.3193 51.4336 22.9287 51.6631C22.5381 51.8877 22.1035 52 21.625 52H15.729V50.4546H21.625C21.9131 50.4546 22.1572 50.3594 22.3574 50.1689C22.5625 49.9736 22.665 49.7393 22.665 49.4658V48.3452C22.665 48.0718 22.5625 47.8374 22.3574 47.6421C22.1572 47.4468 21.9131 47.3491 21.625 47.3491H18.3071C17.8335 47.3491 17.3989 47.2393 17.0034 47.0195C16.6128 46.7949 16.3003 46.4946 16.0659 46.1187C15.8364 45.7427 15.7217 45.3276 15.7217 44.8735V44.1045ZM25.9023 47.1367C25.9023 46.6338 26.0244 46.1772 26.2686 45.7671C26.5176 45.3569 26.8496 45.0298 27.2646 44.7856C27.6797 44.5366 28.1387 44.4121 28.6416 44.4121H32.875V52H31.3296V45.9575H28.6416C28.3145 45.9575 28.0337 46.0747 27.7993 46.3091C27.5649 46.5386 27.4478 46.8193 27.4478 47.1514V49.2461C27.4478 49.5781 27.5649 49.8638 27.7993 50.103C28.0337 50.3374 28.3145 50.4546 28.6416 50.4546H30.4507V52H28.6416C28.1387 52 27.6797 51.8779 27.2646 51.6338C26.8496 51.3848 26.5176 51.0527 26.2686 50.6377C26.0244 50.2227 25.9023 49.7637 25.9023 49.2607V47.1367ZM34.6328 45.9502C34.6328 45.5254 34.7842 45.1641 35.0869 44.8662C35.3945 44.5635 35.7632 44.4121 36.1929 44.4121H38.8662C39.3691 44.4121 39.8281 44.5366 40.2432 44.7856C40.6582 45.0298 40.9878 45.3594 41.2319 45.7744C41.481 46.1895 41.6055 46.6484 41.6055 47.1514V52H40.0601V47.1733C40.0601 46.8315 39.9429 46.541 39.7085 46.3018C39.479 46.0625 39.1982 45.9429 38.8662 45.9429H36.1782V52H34.6328V45.9502ZM43.29 47.1514C43.29 46.6484 43.4121 46.1895 43.6562 45.7744C43.9053 45.3594 44.2373 45.0298 44.6523 44.7856C45.0674 44.5366 45.5264 44.4121 46.0293 44.4121H47.8384V45.9575H46.0293C45.7021 45.9575 45.4214 46.0771 45.187 46.3164C44.9526 46.5508 44.8354 46.834 44.8354 47.166V49.2607C44.8354 49.5879 44.9526 49.8687 45.187 50.103C45.4214 50.3374 45.7021 50.4546 46.0293 50.4546H48.7173V41.585H50.2627V50.4546C50.2627 50.8794 50.1113 51.2432 49.8086 51.5459C49.5059 51.8486 49.1421 52 48.7173 52H46.0293C45.5264 52 45.0674 51.8779 44.6523 51.6338C44.2373 51.3848 43.9053 51.0552 43.6562 50.645C43.4121 50.23 43.29 49.7734 43.29 49.2754V47.1514ZM52.0205 45.9795C52.0205 45.5449 52.1792 45.1763 52.4966 44.8735C52.814 44.5659 53.1948 44.4121 53.6392 44.4121H56.8032C57.2085 44.4121 57.5747 44.5122 57.9019 44.7124C58.2339 44.9077 58.4976 45.1738 58.6929 45.5107C58.8931 45.8428 58.9932 46.2114 58.9932 46.6167V46.8291C58.9932 47.2295 58.8931 47.5957 58.6929 47.9277C58.4976 48.2549 58.2339 48.5186 57.9019 48.7188C57.5747 48.9141 57.2085 49.0117 56.8032 49.0117H54.4448V47.4736H56.8179C56.9937 47.4736 57.1426 47.4102 57.2646 47.2832C57.3916 47.1562 57.4551 47.0024 57.4551 46.8218V46.6167C57.4551 46.4312 57.3916 46.2749 57.2646 46.1479C57.1426 46.021 56.9937 45.9575 56.8179 45.9575H53.5659V49.854C53.5659 50.02 53.6221 50.1616 53.7344 50.2788C53.8467 50.396 53.9834 50.4546 54.1445 50.4546H58.4585V52H54.1445C53.7539 52 53.3975 51.9048 53.0752 51.7144C52.7529 51.519 52.4966 51.2603 52.3062 50.938C52.1157 50.6108 52.0205 50.252 52.0205 49.8613V45.9795ZM60.6777 46.5361C60.6777 46.1455 60.7754 45.7891 60.9707 45.4668C61.1709 45.1445 61.4346 44.8882 61.7617 44.6978C62.0938 44.5073 62.46 44.4121 62.8604 44.4121H64.5522V45.9502H62.8604C62.6846 45.9502 62.5332 46.0112 62.4062 46.1333C62.2842 46.2505 62.2231 46.3945 62.2231 46.5654V52H60.6777V46.5361Z" fill="white"/>
</g>
<defs>
<clipPath id="clip0_106_9">
<rect width="66" height="73" fill="white"/>
</clipPath>
</defs>
</svg>
