<svg width="60" height="72" viewBox="0 0 60 72" fill="none" xmlns="http://www.w3.org/2000/svg">
<path d="M0.820312 44.0137C0.820312 43.5078 0.945638 43.0498 1.19629 42.6396C1.44694 42.2249 1.7819 41.8945 2.20117 41.6484C2.62044 41.4023 3.08529 41.2793 3.5957 41.2793H8.68848V42.7148H3.5957C3.22656 42.7148 2.91211 42.8424 2.65234 43.0977C2.39258 43.3483 2.2627 43.6536 2.2627 44.0137V48.293C2.2627 48.6393 2.39258 48.9378 2.65234 49.1885C2.91211 49.4346 3.22656 49.5576 3.5957 49.5576H8.68848V51H3.5957C3.08529 51 2.62044 50.8792 2.20117 50.6377C1.7819 50.3962 1.44694 50.0726 1.19629 49.667C0.945638 49.2568 0.820312 48.8057 0.820312 48.3135V44.0137ZM10.2334 50.1797C10.2334 49.9336 10.32 49.724 10.4932 49.5508C10.6663 49.3776 10.876 49.291 11.1221 49.291C11.3727 49.291 11.5824 49.3776 11.751 49.5508C11.9242 49.7194 12.0107 49.929 12.0107 50.1797C12.0107 50.4303 11.9242 50.6423 11.751 50.8154C11.5824 50.984 11.3727 51.0684 11.1221 51.0684C10.876 51.0684 10.6663 50.9818 10.4932 50.8086C10.32 50.6354 10.2334 50.4258 10.2334 50.1797ZM13.7539 41.2793H20.2617V42.7148H15.1963V51H13.7539V41.2793ZM16.0166 45.2236H20.2617V46.6592H16.0166V45.2236ZM21.7656 46.4746C21.7656 46.0052 21.8796 45.5768 22.1074 45.1895C22.3398 44.8021 22.6497 44.4945 23.0371 44.2666C23.4245 44.0342 23.8529 43.918 24.3223 43.918H25.8672C26.3366 43.918 26.765 44.0342 27.1523 44.2666C27.5397 44.4945 27.8473 44.8021 28.0752 45.1895C28.3076 45.5768 28.4238 46.0052 28.4238 46.4746V48.4434C28.4238 48.9128 28.3076 49.3411 28.0752 49.7285C27.8473 50.1159 27.5397 50.4258 27.1523 50.6582C26.765 50.8861 26.3366 51 25.8672 51H24.3223C23.8529 51 23.4245 50.8861 23.0371 50.6582C22.6497 50.4258 22.3398 50.1159 22.1074 49.7285C21.8796 49.3411 21.7656 48.9128 21.7656 48.4434V46.4746ZM23.208 48.4297C23.208 48.7396 23.3174 49.0062 23.5361 49.2295C23.7549 49.4482 24.0169 49.5576 24.3223 49.5576H25.8672C26.1771 49.5576 26.4391 49.4482 26.6533 49.2295C26.8721 49.0062 26.9814 48.7396 26.9814 48.4297V46.4883C26.9814 46.1784 26.8721 45.9141 26.6533 45.6953C26.4391 45.472 26.1771 45.3604 25.8672 45.3604H24.3223C24.0169 45.3604 23.7549 45.472 23.5361 45.6953C23.3174 45.9141 23.208 46.1784 23.208 46.4883V48.4297ZM29.9961 41.2793H31.4385V43.918H33.667C34.1592 43.918 34.6058 44.0342 35.0068 44.2666C35.4124 44.4945 35.7337 44.8021 35.9707 45.1895C36.2122 45.5723 36.333 45.9984 36.333 46.4678V51H34.8906V46.4883C34.8906 46.1875 34.7676 45.9255 34.5215 45.7021C34.2799 45.4743 33.9951 45.3604 33.667 45.3604H31.4385V51H29.9961V41.2793ZM37.9805 45.9004C37.9805 45.5358 38.0716 45.2031 38.2539 44.9023C38.4408 44.6016 38.6868 44.3623 38.9922 44.1846C39.3021 44.0068 39.6439 43.918 40.0176 43.918H41.5967V45.3535H40.0176C39.8535 45.3535 39.7122 45.4105 39.5938 45.5244C39.4798 45.6338 39.4229 45.7682 39.4229 45.9277V51H37.9805V45.9004ZM42.9023 45.3809C42.9023 44.9753 43.0505 44.6312 43.3467 44.3486C43.6429 44.0615 43.9984 43.918 44.4131 43.918H47.3662C47.7445 43.918 48.0863 44.0114 48.3916 44.1982C48.7015 44.3805 48.9476 44.6289 49.1299 44.9434C49.3167 45.2533 49.4102 45.5973 49.4102 45.9756V46.1738C49.4102 46.5475 49.3167 46.8893 49.1299 47.1992C48.9476 47.5046 48.7015 47.7507 48.3916 47.9375C48.0863 48.1198 47.7445 48.2109 47.3662 48.2109H45.165V46.7754H47.3799C47.5439 46.7754 47.6829 46.7161 47.7969 46.5977C47.9154 46.4792 47.9746 46.3356 47.9746 46.167V45.9756C47.9746 45.8024 47.9154 45.6566 47.7969 45.5381C47.6829 45.4196 47.5439 45.3604 47.3799 45.3604H44.3447V48.9971C44.3447 49.152 44.3971 49.2842 44.502 49.3936C44.6068 49.5029 44.7344 49.5576 44.8848 49.5576H48.9111V51H44.8848C44.5202 51 44.1875 50.9111 43.8867 50.7334C43.5859 50.5511 43.3467 50.3096 43.1689 50.0088C42.9912 49.7035 42.9023 49.3685 42.9023 49.0039V45.3809ZM50.9824 45.9004C50.9824 45.5358 51.0736 45.2031 51.2559 44.9023C51.4427 44.6016 51.6888 44.3623 51.9941 44.1846C52.304 44.0068 52.6458 43.918 53.0195 43.918H54.5986V45.3535H53.0195C52.8555 45.3535 52.7142 45.4105 52.5957 45.5244C52.4818 45.6338 52.4248 45.7682 52.4248 45.9277V51H50.9824V45.9004Z" fill="#F8F5EC"/>
<path d="M3.486 67.112C2.97267 67.112 2.506 66.9907 2.086 66.748C1.666 66.496 1.33 66.1507 1.078 65.712C0.835333 65.2733 0.714 64.7787 0.714 64.228C0.714 63.64 0.84 63.1313 1.092 62.702C1.344 62.2727 1.68467 61.9413 2.114 61.708C2.55267 61.4747 3.03333 61.358 3.556 61.358C4.07867 61.358 4.57333 61.4933 5.04 61.764C5.516 62.0347 5.86133 62.3893 6.076 62.828L5.964 63.136V56.36H6.622V67H5.95V65.32L6.09 65.628C5.85667 66.0667 5.50667 66.426 5.04 66.706C4.57333 66.9767 4.05533 67.112 3.486 67.112ZM3.654 66.538C4.074 66.538 4.452 66.4493 4.788 66.272C5.124 66.0853 5.39467 65.838 5.6 65.53C5.80533 65.2127 5.922 64.858 5.95 64.466V63.766C5.88467 63.4113 5.74 63.094 5.516 62.814C5.292 62.534 5.02133 62.3147 4.704 62.156C4.38667 61.988 4.03667 61.904 3.654 61.904C3.234 61.904 2.85133 62.002 2.506 62.198C2.16067 62.394 1.88533 62.6647 1.68 63.01C1.47467 63.3553 1.372 63.7567 1.372 64.214C1.372 64.6433 1.47467 65.0353 1.68 65.39C1.88533 65.7353 2.16067 66.0153 2.506 66.23C2.86067 66.4353 3.24333 66.538 3.654 66.538ZM11.4873 67.112C10.918 67.112 10.414 66.986 9.97533 66.734C9.53666 66.482 9.19133 66.1413 8.93933 65.712C8.69666 65.2733 8.57533 64.7833 8.57533 64.242C8.57533 63.71 8.70599 63.2247 8.96733 62.786C9.22866 62.3473 9.57866 61.9973 10.0173 61.736C10.4653 61.4747 10.96 61.344 11.5013 61.344C12.1547 61.344 12.7007 61.5353 13.1393 61.918C13.5873 62.3007 13.9093 62.8 14.1053 63.416L9.31733 65.264L9.12133 64.788L13.5033 63.08L13.3633 63.276C13.2047 62.9027 12.962 62.5807 12.6353 62.31C12.318 62.0393 11.926 61.904 11.4593 61.904C11.0393 61.904 10.6613 62.0067 10.3253 62.212C9.98933 62.4173 9.71866 62.6927 9.51333 63.038C9.31733 63.3833 9.21933 63.7753 9.21933 64.214C9.21933 64.6247 9.31266 65.0073 9.49933 65.362C9.69533 65.7167 9.96599 66.0013 10.3113 66.216C10.6567 66.4307 11.0533 66.538 11.5013 66.538C11.8 66.538 12.0847 66.482 12.3553 66.37C12.6353 66.258 12.8827 66.1133 13.0973 65.936L13.4333 66.412C13.172 66.6173 12.8687 66.7853 12.5233 66.916C12.1873 67.0467 11.842 67.112 11.4873 67.112ZM17.7245 67.21L14.9525 61.526H15.7225L18.0045 66.496L17.5985 66.482L19.7965 61.526H20.5245L17.8085 67.21H17.7245ZM24.4756 67.112C23.9063 67.112 23.4023 66.986 22.9636 66.734C22.5249 66.482 22.1796 66.1413 21.9276 65.712C21.6849 65.2733 21.5636 64.7833 21.5636 64.242C21.5636 63.71 21.6943 63.2247 21.9556 62.786C22.2169 62.3473 22.5669 61.9973 23.0056 61.736C23.4536 61.4747 23.9483 61.344 24.4896 61.344C25.1429 61.344 25.6889 61.5353 26.1276 61.918C26.5756 62.3007 26.8976 62.8 27.0936 63.416L22.3056 65.264L22.1096 64.788L26.4916 63.08L26.3516 63.276C26.1929 62.9027 25.9503 62.5807 25.6236 62.31C25.3063 62.0393 24.9143 61.904 24.4476 61.904C24.0276 61.904 23.6496 62.0067 23.3136 62.212C22.9776 62.4173 22.7069 62.6927 22.5016 63.038C22.3056 63.3833 22.2076 63.7753 22.2076 64.214C22.2076 64.6247 22.3009 65.0073 22.4876 65.362C22.6836 65.7167 22.9543 66.0013 23.2996 66.216C23.6449 66.4307 24.0416 66.538 24.4896 66.538C24.7883 66.538 25.0729 66.482 25.3436 66.37C25.6236 66.258 25.8709 66.1133 26.0856 65.936L26.4216 66.412C26.1603 66.6173 25.8569 66.7853 25.5116 66.916C25.1756 67.0467 24.8303 67.112 24.4756 67.112ZM28.9179 56.36H29.5759V67H28.9179V56.36ZM31.5304 64.228C31.5304 63.696 31.6564 63.2107 31.9084 62.772C32.1697 62.3333 32.5197 61.988 32.9584 61.736C33.4064 61.4747 33.9057 61.344 34.4564 61.344C35.0164 61.344 35.5157 61.4747 35.9544 61.736C36.3931 61.988 36.7384 62.3333 36.9904 62.772C37.2424 63.2107 37.3684 63.696 37.3684 64.228C37.3684 64.76 37.2424 65.2453 36.9904 65.684C36.7384 66.1227 36.3884 66.4727 35.9404 66.734C35.5017 66.986 35.0071 67.112 34.4564 67.112C33.8964 67.112 33.3971 66.9907 32.9584 66.748C32.5197 66.496 32.1697 66.1553 31.9084 65.726C31.6564 65.2873 31.5304 64.788 31.5304 64.228ZM32.1884 64.242C32.1884 64.6713 32.2864 65.0633 32.4824 65.418C32.6877 65.7633 32.9584 66.0387 33.2944 66.244C33.6397 66.4493 34.0224 66.552 34.4424 66.552C34.8624 66.552 35.2404 66.4493 35.5764 66.244C35.9217 66.0387 36.1924 65.7633 36.3884 65.418C36.5937 65.0633 36.6964 64.6713 36.6964 64.242C36.6964 63.8127 36.5937 63.4253 36.3884 63.08C36.1924 62.7253 35.9217 62.4453 35.5764 62.24C35.2404 62.0253 34.8624 61.918 34.4424 61.918C34.0131 61.918 33.6257 62.03 33.2804 62.254C32.9444 62.4687 32.6784 62.7533 32.4824 63.108C32.2864 63.4627 32.1884 63.8407 32.1884 64.242ZM42.3462 67.112C41.8235 67.112 41.3335 66.9767 40.8762 66.706C40.4188 66.426 40.0828 66.0667 39.8682 65.628L39.9802 65.39V69.632H39.3222V61.484H39.9102L39.9802 63.276L39.8542 62.87C40.0968 62.4313 40.4515 62.072 40.9182 61.792C41.3848 61.5027 41.8935 61.358 42.4442 61.358C42.9668 61.358 43.4382 61.484 43.8582 61.736C44.2782 61.988 44.6095 62.3333 44.8522 62.772C45.1042 63.2013 45.2302 63.696 45.2302 64.256C45.2302 64.8067 45.0995 65.3013 44.8382 65.74C44.5862 66.1693 44.2408 66.5053 43.8022 66.748C43.3728 66.9907 42.8875 67.112 42.3462 67.112ZM42.2342 66.566C42.6635 66.566 43.0508 66.4633 43.3962 66.258C43.7508 66.0527 44.0308 65.7773 44.2362 65.432C44.4508 65.0773 44.5582 64.6853 44.5582 64.256C44.5582 63.8173 44.4555 63.4253 44.2502 63.08C44.0448 62.7253 43.7695 62.4453 43.4242 62.24C43.0882 62.0347 42.7055 61.932 42.2762 61.932C41.8655 61.932 41.4922 62.0253 41.1562 62.212C40.8202 62.3987 40.5495 62.6507 40.3442 62.968C40.1388 63.2853 40.0175 63.6447 39.9802 64.046V64.494C40.0082 64.8767 40.1248 65.2267 40.3302 65.544C40.5448 65.8613 40.8155 66.1133 41.1422 66.3C41.4782 66.4773 41.8422 66.566 42.2342 66.566ZM49.5635 67.112C48.9942 67.112 48.4902 66.986 48.0515 66.734C47.6128 66.482 47.2675 66.1413 47.0155 65.712C46.7728 65.2733 46.6515 64.7833 46.6515 64.242C46.6515 63.71 46.7822 63.2247 47.0435 62.786C47.3048 62.3473 47.6548 61.9973 48.0935 61.736C48.5415 61.4747 49.0362 61.344 49.5775 61.344C50.2308 61.344 50.7768 61.5353 51.2155 61.918C51.6635 62.3007 51.9855 62.8 52.1815 63.416L47.3935 65.264L47.1975 64.788L51.5795 63.08L51.4395 63.276C51.2808 62.9027 51.0382 62.5807 50.7115 62.31C50.3942 62.0393 50.0022 61.904 49.5355 61.904C49.1155 61.904 48.7375 62.0067 48.4015 62.212C48.0655 62.4173 47.7948 62.6927 47.5895 63.038C47.3935 63.3833 47.2955 63.7753 47.2955 64.214C47.2955 64.6247 47.3888 65.0073 47.5755 65.362C47.7715 65.7167 48.0422 66.0013 48.3875 66.216C48.7328 66.4307 49.1295 66.538 49.5775 66.538C49.8762 66.538 50.1608 66.482 50.4315 66.37C50.7115 66.258 50.9588 66.1133 51.1735 65.936L51.5095 66.412C51.2482 66.6173 50.9448 66.7853 50.5995 66.916C50.2635 67.0467 49.9182 67.112 49.5635 67.112ZM54.5798 61.526L54.6498 63.206L54.5658 62.996C54.6871 62.66 54.8784 62.3707 55.1398 62.128C55.4011 61.8853 55.6904 61.6987 56.0078 61.568C56.3344 61.4373 56.6471 61.372 56.9458 61.372L56.9178 62.016C56.4978 62.016 56.1151 62.1093 55.7698 62.296C55.4338 62.4827 55.1631 62.7347 54.9578 63.052C54.7618 63.36 54.6638 63.71 54.6638 64.102V67H54.0058V61.526H54.5798Z" fill="#262E34"/>
<path d="M16.6406 27.8594C16.1354 27.8438 15.6979 27.7266 15.3281 27.5078C14.9583 27.2891 14.651 27 14.4062 26.6406C14.1719 26.2969 13.9948 25.9115 13.875 25.4844C13.7552 25.0625 13.6953 24.6432 13.6953 24.2266V22.9062C13.6953 22.1562 13.5156 21.612 13.1562 21.2734C12.8021 20.9349 12.2578 20.763 11.5234 20.7578V19.625C12.2578 19.625 12.8021 19.4583 13.1562 19.125C13.5156 18.7865 13.6953 18.2396 13.6953 17.4844V16.1562C13.6953 15.7344 13.75 15.3047 13.8594 14.8672C13.974 14.4245 14.1536 14.0286 14.3984 13.6797C14.6276 13.3464 14.9271 13.0755 15.2969 12.8672C15.6667 12.6536 16.1146 12.5391 16.6406 12.5234L16.8047 13.4219C16.4297 13.4323 16.1302 13.5208 15.9062 13.6875C15.6875 13.8542 15.5234 14.0651 15.4141 14.3203C15.2995 14.5807 15.2266 14.8724 15.1953 15.1953C15.1641 15.5182 15.1484 15.8385 15.1484 16.1562V17.4844C15.1484 18.1094 15.0026 18.6589 14.7109 19.1328C14.4245 19.6016 13.9792 19.9583 13.375 20.2031C13.9792 20.4427 14.4245 20.7995 14.7109 21.2734C14.9974 21.7422 15.1432 22.2865 15.1484 22.9062V24.2266C15.1484 24.5495 15.1745 24.8698 15.2266 25.1875C15.2786 25.5104 15.3698 25.7995 15.5 26.0547C15.625 26.3151 15.7917 26.5286 16 26.6953C16.2135 26.862 16.4818 26.9505 16.8047 26.9609L16.6406 27.8594Z" fill="#F8F5EC"/>
<path d="M41.5234 26.9609C41.8411 26.9505 42.1068 26.862 42.3203 26.6953C42.5339 26.5286 42.7057 26.3151 42.8359 26.0547C42.9609 25.7995 43.0495 25.5104 43.1016 25.1875C43.1589 24.8698 43.1875 24.5495 43.1875 24.2266V22.9062C43.1875 22.4948 43.2474 22.1146 43.3672 21.7656C43.4922 21.4167 43.6823 21.1146 43.9375 20.8594C44.0729 20.724 44.224 20.6016 44.3906 20.4922C44.5625 20.3828 44.75 20.2865 44.9531 20.2031C44.7448 20.1198 44.5521 20.0208 44.375 19.9062C44.2031 19.7917 44.0521 19.6641 43.9219 19.5234C43.6719 19.263 43.487 18.9609 43.3672 18.6172C43.2474 18.2682 43.1875 17.8906 43.1875 17.4844V16.1562C43.1875 15.8385 43.1693 15.5182 43.1328 15.1953C43.1016 14.8724 43.0312 14.5807 42.9219 14.3203C42.8073 14.0651 42.6406 13.8542 42.4219 13.6875C42.2031 13.5208 41.9062 13.4323 41.5312 13.4219L41.6875 12.5234C42.1927 12.5391 42.625 12.6458 42.9844 12.8438C43.349 13.0417 43.6484 13.2995 43.8828 13.6172C44.1484 13.9766 44.3385 14.3802 44.4531 14.8281C44.5729 15.276 44.6328 15.7188 44.6328 16.1562V17.4844C44.6328 17.7969 44.6615 18.0729 44.7188 18.3125C44.7812 18.5469 44.8724 18.75 44.9922 18.9219C45.1641 19.1667 45.401 19.3464 45.7031 19.4609C46.0104 19.5703 46.3776 19.625 46.8047 19.625V20.7578C46.4297 20.763 46.1016 20.8099 45.8203 20.8984C45.5443 20.9818 45.3177 21.1146 45.1406 21.2969C44.9688 21.474 44.8411 21.6953 44.7578 21.9609C44.6745 22.2266 44.6328 22.5417 44.6328 22.9062V24.2266C44.6328 24.6432 44.5755 25.0625 44.4609 25.4844C44.3464 25.9115 44.1693 26.2995 43.9297 26.6484C43.6849 26.9974 43.3776 27.2839 43.0078 27.5078C42.638 27.7318 42.1979 27.849 41.6875 27.8594L41.5234 26.9609Z" fill="#F8F5EC"/>
<path d="M35.1745 35H42.6913L53 20.3285L42.6913 5H35.1745L21.2148 35H14.3423L5 20.3285L14.3423 5H21.2148" stroke="#262E34" stroke-opacity="0.8" stroke-width="4" stroke-linecap="round"/>
</svg>
