<svg width="60" height="72" viewBox="0 0 60 72" fill="none" xmlns="http://www.w3.org/2000/svg">
<path d="M3.48599 67.112C2.97266 67.112 2.50599 66.9907 2.08599 66.748C1.66599 66.496 1.32999 66.1507 1.07799 65.712C0.835322 65.2733 0.713989 64.7787 0.713989 64.228C0.713989 63.64 0.839989 63.1313 1.09199 62.702C1.34399 62.2727 1.68466 61.9413 2.11399 61.708C2.55266 61.4747 3.03332 61.358 3.55599 61.358C4.07866 61.358 4.57332 61.4933 5.03999 61.764C5.51599 62.0347 5.86132 62.3893 6.07599 62.828L5.96399 63.136V56.36H6.62199V67H5.94999V65.32L6.08999 65.628C5.85666 66.0667 5.50666 66.426 5.03999 66.706C4.57332 66.9767 4.05532 67.112 3.48599 67.112ZM3.65399 66.538C4.07399 66.538 4.45199 66.4493 4.78799 66.272C5.12399 66.0853 5.39466 65.838 5.59999 65.53C5.80532 65.2127 5.92199 64.858 5.94999 64.466V63.766C5.88466 63.4113 5.73999 63.094 5.51599 62.814C5.29199 62.534 5.02132 62.3147 4.70399 62.156C4.38666 61.988 4.03666 61.904 3.65399 61.904C3.23399 61.904 2.85132 62.002 2.50599 62.198C2.16066 62.394 1.88532 62.6647 1.67999 63.01C1.47466 63.3553 1.37199 63.7567 1.37199 64.214C1.37199 64.6433 1.47466 65.0353 1.67999 65.39C1.88532 65.7353 2.16066 66.0153 2.50599 66.23C2.86066 66.4353 3.24332 66.538 3.65399 66.538ZM11.4873 67.112C10.918 67.112 10.414 66.986 9.97532 66.734C9.53665 66.482 9.19132 66.1413 8.93932 65.712C8.69665 65.2733 8.57532 64.7833 8.57532 64.242C8.57532 63.71 8.70598 63.2247 8.96732 62.786C9.22865 62.3473 9.57865 61.9973 10.0173 61.736C10.4653 61.4747 10.96 61.344 11.5013 61.344C12.1547 61.344 12.7007 61.5353 13.1393 61.918C13.5873 62.3007 13.9093 62.8 14.1053 63.416L9.31732 65.264L9.12132 64.788L13.5033 63.08L13.3633 63.276C13.2047 62.9027 12.962 62.5807 12.6353 62.31C12.318 62.0393 11.926 61.904 11.4593 61.904C11.0393 61.904 10.6613 62.0067 10.3253 62.212C9.98932 62.4173 9.71865 62.6927 9.51332 63.038C9.31732 63.3833 9.21932 63.7753 9.21932 64.214C9.21932 64.6247 9.31265 65.0073 9.49932 65.362C9.69532 65.7167 9.96598 66.0013 10.3113 66.216C10.6567 66.4307 11.0533 66.538 11.5013 66.538C11.8 66.538 12.0847 66.482 12.3553 66.37C12.6353 66.258 12.8827 66.1133 13.0973 65.936L13.4333 66.412C13.172 66.6173 12.8687 66.7853 12.5233 66.916C12.1873 67.0467 11.842 67.112 11.4873 67.112ZM17.7245 67.21L14.9525 61.526H15.7225L18.0045 66.496L17.5985 66.482L19.7965 61.526H20.5245L17.8085 67.21H17.7245ZM24.4756 67.112C23.9063 67.112 23.4023 66.986 22.9636 66.734C22.5249 66.482 22.1796 66.1413 21.9276 65.712C21.6849 65.2733 21.5636 64.7833 21.5636 64.242C21.5636 63.71 21.6943 63.2247 21.9556 62.786C22.2169 62.3473 22.5669 61.9973 23.0056 61.736C23.4536 61.4747 23.9483 61.344 24.4896 61.344C25.1429 61.344 25.6889 61.5353 26.1276 61.918C26.5756 62.3007 26.8976 62.8 27.0936 63.416L22.3056 65.264L22.1096 64.788L26.4916 63.08L26.3516 63.276C26.1929 62.9027 25.9503 62.5807 25.6236 62.31C25.3063 62.0393 24.9143 61.904 24.4476 61.904C24.0276 61.904 23.6496 62.0067 23.3136 62.212C22.9776 62.4173 22.7069 62.6927 22.5016 63.038C22.3056 63.3833 22.2076 63.7753 22.2076 64.214C22.2076 64.6247 22.3009 65.0073 22.4876 65.362C22.6836 65.7167 22.9543 66.0013 23.2996 66.216C23.6449 66.4307 24.0416 66.538 24.4896 66.538C24.7883 66.538 25.0729 66.482 25.3436 66.37C25.6236 66.258 25.8709 66.1133 26.0856 65.936L26.4216 66.412C26.1603 66.6173 25.8569 66.7853 25.5116 66.916C25.1756 67.0467 24.8303 67.112 24.4756 67.112ZM28.9179 56.36H29.5759V67H28.9179V56.36ZM31.5304 64.228C31.5304 63.696 31.6564 63.2107 31.9084 62.772C32.1697 62.3333 32.5197 61.988 32.9584 61.736C33.4064 61.4747 33.9057 61.344 34.4564 61.344C35.0164 61.344 35.5157 61.4747 35.9544 61.736C36.3931 61.988 36.7384 62.3333 36.9904 62.772C37.2424 63.2107 37.3684 63.696 37.3684 64.228C37.3684 64.76 37.2424 65.2453 36.9904 65.684C36.7384 66.1227 36.3884 66.4727 35.9404 66.734C35.5017 66.986 35.0071 67.112 34.4564 67.112C33.8964 67.112 33.3971 66.9907 32.9584 66.748C32.5197 66.496 32.1697 66.1553 31.9084 65.726C31.6564 65.2873 31.5304 64.788 31.5304 64.228ZM32.1884 64.242C32.1884 64.6713 32.2864 65.0633 32.4824 65.418C32.6877 65.7633 32.9584 66.0387 33.2944 66.244C33.6397 66.4493 34.0224 66.552 34.4424 66.552C34.8624 66.552 35.2404 66.4493 35.5764 66.244C35.9217 66.0387 36.1924 65.7633 36.3884 65.418C36.5937 65.0633 36.6964 64.6713 36.6964 64.242C36.6964 63.8127 36.5937 63.4253 36.3884 63.08C36.1924 62.7253 35.9217 62.4453 35.5764 62.24C35.2404 62.0253 34.8624 61.918 34.4424 61.918C34.0131 61.918 33.6257 62.03 33.2804 62.254C32.9444 62.4687 32.6784 62.7533 32.4824 63.108C32.2864 63.4627 32.1884 63.8407 32.1884 64.242ZM42.3462 67.112C41.8235 67.112 41.3335 66.9767 40.8762 66.706C40.4188 66.426 40.0828 66.0667 39.8682 65.628L39.9802 65.39V69.632H39.3222V61.484H39.9102L39.9802 63.276L39.8542 62.87C40.0968 62.4313 40.4515 62.072 40.9182 61.792C41.3848 61.5027 41.8935 61.358 42.4442 61.358C42.9668 61.358 43.4382 61.484 43.8582 61.736C44.2782 61.988 44.6095 62.3333 44.8522 62.772C45.1042 63.2013 45.2302 63.696 45.2302 64.256C45.2302 64.8067 45.0995 65.3013 44.8382 65.74C44.5862 66.1693 44.2408 66.5053 43.8022 66.748C43.3728 66.9907 42.8875 67.112 42.3462 67.112ZM42.2342 66.566C42.6635 66.566 43.0508 66.4633 43.3962 66.258C43.7508 66.0527 44.0308 65.7773 44.2362 65.432C44.4508 65.0773 44.5582 64.6853 44.5582 64.256C44.5582 63.8173 44.4555 63.4253 44.2502 63.08C44.0448 62.7253 43.7695 62.4453 43.4242 62.24C43.0882 62.0347 42.7055 61.932 42.2762 61.932C41.8655 61.932 41.4922 62.0253 41.1562 62.212C40.8202 62.3987 40.5495 62.6507 40.3442 62.968C40.1388 63.2853 40.0175 63.6447 39.9802 64.046V64.494C40.0082 64.8767 40.1248 65.2267 40.3302 65.544C40.5448 65.8613 40.8155 66.1133 41.1422 66.3C41.4782 66.4773 41.8422 66.566 42.2342 66.566ZM49.5635 67.112C48.9942 67.112 48.4902 66.986 48.0515 66.734C47.6128 66.482 47.2675 66.1413 47.0155 65.712C46.7728 65.2733 46.6515 64.7833 46.6515 64.242C46.6515 63.71 46.7822 63.2247 47.0435 62.786C47.3048 62.3473 47.6548 61.9973 48.0935 61.736C48.5415 61.4747 49.0362 61.344 49.5775 61.344C50.2308 61.344 50.7768 61.5353 51.2155 61.918C51.6635 62.3007 51.9855 62.8 52.1815 63.416L47.3935 65.264L47.1975 64.788L51.5795 63.08L51.4395 63.276C51.2808 62.9027 51.0382 62.5807 50.7115 62.31C50.3942 62.0393 50.0022 61.904 49.5355 61.904C49.1155 61.904 48.7375 62.0067 48.4015 62.212C48.0655 62.4173 47.7948 62.6927 47.5895 63.038C47.3935 63.3833 47.2955 63.7753 47.2955 64.214C47.2955 64.6247 47.3888 65.0073 47.5755 65.362C47.7715 65.7167 48.0422 66.0013 48.3875 66.216C48.7328 66.4307 49.1295 66.538 49.5775 66.538C49.8762 66.538 50.1608 66.482 50.4315 66.37C50.7115 66.258 50.9588 66.1133 51.1735 65.936L51.5095 66.412C51.2482 66.6173 50.9448 66.7853 50.5995 66.916C50.2635 67.0467 49.9182 67.112 49.5635 67.112ZM54.5798 61.526L54.6498 63.206L54.5658 62.996C54.6871 62.66 54.8784 62.3707 55.1398 62.128C55.4011 61.8853 55.6904 61.6987 56.0078 61.568C56.3344 61.4373 56.6471 61.372 56.9458 61.372L56.9178 62.016C56.4978 62.016 56.1151 62.1093 55.7698 62.296C55.4338 62.4827 55.1631 62.7347 54.9578 63.052C54.7618 63.36 54.6638 63.71 54.6638 64.102V67H54.0058V61.526H54.5798Z" fill="#262E34"/>
<path d="M16.6406 27.8594C16.1354 27.8438 15.6979 27.7266 15.3281 27.5078C14.9583 27.2891 14.651 27 14.4062 26.6406C14.1719 26.2969 13.9948 25.9115 13.875 25.4844C13.7552 25.0625 13.6953 24.6432 13.6953 24.2266V22.9062C13.6953 22.1562 13.5156 21.612 13.1562 21.2734C12.8021 20.9349 12.2578 20.763 11.5234 20.7578V19.625C12.2578 19.625 12.8021 19.4583 13.1562 19.125C13.5156 18.7865 13.6953 18.2396 13.6953 17.4844V16.1562C13.6953 15.7344 13.75 15.3047 13.8594 14.8672C13.974 14.4245 14.1536 14.0286 14.3984 13.6797C14.6276 13.3464 14.9271 13.0755 15.2969 12.8672C15.6667 12.6536 16.1146 12.5391 16.6406 12.5234L16.8047 13.4219C16.4297 13.4323 16.1302 13.5208 15.9062 13.6875C15.6875 13.8542 15.5234 14.0651 15.4141 14.3203C15.2995 14.5807 15.2266 14.8724 15.1953 15.1953C15.1641 15.5182 15.1484 15.8385 15.1484 16.1562V17.4844C15.1484 18.1094 15.0026 18.6589 14.7109 19.1328C14.4245 19.6016 13.9792 19.9583 13.375 20.2031C13.9792 20.4427 14.4245 20.7995 14.7109 21.2734C14.9974 21.7422 15.1432 22.2865 15.1484 22.9062V24.2266C15.1484 24.5495 15.1745 24.8698 15.2266 25.1875C15.2786 25.5104 15.3698 25.7995 15.5 26.0547C15.625 26.3151 15.7917 26.5286 16 26.6953C16.2135 26.862 16.4818 26.9505 16.8047 26.9609L16.6406 27.8594Z" fill="#F8F5EC"/>
<path d="M41.5234 26.9609C41.8411 26.9505 42.1068 26.862 42.3203 26.6953C42.5339 26.5286 42.7057 26.3151 42.8359 26.0547C42.9609 25.7995 43.0495 25.5104 43.1016 25.1875C43.1589 24.8698 43.1875 24.5495 43.1875 24.2266V22.9062C43.1875 22.4948 43.2474 22.1146 43.3672 21.7656C43.4922 21.4167 43.6823 21.1146 43.9375 20.8594C44.0729 20.724 44.224 20.6016 44.3906 20.4922C44.5625 20.3828 44.75 20.2865 44.9531 20.2031C44.7448 20.1198 44.5521 20.0208 44.375 19.9062C44.2031 19.7917 44.0521 19.6641 43.9219 19.5234C43.6719 19.263 43.487 18.9609 43.3672 18.6172C43.2474 18.2682 43.1875 17.8906 43.1875 17.4844V16.1562C43.1875 15.8385 43.1693 15.5182 43.1328 15.1953C43.1016 14.8724 43.0312 14.5807 42.9219 14.3203C42.8073 14.0651 42.6406 13.8542 42.4219 13.6875C42.2031 13.5208 41.9062 13.4323 41.5312 13.4219L41.6875 12.5234C42.1927 12.5391 42.625 12.6458 42.9844 12.8438C43.349 13.0417 43.6484 13.2995 43.8828 13.6172C44.1484 13.9766 44.3385 14.3802 44.4531 14.8281C44.5729 15.276 44.6328 15.7188 44.6328 16.1562V17.4844C44.6328 17.7969 44.6615 18.0729 44.7188 18.3125C44.7812 18.5469 44.8724 18.75 44.9922 18.9219C45.1641 19.1667 45.401 19.3464 45.7031 19.4609C46.0104 19.5703 46.3776 19.625 46.8047 19.625V20.7578C46.4297 20.763 46.1016 20.8099 45.8203 20.8984C45.5443 20.9818 45.3177 21.1146 45.1406 21.2969C44.9688 21.474 44.8411 21.6953 44.7578 21.9609C44.6745 22.2266 44.6328 22.5417 44.6328 22.9062V24.2266C44.6328 24.6432 44.5755 25.0625 44.4609 25.4844C44.3464 25.9115 44.1693 26.2995 43.9297 26.6484C43.6849 26.9974 43.3776 27.2839 43.0078 27.5078C42.638 27.7318 42.1979 27.849 41.6875 27.8594L41.5234 26.9609Z" fill="#F8F5EC"/>
<path d="M35.1745 35H42.6913L53 20.3285L42.6913 5H35.1745L21.2148 35H14.3423L5 20.3285L14.3423 5H21.2148" stroke="#262E34" stroke-opacity="0.8" stroke-width="4" stroke-linecap="round"/>
<path d="M1.76172 47.1572C1.76172 46.7552 1.86117 46.3892 2.06006 46.0591C2.26318 45.729 2.53402 45.4666 2.87256 45.272C3.21533 45.0731 3.59196 44.9736 4.00244 44.9736H8.67432V46.3066H4.00244C3.757 46.3066 3.54541 46.3934 3.36768 46.5669C3.18994 46.7404 3.10107 46.9499 3.10107 47.1953V47.8174C3.10107 48.0417 3.18994 48.2342 3.36768 48.395C3.54541 48.5558 3.757 48.6362 4.00244 48.6362H6.87793C7.29264 48.6362 7.66927 48.7357 8.00781 48.9346C8.34635 49.1292 8.61507 49.3937 8.81396 49.728C9.01709 50.0581 9.11865 50.4242 9.11865 50.8262V51.8101C9.11865 52.2121 9.01709 52.5802 8.81396 52.9146C8.61507 53.2446 8.34635 53.5091 8.00781 53.708C7.66927 53.9027 7.29264 54 6.87793 54H1.76807V52.6606H6.87793C7.1276 52.6606 7.33919 52.5781 7.5127 52.4131C7.69043 52.2438 7.7793 52.0407 7.7793 51.8037V50.8325C7.7793 50.5955 7.69043 50.3924 7.5127 50.2231C7.33919 50.0539 7.1276 49.9692 6.87793 49.9692H4.00244C3.59196 49.9692 3.21533 49.874 2.87256 49.6836C2.53402 49.4889 2.26318 49.2287 2.06006 48.9028C1.86117 48.577 1.76172 48.2173 1.76172 47.8237V47.1572ZM10.6167 53.2383C10.6167 53.0098 10.6971 52.8151 10.8579 52.6543C11.0187 52.4935 11.2134 52.4131 11.4419 52.4131C11.6746 52.4131 11.8693 52.4935 12.0259 52.6543C12.1867 52.8109 12.2671 53.0055 12.2671 53.2383C12.2671 53.471 12.1867 53.6678 12.0259 53.8286C11.8693 53.9852 11.6746 54.0635 11.4419 54.0635C11.2134 54.0635 11.0187 53.9831 10.8579 53.8223C10.6971 53.6615 10.6167 53.4668 10.6167 53.2383ZM13.7588 47.1572C13.7588 46.7552 13.8582 46.3892 14.0571 46.0591C14.2603 45.729 14.5311 45.4666 14.8696 45.272C15.2124 45.0731 15.589 44.9736 15.9995 44.9736H20.6714V46.3066H15.9995C15.7541 46.3066 15.5425 46.3934 15.3647 46.5669C15.187 46.7404 15.0981 46.9499 15.0981 47.1953V47.8174C15.0981 48.0417 15.187 48.2342 15.3647 48.395C15.5425 48.5558 15.7541 48.6362 15.9995 48.6362H18.875C19.2897 48.6362 19.6663 48.7357 20.0049 48.9346C20.3434 49.1292 20.6121 49.3937 20.811 49.728C21.0142 50.0581 21.1157 50.4242 21.1157 50.8262V51.8101C21.1157 52.2121 21.0142 52.5802 20.811 52.9146C20.6121 53.2446 20.3434 53.5091 20.0049 53.708C19.6663 53.9027 19.2897 54 18.875 54H13.7651V52.6606H18.875C19.1247 52.6606 19.3363 52.5781 19.5098 52.4131C19.6875 52.2438 19.7764 52.0407 19.7764 51.8037V50.8325C19.7764 50.5955 19.6875 50.3924 19.5098 50.2231C19.3363 50.0539 19.1247 49.9692 18.875 49.9692H15.9995C15.589 49.9692 15.2124 49.874 14.8696 49.6836C14.5311 49.4889 14.2603 49.2287 14.0571 48.9028C13.8582 48.577 13.7588 48.2173 13.7588 47.8237V47.1572ZM22.582 49.7852C22.582 49.3493 22.6878 48.9536 22.8994 48.5981C23.1152 48.2427 23.403 47.9591 23.7627 47.7476C24.1224 47.5317 24.5202 47.4238 24.9561 47.4238H28.625V54H27.2856V48.7632H24.9561C24.6725 48.7632 24.4292 48.8647 24.2261 49.0679C24.0229 49.2668 23.9214 49.5101 23.9214 49.7979V51.6133C23.9214 51.901 24.0229 52.1486 24.2261 52.356C24.4292 52.5591 24.6725 52.6606 24.9561 52.6606H26.5239V54H24.9561C24.5202 54 24.1224 53.8942 23.7627 53.6826C23.403 53.4668 23.1152 53.179 22.8994 52.8193C22.6878 52.4596 22.582 52.0618 22.582 51.626V49.7852ZM30.1484 48.7568C30.1484 48.3887 30.2796 48.0755 30.542 47.8174C30.8086 47.555 31.1281 47.4238 31.5005 47.4238H33.8174C34.2533 47.4238 34.651 47.5317 35.0107 47.7476C35.3704 47.9591 35.6561 48.2448 35.8677 48.6045C36.0835 48.9642 36.1914 49.362 36.1914 49.7979V54H34.8521V49.8169C34.8521 49.5207 34.7505 49.2689 34.5474 49.0615C34.3485 48.8542 34.1051 48.7505 33.8174 48.7505H31.4878V54H30.1484V48.7568ZM37.6514 49.7979C37.6514 49.362 37.7572 48.9642 37.9688 48.6045C38.1846 48.2448 38.4723 47.9591 38.832 47.7476C39.1917 47.5317 39.5895 47.4238 40.0254 47.4238H41.5933V48.7632H40.0254C39.7419 48.7632 39.4985 48.8669 39.2954 49.0742C39.0923 49.2773 38.9907 49.5228 38.9907 49.8105V51.626C38.9907 51.9095 39.0923 52.1528 39.2954 52.356C39.4985 52.5591 39.7419 52.6606 40.0254 52.6606H42.355V44.9736H43.6943V52.6606C43.6943 53.0288 43.5632 53.3441 43.3008 53.6064C43.0384 53.8688 42.7231 54 42.355 54H40.0254C39.5895 54 39.1917 53.8942 38.832 53.6826C38.4723 53.4668 38.1846 53.1812 37.9688 52.8257C37.7572 52.466 37.6514 52.0703 37.6514 51.6387V49.7979ZM45.2178 48.7822C45.2178 48.4056 45.3553 48.0861 45.6304 47.8237C45.9054 47.5571 46.2355 47.4238 46.6206 47.4238H49.3628C49.714 47.4238 50.0314 47.5106 50.3149 47.6841C50.6027 47.8534 50.8312 48.084 51.0005 48.376C51.174 48.6637 51.2607 48.9832 51.2607 49.3345V49.5186C51.2607 49.8656 51.174 50.1829 51.0005 50.4707C50.8312 50.7542 50.6027 50.9827 50.3149 51.1562C50.0314 51.3255 49.714 51.4102 49.3628 51.4102H47.3188V50.0771H49.3755C49.5278 50.0771 49.6569 50.0221 49.7627 49.9121C49.8727 49.8021 49.9277 49.6688 49.9277 49.5122V49.3345C49.9277 49.1737 49.8727 49.0382 49.7627 48.9282C49.6569 48.8182 49.5278 48.7632 49.3755 48.7632H46.5571V52.1401C46.5571 52.284 46.6058 52.4067 46.7031 52.5083C46.8005 52.6099 46.9189 52.6606 47.0586 52.6606H50.7974V54H47.0586C46.7201 54 46.4111 53.9175 46.1318 53.7524C45.8525 53.5832 45.6304 53.3589 45.4653 53.0796C45.3003 52.7961 45.2178 52.485 45.2178 52.1465V48.7822ZM52.7207 49.2646C52.7207 48.9261 52.8053 48.6172 52.9746 48.3379C53.1481 48.0586 53.3766 47.8364 53.6602 47.6714C53.9479 47.5063 54.2653 47.4238 54.6123 47.4238H56.0786V48.7568H54.6123C54.46 48.7568 54.3288 48.8097 54.2188 48.9155C54.113 49.0171 54.0601 49.1419 54.0601 49.29V54H52.7207V49.2646Z" fill="white"/>
</svg>
