<svg width="24" height="24" viewBox="0 0 24 24" fill="none" xmlns="http://www.w3.org/2000/svg">
<mask id="mask0_1815_3393" style="mask-type:alpha" maskUnits="userSpaceOnUse" x="0" y="0" width="24" height="24">
<rect width="24" height="24" fill="#797EF3"/>
</mask>
<g mask="url(#mask0_1815_3393)">
<path d="M10.1612 20.1082C7.81196 19.2947 5.65013 17.1995 4.29235 14.6186C2.93321 12.0352 2.47658 9.15287 3.27598 6.8437C3.91347 5.00254 6.03912 3.81352 8.98276 3.43102C11.8668 3.05628 15.1341 3.52727 17.4137 4.58252C19.6792 5.63136 21.0649 7.16103 21.7104 8.96871C22.3622 10.7945 22.3012 13.0235 21.4372 15.5191C20.616 17.8911 19.0172 19.43 17.0467 20.1925C15.0568 20.9623 12.625 20.9611 10.1612 20.1082Z" fill="#89BCD9" stroke="#89BCD9" stroke-width="2"/>
<path d="M10.825 13.225L8.675 11.075C8.49167 10.8917 8.25833 10.8 7.975 10.8C7.69167 10.8 7.45833 10.8917 7.275 11.075C7.09167 11.2583 7 11.4917 7 11.775C7 12.0583 7.09167 12.2917 7.275 12.475L10.125 15.325C10.325 15.525 10.5583 15.625 10.825 15.625C11.0917 15.625 11.325 15.525 11.525 15.325L17.175 9.675C17.3583 9.49167 17.45 9.25833 17.45 8.975C17.45 8.69167 17.3583 8.45833 17.175 8.275C16.9917 8.09167 16.7583 8 16.475 8C16.1917 8 15.9583 8.09167 15.775 8.275L10.825 13.225Z" fill="#F8F5EC"/>
</g>
</svg>
