<svg width="42" height="45" viewBox="0 0 42 45" fill="none" xmlns="http://www.w3.org/2000/svg">
<path d="M15.5749 41.1688C12.5862 40.3159 9.95763 38.7455 7.66268 36.5523C6.94217 36.8096 6.20832 37.0668 5.46112 37.3105C5.11421 37.4188 4.7673 37.3782 4.40705 37.2428C3.7666 36.9991 3.37966 36.5253 3.09946 35.9431C2.71252 35.1715 2.21884 34.4675 1.8319 33.6958C1.48499 32.9783 0.977961 32.3556 0.684421 31.611C0.53765 31.2455 0.150711 31.0018 0.150711 30.5415C-0.196201 29.9729 0.137368 29.472 0.337509 28.9711C0.39088 28.8357 0.457594 28.6597 0.577679 28.6056C1.05802 28.389 1.29819 27.9016 1.69847 27.6038C1.88527 27.4684 2.08541 27.3195 2.29889 27.157C1.99201 25.6002 1.72515 24.0433 1.72515 22.4458C1.72515 20.8619 2.00535 19.3321 2.29889 17.8159C1.77853 17.3285 1.29819 16.8547 0.791163 16.4079C0.270795 15.9477 -0.0360878 15.3791 0.0306259 14.7834C0.0706542 14.4585 0.164053 14.1065 0.324166 13.8357C0.817848 13.037 1.2715 12.1977 1.75184 11.3854C2.13878 10.7356 2.47235 10.0587 2.89932 9.42238C3.12614 9.09747 3.25957 8.71841 3.4864 8.37996C3.92671 7.74368 4.80733 7.43231 5.52784 7.64892C6.16829 7.83845 6.76871 8.12274 7.42251 8.24459C7.48922 8.25812 7.54259 8.35289 7.60931 8.42058C9.9176 6.24097 12.5461 4.68412 15.5616 3.77708C15.6817 3.41155 15.7084 3.01895 15.8551 2.63989C15.9619 2.3556 15.9352 2.00361 15.9886 1.69224C16.1353 0.879964 16.629 0.406137 17.3362 0.162455C17.5897 0.0812274 17.8432 0 18.1501 0C20.0181 0.0270758 21.886 0.0270758 23.754 0C24.2877 0 24.7414 0.216607 25.1684 0.460289C25.5553 0.663357 25.7688 1.09657 25.8755 1.50271C26.0623 2.24729 26.1691 3.00542 26.3158 3.79061C29.318 4.65704 31.9465 6.2139 34.2414 8.40704C34.9619 8.14982 35.6958 7.8926 36.443 7.64892C36.7899 7.54061 37.1368 7.58123 37.4971 7.71661C38.1375 7.96029 38.5245 8.43412 38.8047 9.01624C39.1916 9.78791 39.6853 10.4919 40.0722 11.2635C40.4191 11.981 40.9262 12.6038 41.2197 13.3484C41.3665 13.7139 41.7534 13.9576 41.7534 14.4179C42.1003 14.9865 41.7667 15.4874 41.5666 15.9883C41.5132 16.1236 41.4465 16.2996 41.3264 16.3538C40.8461 16.5704 40.6059 17.0578 40.2056 17.3556C40.0188 17.491 39.8187 17.6399 39.6052 17.8023C39.9121 19.3592 40.179 20.9161 40.179 22.5135C40.179 24.0975 39.9388 25.6273 39.6052 27.1435C40.1256 27.6309 40.6059 28.1047 41.1129 28.5514C41.6333 29.0117 41.9402 29.5803 41.8735 30.176C41.8335 30.5009 41.7534 30.8529 41.5799 31.1236C41.0996 31.9088 40.646 32.7211 40.179 33.5199C39.5919 34.5081 39.1115 35.5776 38.4311 36.5117C38.311 37.0262 37.8306 37.0668 37.4837 37.2563C37.1101 37.4594 36.7365 37.4052 36.3229 37.2834C35.7091 37.1074 35.1221 36.796 34.4816 36.7148C34.4149 36.7013 34.3615 36.6065 34.2948 36.5388C31.9865 38.7455 29.3713 40.3159 26.3158 41.1958C26.1691 41.9269 26.0356 42.685 25.8755 43.4296C25.7154 44.1606 25.2351 44.6209 24.5546 44.8375C24.3011 44.9188 24.0342 45 23.7407 45C21.8727 44.9729 20.0047 44.9729 18.1367 45C17.603 45 17.1494 44.7834 16.7224 44.5397C16.3355 44.3366 16.1086 43.9034 16.0286 43.4973C15.8818 42.6986 15.735 41.954 15.5749 41.1688ZM16.4422 29.2419C16.7091 29.093 17.0159 28.9982 17.0293 28.6733C17.056 28.1859 17.1227 27.685 17.0159 27.2247C16.8291 26.4395 16.4956 25.6814 16.2954 24.8962C16.162 24.3953 15.8685 23.9215 15.8818 23.38C15.4548 22.3105 15.188 21.1868 14.8277 20.1038C14.5342 19.2103 14.3207 18.2897 14.0005 17.4097C13.827 16.9224 13.787 16.3809 13.4668 15.9477C13.4401 15.907 13.4267 15.88 13.4267 15.88C13.0665 15.6363 12.6929 15.7175 12.3727 15.7175C12.1859 15.8935 12.0258 16.0424 11.879 16.1778C11.8656 16.611 11.5588 16.9495 11.6121 17.3691C11.1451 18.4251 10.945 19.5623 10.5581 20.6453C10.3579 21.2004 10.2378 21.769 10.0777 22.3375C9.93095 22.9061 9.61072 23.4206 9.61072 24.0298C9.10369 25.1805 8.85018 26.4125 8.47659 27.6173C8.38319 27.9152 8.32982 28.1995 8.51661 28.4838C8.56999 28.565 8.5433 28.6868 8.5433 28.6733C8.75678 28.9034 8.9169 29.0659 9.05032 29.2283C9.30384 29.2283 9.57069 29.2283 9.85089 29.2283C10.0377 28.9847 10.2245 28.7545 10.3979 28.5244C10.3579 27.7527 10.518 27.2383 10.8649 26.4125C12.1725 26.4125 13.4801 26.4125 14.7877 26.4125C14.8944 26.8457 14.9478 27.2653 15.0946 27.6579C15.1613 27.8204 15.228 27.9829 15.2013 28.1453C15.1613 28.6462 15.3214 29.0388 15.8818 29.2283C16.0152 29.2419 16.2154 29.2419 16.4422 29.2419ZM19.5644 29.2419C19.9247 29.2148 20.3383 29.3231 20.6318 29.0253C20.7386 28.8899 20.832 28.7545 20.9654 28.565C20.9654 27.2112 20.9654 25.7897 20.9654 24.3682C21.9394 24.3682 22.9001 24.3276 23.8474 24.3818C24.4212 24.4088 24.8882 24.2329 25.3418 23.9486C25.5553 23.8132 25.7421 23.6101 25.9289 23.4206C26.4226 22.9332 26.6628 22.3375 26.6761 21.6336C26.6761 20.5235 26.6761 19.4269 26.6761 18.3168C26.6761 18.1543 26.6361 17.9783 26.596 17.8159C26.4493 17.2338 26.1424 16.8005 25.7288 16.4215C25.2484 15.9747 24.688 15.704 24.0209 15.704C22.5265 15.704 21.0455 15.704 19.5377 15.704C19.391 15.8664 19.2442 16.0289 19.0707 16.1913C19.0707 20.361 19.0707 24.5578 19.0707 28.7681C19.2442 28.917 19.4043 29.0794 19.5644 29.2419ZM29.1712 29.2419C30.0918 29.2419 31.0258 29.2419 31.9465 29.2419C32.1066 29.0794 32.2667 28.917 32.4268 28.7681C32.4268 28.5108 32.4268 28.2671 32.4268 28.0099C32.4268 27.9829 32.4268 27.9693 32.4268 27.9558C32.2267 27.5767 31.9198 27.3466 31.5195 27.306C31.5195 24.0704 31.5195 20.8484 31.5195 17.694C31.8131 17.5451 32.0666 17.4097 32.3601 17.2473C32.4001 16.8953 32.4268 16.5298 32.4535 16.2726C32.24 16.0289 32.0933 15.8529 31.9732 15.7175C31.0125 15.7175 30.0785 15.7175 29.2512 15.7175C29.0244 15.9206 28.8643 16.0695 28.6642 16.259C28.7042 16.5839 28.7576 16.9495 28.7976 17.2608C29.1178 17.4233 29.3713 17.5587 29.5982 17.6805C29.5982 20.9025 29.5982 24.1245 29.5982 27.3195C29.4647 27.3466 29.318 27.3195 29.2646 27.3872C29.0778 27.5767 28.7576 27.6309 28.6909 27.9422C28.6909 28.213 28.6909 28.4838 28.6909 28.7545C28.851 28.917 29.0111 29.0794 29.1712 29.2419Z" fill="#89BCD9"/>
<path d="M14.0807 24.3399C13.2935 24.367 12.4662 24.3806 11.639 24.4076C11.6123 24.4076 11.5722 24.4618 11.4922 24.5295C11.5055 23.6901 11.9725 23.0132 12.0259 22.2416C12.4262 21.5647 12.4662 20.7659 12.7331 20.0078C12.8131 20.089 12.9332 20.1703 12.9332 20.238C12.9465 20.8201 13.2801 21.321 13.3869 21.876C13.4669 22.2551 13.6804 22.6206 13.7338 22.9997C13.7871 23.4871 14.1074 23.8526 14.0807 24.3399Z" fill="#89BCD9"/>
<path d="M24.8193 21.7153C24.7259 21.8642 24.6458 22.0131 24.5391 22.1485C24.3523 22.3651 24.1121 22.487 23.8052 22.4734C22.8712 22.4599 21.9372 22.4734 20.9766 22.4734C20.9766 20.8624 20.9766 19.2514 20.9766 17.5998C21.9506 17.5998 22.9513 17.5862 23.9387 17.5998C24.4056 17.6133 24.8059 18.1007 24.8193 18.6151C24.8193 19.468 24.8193 20.3209 24.8193 21.1738C24.8193 21.3633 24.8193 21.5393 24.8193 21.7153Z" fill="#89BCD9"/>
</svg>
