<svg width="45" height="45" viewBox="0 0 45 45" fill="none" xmlns="http://www.w3.org/2000/svg">
<path d="M44.9181 3.58117C44.5907 1.86221 43.2606 0.470668 41.5621 0.102319C41.4802 0.0818554 41.3984 0.0818554 41.296 0.0613915C41.2756 0.0613915 41.2551 0.0204638 41.2347 0H3.70396C3.68349 0.0204638 3.66303 0.0613915 3.6221 0.0613915C1.9236 0.347885 0.491132 1.6985 0.102319 3.41746C0.0818554 3.47885 0.0409277 3.56071 0 3.64256V41.2756C0.0204638 41.3165 0.0613915 41.337 0.0613915 41.3779C0.470668 43.2606 1.61664 44.427 3.47885 44.8977C3.54025 44.9181 3.58117 44.9591 3.6221 45H41.296C41.337 44.9795 41.3574 44.9386 41.3984 44.9181C43.2606 44.4884 44.4066 43.3629 44.8772 41.5007C44.8977 41.4393 44.8772 41.3574 44.8977 41.296C44.8977 41.2756 44.9386 41.2551 44.9591 41.2347V3.70396C44.9591 3.66303 44.9181 3.64257 44.9181 3.58117ZM26.0914 24.9454H25.8663C24.1678 24.9454 22.4488 24.9454 20.7503 24.9454C20.6685 24.9454 20.5866 24.9454 20.5048 24.9454C20.5048 24.9659 20.4843 24.9659 20.4843 24.9864C20.4843 25.0682 20.4843 25.1501 20.4843 25.2319V41.0096H16.0027V24.9659H10.3752V21.3847H26.0709V24.9454H26.0914ZM41.1937 35.648C41.1528 36.3438 41.0505 37.0191 40.764 37.6739C40.6821 37.8786 40.6207 38.0628 40.5184 38.2674C40.1501 39.045 39.5362 39.5975 38.8199 40.0477C38.0014 40.5593 37.101 40.8458 36.1596 41.03C35.116 41.2347 34.0723 41.296 33.0082 41.2551C32.4966 41.2347 31.985 41.2347 31.4734 41.1733C30.266 41.03 29.0791 40.764 27.9741 40.2319C27.9127 40.2115 27.8308 40.1091 27.8308 40.0477C27.8308 38.7176 27.8308 37.3875 27.8308 36.0573C27.8308 36.0368 27.8308 36.0164 27.8308 35.9754C28.1583 36.2005 28.4857 36.4256 28.8131 36.6098C29.6112 37.0805 30.4911 37.4079 31.3915 37.6126C32.1692 37.7967 32.9468 37.8172 33.7244 37.7763C34.3179 37.7558 34.9113 37.6126 35.4434 37.3465C35.9141 37.101 36.3029 36.7735 36.4052 36.221C36.5075 35.7299 36.4666 35.2387 36.1801 34.809C35.7708 34.1951 35.1978 33.8063 34.5634 33.4789C33.8472 33.131 33.131 32.824 32.3943 32.4966C31.3097 32.0055 30.2456 31.4734 29.3656 30.6548C28.6494 29.9795 28.1173 29.1814 27.8718 28.2196C27.7285 27.6467 27.6876 27.0737 27.708 26.5007C27.7285 25.0887 28.2401 23.8813 29.2428 22.8786C30.0614 22.06 31.0641 21.5689 32.1692 21.2824C32.9263 21.0982 33.6835 20.955 34.4611 20.9345C35.0136 20.9345 35.5662 20.8731 36.0982 20.8936C36.9372 20.9141 37.7558 20.955 38.5744 21.1596C39.1064 21.3029 39.6589 21.4461 40.191 21.5689C40.2933 21.5894 40.3342 21.6508 40.3342 21.7735C40.3342 23.0423 40.3342 24.3315 40.3342 25.6003C40.3342 25.6412 40.3342 25.6821 40.3138 25.7435C40.1501 25.6412 40.0068 25.5593 39.8636 25.4775C39.2087 25.1091 38.513 24.8636 37.7967 24.6794C36.9986 24.4952 36.2005 24.3724 35.382 24.3929C34.8295 24.4134 34.2565 24.4952 33.7449 24.6794C33.1105 24.9045 32.5989 25.2729 32.3738 25.9482C32.1896 26.4802 32.3329 26.9304 32.6603 27.3602C33.0696 27.8922 33.6221 28.2606 34.2156 28.5471C35.0136 28.9359 35.8322 29.2633 36.6098 29.6317C37.5102 30.0614 38.4106 30.4911 39.1678 31.1255C39.8226 31.678 40.4161 32.292 40.7435 33.1105C40.9277 33.6016 41.0914 34.1132 41.0914 34.6658C41.1733 34.9932 41.2142 35.3206 41.1937 35.648Z" fill="#89BCD9"/>
</svg>
