<svg width="30" height="30" viewBox="0 0 30 30" fill="none" xmlns="http://www.w3.org/2000/svg">
<g clip-path="url(#clip0_23538_2708)">
<path d="M15 30C23.2843 30 30 23.2843 30 15C30 6.71573 23.2843 0 15 0C6.71573 0 0 6.71573 0 15C0 23.2843 6.71573 30 15 30Z" fill="#89BCD9"/>
<path fill-rule="evenodd" clip-rule="evenodd" d="M11.2494 21.6617C11.2494 21.1417 11.6694 20.7217 12.1894 20.7217C12.7094 20.7217 13.1294 21.1417 13.1294 21.6617C13.1294 22.1817 12.7094 22.6017 12.1894 22.6017C11.6694 22.6017 11.2494 22.1817 11.2494 21.6617ZM16.8794 27.9917V22.9517C16.8794 21.7717 17.6394 20.7717 18.6894 20.4017C20.6994 19.7217 22.5094 18.0217 22.5094 16.0317V14.1517C22.5094 13.2717 22.1594 12.4517 21.5894 11.7517C21.5794 11.7317 21.5694 11.7217 21.5694 11.7017V9.61174C21.5694 8.58174 20.7294 8.22174 19.6894 8.82174L18.2794 9.63174C18.2794 9.63174 18.2394 9.64174 18.2094 9.63174C17.7594 9.52174 17.3094 9.45174 16.8694 9.45174H13.1194C12.6794 9.45174 12.2294 9.51174 11.7794 9.63174C11.7594 9.63174 11.7294 9.63174 11.7094 9.63174L10.2994 8.82174C9.25938 8.22174 8.41937 8.58174 8.41937 9.61174V11.7017C8.41937 11.7017 8.41937 11.7417 8.39937 11.7517C7.83937 12.4517 7.47937 13.2717 7.47937 14.1517V16.0317C7.47937 17.3917 8.32938 18.6217 9.50938 19.4817C9.74937 19.6517 9.91937 19.9317 9.91937 20.2517C9.91937 20.7717 9.49937 21.1917 8.97937 21.1917C8.71937 21.1917 8.47938 21.0817 8.30938 20.9017C6.72938 19.7017 5.60938 17.9717 5.60938 16.0317V14.1517C5.60938 13.0717 5.95938 12.0617 6.52938 11.1617C6.52938 11.1517 6.53937 11.1317 6.53937 11.1117V8.34174C6.53937 6.27174 8.21937 5.56174 10.2894 6.76174L11.8694 7.67174C11.8694 7.67174 11.9094 7.68174 11.9294 7.68174C12.3194 7.61174 12.7094 7.57174 13.1694 7.57174C13.1694 7.57174 17.9594 7.63174 18.0594 7.71174L19.6694 6.75174C21.7394 5.55174 23.4194 6.26174 23.4194 8.33174V11.1017C23.4194 11.1017 23.4194 11.1317 23.4294 11.1517C24.0094 12.0517 24.3494 13.0617 24.3494 14.1417V16.0217C24.3494 18.8117 22.0494 21.1917 19.3394 22.1417C18.9894 22.2817 18.7394 22.6217 18.7394 23.0217V27.9717M11.0394 27.9917C11.0394 27.6817 11.2494 26.3617 10.6894 26.3517C10.6894 26.3517 10.6894 26.3517 10.6794 26.3517C7.55938 26.2717 7.55937 22.6117 6.55937 22.6117C6.03937 22.6117 5.61937 22.1917 5.61937 21.6717C5.61937 21.1517 6.03937 20.7317 6.55937 20.7317H7.02938C8.90938 20.7317 8.63937 24.4817 11.2494 24.4817C12.2894 24.4817 13.1294 25.3217 13.1294 26.3617V28.0017" fill="#262E34"/>
</g>
<defs>
<clipPath id="clip0_23538_2708">
<rect width="30" height="30" fill="white"/>
</clipPath>
</defs>
</svg>
