<svg width="30" height="30" viewBox="0 0 30 30" fill="none" xmlns="http://www.w3.org/2000/svg">
<g opacity="0.6">
<g clip-path="url(#clip0_2421_1420)">
<path fill-rule="evenodd" clip-rule="evenodd" d="M11.25 21.56C11.25 21.04 11.67 20.62 12.19 20.62C12.71 20.62 13.13 21.04 13.13 21.56C13.13 22.08 12.71 22.5 12.19 22.5C11.67 22.5 11.25 22.08 11.25 21.56ZM20.46 28.96C20.21 29.03 19.96 29.08 19.69 29.08C18.14 29.08 16.88 27.82 16.88 26.27V22.86C16.88 21.68 17.64 20.68 18.69 20.31C20.7 19.63 22.51 17.93 22.51 15.94V14.06C22.51 13.17 22.15 12.34 21.57 11.64V9.52C21.57 8.49 20.73 8.13 19.69 8.73L18.25 9.56C17.79 9.44 17.33 9.37 16.87 9.37H13.12C12.67 9.37 12.2 9.44 11.74 9.56L10.3 8.73C9.26 8.13 8.42 8.49 8.42 9.52V11.64C7.85 12.35 7.48 13.18 7.48 14.06V15.94C7.48 17.3 8.33 18.53 9.51 19.39C9.75 19.56 9.92 19.84 9.92 20.16C9.92 20.68 9.5 21.1 8.98 21.1C8.72 21.1 8.48 20.99 8.31 20.81C6.73 19.61 5.61 17.88 5.61 15.94V14.06C5.61 12.97 5.96 11.95 6.55 11.05V8.26C6.55 6.19 8.23 5.48 10.3 6.68L11.91 7.61C12.31 7.54 12.71 7.5 13.11 7.5H16.86C17.26 7.5 17.66 7.54 18.06 7.61L19.67 6.68C21.74 5.48 23.42 6.19 23.42 8.26V11.05C24 11.95 24.36 12.97 24.36 14.06V15.94C24.36 18.73 22.06 21.11 19.35 22.06C19 22.2 18.75 22.54 18.75 22.94V26.26C18.75 26.78 19.17 27.2 19.69 27.2C19.77 27.2 19.84 27.18 19.91 27.16C24.72 25.22 28.13 20.51 28.13 15C28.13 7.75 22.25 1.88 15.01 1.88C7.77 1.88 1.88 7.75 1.88 15C1.88 20.71 5.53 25.55 10.62 27.36C10.64 27.36 10.67 27.37 10.69 27.37C11 27.37 11.25 27.12 11.25 26.81C11.25 26.5 11 26.25 10.69 26.25C10.69 26.25 10.69 26.25 10.68 26.25C7.56 26.17 7.56 22.51 6.56 22.51C6.04 22.51 5.62 22.09 5.62 21.57C5.62 21.05 6.04 20.63 6.56 20.63H7.03C8.91 20.63 8.64 24.38 11.25 24.38C12.29 24.38 13.13 25.22 13.13 26.26V27.9C13.13 28.81 12.4 29.54 11.49 29.54C11.39 29.54 11.3 29.52 11.21 29.5C4.76 27.81 0 21.97 0 15C0 6.72 6.72 0 15 0C23.28 0 30 6.72 30 15C30 21.35 26.04 26.77 20.46 28.96Z" fill="#262E34"/>
</g>
</g>
<defs>
<clipPath id="clip0_2421_1420">
<rect width="30" height="29.53" fill="white"/>
</clipPath>
</defs>
</svg>
