<svg width="30" height="30" viewBox="0 0 30 30" fill="none" xmlns="http://www.w3.org/2000/svg">
<g clip-path="url(#clip0_23538_2714)">
<path fill-rule="evenodd" clip-rule="evenodd" d="M11.25 21.9031C11.25 21.3749 11.67 20.9482 12.19 20.9482C12.71 20.9482 13.13 21.3749 13.13 21.9031C13.13 22.4314 12.71 22.8581 12.19 22.8581C11.67 22.8581 11.25 22.4314 11.25 21.9031ZM20.46 29.4209C20.21 29.492 19.96 29.5428 19.69 29.5428C18.14 29.5428 16.88 28.2628 16.88 26.6881V23.2238C16.88 22.0251 17.64 21.0091 18.69 20.6333C20.7 19.9424 22.51 18.2154 22.51 16.1937V14.2838C22.51 13.3796 22.15 12.5364 21.57 11.8253V9.67152C21.57 8.62513 20.73 8.2594 19.69 8.86895L18.25 9.71216C17.79 9.59025 17.33 9.51913 16.87 9.51913H13.12C12.67 9.51913 12.2 9.59025 11.74 9.71216L10.3 8.86895C9.26 8.2594 8.42 8.62513 8.42 9.67152V11.8253C7.85 12.5466 7.48 13.3898 7.48 14.2838V16.1937C7.48 17.5753 8.33 18.8249 9.51 19.6986C9.75 19.8713 9.92 20.1558 9.92 20.4809C9.92 21.0091 9.5 21.4358 8.98 21.4358C8.72 21.4358 8.48 21.3241 8.31 21.1412C6.73 19.9221 5.61 18.1646 5.61 16.1937V14.2838C5.61 13.1764 5.96 12.1402 6.55 11.2259V8.39147C6.55 6.28852 8.23 5.56722 10.3 6.78632L11.91 7.73112C12.31 7.66001 12.71 7.61937 13.11 7.61937H16.86C17.26 7.61937 17.66 7.66001 18.06 7.73112L19.67 6.78632C21.74 5.56722 23.42 6.28852 23.42 8.39147V11.2259C24 12.1402 24.36 13.1764 24.36 14.2838V16.1937C24.36 19.0281 22.06 21.446 19.35 22.4111C19 22.5533 18.75 22.8987 18.75 23.3051V26.678C18.75 27.2062 19.17 27.6329 19.69 27.6329C19.77 27.6329 19.84 27.6126 19.91 27.5923C24.72 25.6214 28.13 20.8364 28.13 15.2387C28.13 7.87335 22.25 1.90992 15.01 1.90992C7.77 1.90992 1.88 7.87335 1.88 15.2387C1.88 21.0396 5.53 25.9567 10.62 27.7955C10.64 27.7955 10.67 27.8056 10.69 27.8056C11 27.8056 11.25 27.5516 11.25 27.2367C11.25 26.9218 11 26.6678 10.69 26.6678C10.69 26.6678 10.69 26.6678 10.68 26.6678C7.56 26.5865 7.56 22.8683 6.56 22.8683C6.04 22.8683 5.62 22.4416 5.62 21.9133C5.62 21.385 6.04 20.9583 6.56 20.9583H7.03C8.91 20.9583 8.64 24.768 11.25 24.768C12.29 24.768 13.13 25.6214 13.13 26.678V28.3441C13.13 29.2685 12.4 30.0102 11.49 30.0102C11.39 30.0102 11.3 29.9898 11.21 29.9695C4.76 28.2526 0 22.3197 0 15.2387C0 6.82696 6.72 0 15 0C23.28 0 30 6.82696 30 15.2387C30 21.6898 26.04 27.1961 20.46 29.4209Z" fill="#89BCD9"/>
</g>
<defs>
<clipPath id="clip0_23538_2714">
<rect width="30" height="30" fill="white"/>
</clipPath>
</defs>
</svg>
