<svg width="30" height="30" viewBox="0 0 30 30" fill="none" xmlns="http://www.w3.org/2000/svg">
<g clip-path="url(#clip0_23538_2688)">
<path d="M15 30C23.2843 30 30 23.2843 30 15C30 6.71573 23.2843 0 15 0C6.71573 0 0 6.71573 0 15C0 23.2843 6.71573 30 15 30Z" fill="#F8F5EC"/>
<path fill-rule="evenodd" clip-rule="evenodd" d="M11.2494 21.7985C11.2494 21.2785 11.6694 20.8585 12.1894 20.8585C12.7094 20.8585 13.1294 21.2785 13.1294 21.7985C13.1294 22.3185 12.7094 22.7385 12.1894 22.7385C11.6694 22.7385 11.2494 22.3185 11.2494 21.7985ZM16.8794 28.1285V23.0885C16.8794 21.9085 17.6394 20.9085 18.6894 20.5385C20.6994 19.8585 22.5094 18.1585 22.5094 16.1685V14.2885C22.5094 13.4085 22.1594 12.5885 21.5894 11.8885C21.5794 11.8685 21.5694 11.8585 21.5694 11.8385V9.74846C21.5694 8.71846 20.7294 8.35846 19.6894 8.95846L18.2794 9.76846C18.2794 9.76846 18.2394 9.77846 18.2094 9.76846C17.7594 9.65846 17.3094 9.58846 16.8694 9.58846H13.1194C12.6794 9.58846 12.2294 9.64846 11.7794 9.76846C11.7594 9.76846 11.7294 9.76846 11.7094 9.76846L10.2994 8.95846C9.25938 8.35846 8.41937 8.71846 8.41937 9.74846V11.8385C8.41937 11.8385 8.41937 11.8785 8.39937 11.8885C7.83937 12.5885 7.47937 13.4085 7.47937 14.2885V16.1685C7.47937 17.5285 8.32938 18.7585 9.50938 19.6185C9.74937 19.7885 9.91937 20.0685 9.91937 20.3885C9.91937 20.9085 9.49937 21.3285 8.97937 21.3285C8.71937 21.3285 8.47938 21.2185 8.30938 21.0385C6.72938 19.8385 5.60938 18.1085 5.60938 16.1685V14.2885C5.60938 13.2085 5.95938 12.1985 6.52938 11.2985C6.52938 11.2885 6.53937 11.2685 6.53937 11.2485V8.47846C6.53937 6.40846 8.21937 5.69846 10.2894 6.89846L11.8694 7.80846C11.8694 7.80846 11.9094 7.81846 11.9294 7.81846C12.3194 7.74846 12.7094 7.70846 13.1694 7.70846C13.1694 7.70846 17.9594 7.76846 18.0594 7.84846L19.6694 6.88846C21.7394 5.68846 23.4194 6.39846 23.4194 8.46846V11.2385C23.4194 11.2385 23.4194 11.2685 23.4294 11.2885C24.0094 12.1885 24.3494 13.1985 24.3494 14.2785V16.1585C24.3494 18.9485 22.0494 21.3285 19.3394 22.2785C18.9894 22.4185 18.7394 22.7585 18.7394 23.1585V28.1085M11.0394 28.1285C11.0394 27.8185 11.2494 26.4985 10.6894 26.4885C10.6894 26.4885 10.6894 26.4885 10.6794 26.4885C7.55938 26.4085 7.55937 22.7485 6.55937 22.7485C6.03937 22.7485 5.61937 22.3285 5.61937 21.8085C5.61937 21.2885 6.03937 20.8685 6.55937 20.8685H7.02938C8.90938 20.8685 8.63937 24.6185 11.2494 24.6185C12.2894 24.6185 13.1294 25.4585 13.1294 26.4985V28.1385" fill="#262E34"/>
</g>
<defs>
<clipPath id="clip0_23538_2688">
<rect width="30" height="30" fill="white"/>
</clipPath>
</defs>
</svg>
