<svg version="1.2" xmlns="http://www.w3.org/2000/svg" viewBox="0 0 69 59" width="69" height="59">
	<style>
		.s0 { fill: #89bcd9 } 
		.s1 { fill: none;stroke: #89bcd9;stroke-width: 2 } 
		.s2 { fill: #f8f5ec } 
	</style>
	<g id="Layer 1">
		<path class="s0" d="m24.18 54.69c-2.01-0.27-3.38-2.04-3.05-3.95 0.33-1.91 2.22-3.23 4.24-2.96 2.01 0.28 3.37 2.04 3.05 3.95-0.33 1.91-2.23 3.23-4.24 2.96z"/>
		<path class="s0" d="m42.45 54.69c-2.01-0.27-3.37-2.04-3.04-3.95 0.32-1.91 2.22-3.23 4.23-2.96 2.02 0.28 3.38 2.04 3.05 3.95-0.33 1.91-2.22 3.23-4.24 2.96z"/>
		<path class="s1" d="m27.44 4.19h13.15c0.55 0 1 0.45 1 1v12.48c0 0.55-0.45 1-1 1h-13.15c-0.55 0-1-0.45-1-1v-12.48c0-0.55 0.45-1 1-1z"/>
		<path class="s2" d="m20.09 13.68h27.85c1.1 0 2 0.89 2 2v31.96c0 1.1-0.9 2-2 2h-27.85c-1.11 0-2-0.9-2-2v-31.96c0-1.11 0.89-2 2-2z"/>
	</g>
</svg>