<svg width="73" height="64" viewBox="0 0 73 64" fill="none" xmlns="http://www.w3.org/2000/svg">
<path d="M67.8612 31.4884C74.0495 43.3529 64.7516 56.686 49.2288 58.7086C33.706 60.7311 13.6554 53.5207 11.1815 38.8736C8.91546 25.4571 18.6304 14.1185 28.3103 12.8572C43.8331 10.8346 60.1143 16.6357 67.8612 31.4884Z" fill="#89BCD9" fill-opacity="0.12"/>
<path d="M29.9688 30.0312H56.4424C57.1327 30.0312 57.6924 30.5909 57.6924 31.2812V48.3193H28.7188V31.2812C28.7188 30.5909 29.2784 30.0312 29.9688 30.0312Z" fill="#89BCD9" stroke="#F8F5EC" stroke-width="1.5"/>
<path d="M24.5938 50.6367H61.6846V52.1326C61.6846 53.7894 60.3414 55.1326 58.6846 55.1326H27.5938C25.9369 55.1326 24.5938 53.7894 24.5938 52.1326V50.6367Z" fill="#F8F5EC"/>
<rect x="40.3281" y="51.7617" width="6.74379" height="1.12396" rx="0.561982" fill="#140754"/>
<path d="M31.0907 10.6575C18.2941 9.39372 9.59074 17.6574 9.59061 30.1574" stroke="#89BCD9" stroke-width="2" stroke-linecap="round"/>
<path d="M30.5914 21.6607C24.0914 20.6607 21.5915 24.1607 20.8171 30.1753" stroke="#89BCD9" stroke-width="2" stroke-linecap="round"/>
<path d="M31.0977 16.159C21.0344 15.1932 15.3397 21.162 14.9362 30.0389" stroke="#89BCD9" stroke-width="2" stroke-linecap="round"/>
</svg>
