<svg width="54" height="100" viewBox="0 0 54 100" fill="none" xmlns="http://www.w3.org/2000/svg">
<path d="M0.00479286 8.01057C0.00479286 8.24317 -0.00599108 8.40176 0.00479286 8.56035C0.414583 12.9585 0.824373 17.3567 1.22338 21.7655C1.78414 28.0033 2.33412 34.2411 2.89489 40.4684C3.53114 47.4674 4.17818 54.4559 4.79286 61.4549C4.836 61.9624 5.01933 62.1844 5.5046 62.3113C12.4063 64.1721 19.2865 66.0434 26.1882 67.8936C26.6519 68.0205 27.2127 68.0416 27.6764 67.9148C34.5997 66.054 41.5122 64.1615 48.4355 62.2902C48.9639 62.1421 49.1472 61.9095 49.1904 61.3809C49.406 58.7378 49.6649 56.0841 49.9021 53.4409C50.3011 49.0639 50.6893 44.6868 51.0883 40.3098C51.552 35.1715 52.0265 30.0438 52.4902 24.9055C52.8353 21.0783 53.202 17.2616 53.5471 13.4343C53.7088 11.637 53.849 9.83963 54 8H0.00479286V8.01057ZM43.5827 23.2774C43.2268 27.1469 42.871 31.0271 42.5151 34.8966C42.1053 39.3477 41.6955 43.7987 41.2857 48.2392C41.1671 49.5185 40.9946 50.7978 40.9622 52.0876C40.9406 52.7748 40.6387 52.9546 40.0564 53.1132C35.8938 54.2127 31.7419 55.344 27.5901 56.4647C27.4068 56.5175 27.2343 56.581 27.0509 56.6338C26.9862 56.6021 26.9215 56.581 26.846 56.5492C22.403 55.3651 17.9601 54.1704 13.5171 52.9651C13.3337 52.9123 13.0965 52.6268 13.0749 52.4259C12.7622 49.1273 12.4818 45.8287 12.1799 42.4666H18.963C19.0816 43.7882 19.211 45.1309 19.3188 46.4842C19.4159 47.7317 19.4051 47.7317 20.6021 48.0489C22.7481 48.6092 24.9049 49.159 27.0509 49.7088L27.0294 49.6559C29.3803 49.0427 31.7312 48.4401 34.0821 47.7846C34.2977 47.7212 34.5458 47.3828 34.5781 47.1502C34.7183 46.1353 34.7938 45.1097 34.8801 44.0948C35.0203 42.456 35.1604 40.8173 35.3114 39.1045H27.0294L27.0509 39.0622C26.997 39.0622 26.9323 39.0622 26.8784 39.0622H11.8671C11.6622 36.8737 11.4681 34.7063 11.2632 32.4755H26.8892C26.9431 32.4755 27.0078 32.4755 27.0617 32.4755L27.0401 32.4332H35.9153C36.1202 30.1601 36.3251 27.9399 36.53 25.6773H27.0294L27.0509 25.635C26.997 25.635 26.9323 25.635 26.8784 25.635C21.5619 25.6456 16.2454 25.6456 10.9289 25.6562C10.8534 25.6562 10.778 25.6245 10.6378 25.5822C10.4436 23.4254 10.2388 21.2686 10.0446 19.0483H26.8784C26.9323 19.0483 26.997 19.0483 27.0509 19.0483L27.0294 19.006H43.9386C43.82 20.4862 43.7013 21.8818 43.5827 23.2774Z" fill="#89BCD9"/>
<path d="M21.43 93.028C21.214 93.172 20.92 93.334 20.548 93.514C20.176 93.694 19.738 93.844 19.234 93.964C18.742 94.084 18.202 94.144 17.614 94.144C16.606 94.132 15.694 93.952 14.878 93.604C14.074 93.256 13.39 92.782 12.826 92.182C12.262 91.582 11.824 90.892 11.512 90.112C11.212 89.32 11.062 88.48 11.062 87.592C11.062 86.62 11.218 85.726 11.53 84.91C11.854 84.082 12.304 83.368 12.88 82.768C13.456 82.156 14.134 81.682 14.914 81.346C15.706 81.01 16.57 80.842 17.506 80.842C18.286 80.842 18.994 80.95 19.63 81.166C20.266 81.37 20.812 81.616 21.268 81.904L20.566 83.524C20.206 83.284 19.768 83.056 19.252 82.84C18.748 82.624 18.184 82.516 17.56 82.516C16.924 82.516 16.324 82.642 15.76 82.894C15.196 83.146 14.698 83.5 14.266 83.956C13.834 84.412 13.492 84.946 13.24 85.558C13 86.158 12.88 86.806 12.88 87.502C12.88 88.21 12.988 88.87 13.204 89.482C13.432 90.082 13.75 90.604 14.158 91.048C14.578 91.492 15.082 91.84 15.67 92.092C16.258 92.344 16.918 92.47 17.65 92.47C18.31 92.47 18.898 92.368 19.414 92.164C19.93 91.96 20.356 91.732 20.692 91.48L21.43 93.028ZM31.102 83.308C30.658 83.08 30.172 82.882 29.644 82.714C29.116 82.546 28.6 82.462 28.096 82.462C27.4 82.462 26.842 82.624 26.422 82.948C26.014 83.272 25.81 83.704 25.81 84.244C25.81 84.652 25.942 85 26.206 85.288C26.47 85.564 26.818 85.804 27.25 86.008C27.682 86.212 28.132 86.404 28.6 86.584C29.008 86.74 29.41 86.914 29.806 87.106C30.202 87.298 30.556 87.538 30.868 87.826C31.192 88.114 31.444 88.468 31.624 88.888C31.816 89.308 31.912 89.83 31.912 90.454C31.912 91.138 31.738 91.762 31.39 92.326C31.054 92.89 30.568 93.334 29.932 93.658C29.296 93.982 28.54 94.144 27.664 94.144C27.088 94.144 26.536 94.078 26.008 93.946C25.492 93.814 25.012 93.646 24.568 93.442C24.124 93.226 23.728 93.004 23.38 92.776L24.154 91.408C24.442 91.612 24.772 91.81 25.144 92.002C25.516 92.182 25.906 92.332 26.314 92.452C26.722 92.56 27.118 92.614 27.502 92.614C27.91 92.614 28.312 92.542 28.708 92.398C29.116 92.242 29.452 92.008 29.716 91.696C29.98 91.384 30.112 90.97 30.112 90.454C30.112 90.01 29.992 89.644 29.752 89.356C29.524 89.056 29.218 88.804 28.834 88.6C28.45 88.384 28.042 88.192 27.61 88.024C27.202 87.868 26.788 87.7 26.368 87.52C25.948 87.328 25.558 87.1 25.198 86.836C24.838 86.56 24.55 86.224 24.334 85.828C24.118 85.432 24.01 84.952 24.01 84.388C24.01 83.704 24.172 83.11 24.496 82.606C24.832 82.09 25.288 81.688 25.864 81.4C26.44 81.1 27.1 80.938 27.844 80.914C28.684 80.914 29.422 81.016 30.058 81.22C30.706 81.424 31.276 81.676 31.768 81.976L31.102 83.308ZM41.5786 83.308C41.1346 83.08 40.6486 82.882 40.1206 82.714C39.5926 82.546 39.0766 82.462 38.5726 82.462C37.8766 82.462 37.3186 82.624 36.8986 82.948C36.4906 83.272 36.2866 83.704 36.2866 84.244C36.2866 84.652 36.4186 85 36.6826 85.288C36.9466 85.564 37.2946 85.804 37.7266 86.008C38.1586 86.212 38.6086 86.404 39.0766 86.584C39.4846 86.74 39.8866 86.914 40.2826 87.106C40.6786 87.298 41.0326 87.538 41.3446 87.826C41.6686 88.114 41.9206 88.468 42.1006 88.888C42.2926 89.308 42.3886 89.83 42.3886 90.454C42.3886 91.138 42.2146 91.762 41.8666 92.326C41.5306 92.89 41.0446 93.334 40.4086 93.658C39.7726 93.982 39.0166 94.144 38.1406 94.144C37.5646 94.144 37.0126 94.078 36.4846 93.946C35.9686 93.814 35.4886 93.646 35.0446 93.442C34.6006 93.226 34.2046 93.004 33.8566 92.776L34.6306 91.408C34.9186 91.612 35.2486 91.81 35.6206 92.002C35.9926 92.182 36.3826 92.332 36.7906 92.452C37.1986 92.56 37.5946 92.614 37.9786 92.614C38.3866 92.614 38.7886 92.542 39.1846 92.398C39.5926 92.242 39.9286 92.008 40.1926 91.696C40.4566 91.384 40.5886 90.97 40.5886 90.454C40.5886 90.01 40.4686 89.644 40.2286 89.356C40.0006 89.056 39.6946 88.804 39.3106 88.6C38.9266 88.384 38.5186 88.192 38.0866 88.024C37.6786 87.868 37.2646 87.7 36.8446 87.52C36.4246 87.328 36.0346 87.1 35.6746 86.836C35.3146 86.56 35.0266 86.224 34.8106 85.828C34.5946 85.432 34.4866 84.952 34.4866 84.388C34.4866 83.704 34.6486 83.11 34.9726 82.606C35.3086 82.09 35.7646 81.688 36.3406 81.4C36.9166 81.1 37.5766 80.938 38.3206 80.914C39.1606 80.914 39.8986 81.016 40.5346 81.22C41.1826 81.424 41.7526 81.676 42.2446 81.976L41.5786 83.308Z" fill="#89BCD9"/>
</svg>
