<svg width="60" height="100" viewBox="0 0 60 100" fill="none" xmlns="http://www.w3.org/2000/svg">
<path d="M58.8744 35.3573L32.6427 9.12561C31.1419 7.6248 28.6623 7.6248 27.1615 9.12561L21.7455 14.5416L28.6623 21.4584C30.2936 20.9364 32.1207 21.2626 33.3605 22.5677C34.6656 23.8728 34.9918 25.6998 34.4698 27.3312L41.1256 33.9869C42.7569 33.4649 44.584 33.7912 45.8891 35.0962C47.7162 36.8581 47.7162 39.7945 45.8891 41.6215C44.062 43.4486 41.1909 43.4486 39.3638 41.6215C37.9935 40.2512 37.6672 38.2936 38.385 36.5971L32.186 30.398V46.7113C32.6427 46.907 33.0343 47.2333 33.4258 47.5595C35.2529 49.3214 35.2529 52.2577 33.4258 54.0848C31.5987 55.8467 28.7276 55.8467 26.9005 54.0848C25.0734 52.2577 25.0734 49.3866 26.9005 47.5595C27.3573 47.1028 27.8793 46.7765 28.4013 46.5807V30.0718C27.8793 29.876 27.3573 29.4845 26.9005 29.093C25.5302 27.7227 25.2039 25.7651 25.9217 24.0685L19.0701 17.2822L1.12561 35.2268C-0.375204 36.7276 -0.375204 39.2072 1.12561 40.708L27.292 66.8744C28.7928 68.3752 31.2724 68.3752 32.7733 66.8744L58.8091 40.8385C60.3752 39.2724 60.3752 36.8581 58.8744 35.3573Z" fill="#89BCD9"/>
<path d="M27.0522 92.884C26.8722 93.04 26.6202 93.196 26.2962 93.352C25.9722 93.496 25.6122 93.628 25.2162 93.748C24.8322 93.868 24.4302 93.964 24.0102 94.036C23.6022 94.108 23.2182 94.144 22.8582 94.144C21.8142 94.144 20.8722 93.982 20.0322 93.658C19.2042 93.334 18.4902 92.884 17.8902 92.308C17.3022 91.732 16.8462 91.054 16.5222 90.274C16.2102 89.494 16.0542 88.648 16.0542 87.736C16.0542 86.656 16.2282 85.69 16.5762 84.838C16.9362 83.974 17.4222 83.248 18.0342 82.66C18.6582 82.06 19.3722 81.61 20.1762 81.31C20.9802 80.998 21.8322 80.842 22.7322 80.842C23.4882 80.842 24.1902 80.932 24.8382 81.112C25.4862 81.292 26.0562 81.52 26.5482 81.796L25.9542 83.398C25.7142 83.254 25.4142 83.122 25.0542 83.002C24.7062 82.882 24.3462 82.786 23.9742 82.714C23.6022 82.63 23.2542 82.588 22.9302 82.588C22.1622 82.588 21.4662 82.708 20.8422 82.948C20.2182 83.176 19.6842 83.512 19.2402 83.956C18.7962 84.388 18.4542 84.916 18.2142 85.54C17.9742 86.152 17.8542 86.842 17.8542 87.61C17.8542 88.318 17.9742 88.966 18.2142 89.554C18.4542 90.142 18.7962 90.652 19.2402 91.084C19.6842 91.504 20.2122 91.834 20.8242 92.074C21.4482 92.302 22.1322 92.416 22.8762 92.416C23.3202 92.416 23.7582 92.374 24.1902 92.29C24.6222 92.194 24.9942 92.062 25.3062 91.894V89.302H22.7142V87.628H27.0522V92.884ZM30.3818 80.986H32.1278V94H30.3818V80.986ZM34.9121 80.986H43.5521V82.66H40.0601V94H38.3141V82.66H34.9121V80.986Z" fill="#89BCD9"/>
</svg>
