<svg width="54" height="100" viewBox="0 0 54 100" fill="none" xmlns="http://www.w3.org/2000/svg">
<path d="M27 56.534L40.86 52.766L42.729 32.432H18.078L17.466 25.67H43.344L44.025 19.037H9.975L11.883 39.071H35.343L34.56 47.669L27 49.67L19.44 47.669L18.966 42.137H12.156L13.143 52.769L27 56.534ZM0 8H54L49.131 62L27 68L4.869 62L0 8Z" fill="#89BCD9"/>
<path d="M12.668 80.986V94H10.94V88.294H4.118V94H2.372V80.986H4.118V86.638H10.94V80.986H12.668ZM15.4629 80.986H24.1029V82.66H20.6109V94H18.8649V82.66H15.4629V80.986ZM26.8759 94V80.572H26.8939L33.7159 90.256L32.9779 90.112L39.7819 80.572H39.8179V94H38.0899V84.532L38.1979 85.414L33.2839 92.362H33.2479L28.2619 85.414L28.5679 84.604V94H26.8759ZM43.5575 80.986H45.3035V92.326H51.9095V94H43.5575V80.986Z" fill="#89BCD9"/>
</svg>
