<svg width="69" height="100" viewBox="0 0 69 100" fill="none" xmlns="http://www.w3.org/2000/svg">
<path d="M27.3141 62.8917C23.3199 61.7545 19.8072 59.6607 16.7403 56.7365C15.7774 57.0794 14.7967 57.4224 13.7982 57.7473C13.3346 57.8917 12.8709 57.8375 12.3895 57.657C11.5336 57.3321 11.0165 56.7004 10.6421 55.9242C10.125 54.8953 9.46522 53.9567 8.94812 52.9278C8.48451 51.9711 7.80693 51.1408 7.41465 50.148C7.21851 49.6607 6.70141 49.3357 6.70141 48.722C6.2378 47.9639 6.68358 47.296 6.95104 46.6282C7.02237 46.4477 7.11152 46.213 7.272 46.1408C7.91392 45.852 8.23488 45.2022 8.76981 44.8051C9.01944 44.6245 9.28691 44.426 9.5722 44.2094C9.16209 42.1336 8.80547 40.0578 8.80547 37.9278C8.80547 35.8159 9.17992 33.7762 9.5722 31.7545C8.87679 31.1047 8.23488 30.4729 7.5573 29.8773C6.86189 29.2635 6.45177 28.5054 6.54093 27.7112C6.59442 27.278 6.71924 26.8087 6.93321 26.4477C7.59296 25.3827 8.19921 24.2635 8.84113 23.1805C9.35823 22.3141 9.80401 21.4116 10.3746 20.5632C10.6777 20.13 10.856 19.6245 11.1592 19.1733C11.7476 18.3249 12.9244 17.9097 13.8873 18.1986C14.7432 18.4513 15.5456 18.8303 16.4193 18.9928C16.5085 19.0108 16.5798 19.1372 16.669 19.2274C19.7537 16.3213 23.2664 14.2455 27.2963 13.0361C27.4567 12.5487 27.4924 12.0253 27.6885 11.5199C27.8312 11.1408 27.7955 10.6715 27.8669 10.2563C28.063 9.17329 28.7227 8.54152 29.6678 8.21661C30.0066 8.1083 30.3454 8 30.7555 8C33.2518 8.0361 35.7482 8.0361 38.2445 8C38.9578 8 39.564 8.28881 40.1346 8.61372C40.6517 8.88448 40.937 9.46209 41.0797 10.0036C41.3293 10.9964 41.4719 12.0072 41.6681 13.0542C45.6801 14.2094 49.1928 16.2852 52.2597 19.2094C53.2226 18.8664 54.2033 18.5235 55.2018 18.1986C55.6654 18.0542 56.1291 18.1083 56.6105 18.2888C57.4664 18.6137 57.9835 19.2455 58.3579 20.0217C58.875 21.0505 59.5348 21.9892 60.0519 23.0181C60.5155 23.9747 61.1931 24.8051 61.5854 25.7978C61.7815 26.2852 62.2986 26.6101 62.2986 27.2238C62.7622 27.982 62.3164 28.6498 62.049 29.3177C61.9776 29.4982 61.8885 29.7329 61.728 29.8051C61.0861 30.0939 60.7651 30.7437 60.2302 31.1408C59.9806 31.3213 59.7131 31.5199 59.4278 31.7365C59.8379 33.8123 60.1945 35.8881 60.1945 38.018C60.1945 40.13 59.8736 42.1697 59.4278 44.1913C60.1232 44.8412 60.7651 45.4729 61.4427 46.0686C62.1381 46.6823 62.5482 47.4404 62.4591 48.2347C62.4056 48.6679 62.2986 49.1372 62.0668 49.4982C61.4249 50.5451 60.8186 51.6282 60.1945 52.6931C59.41 54.0108 58.768 55.4368 57.8587 56.6823C57.6982 57.3682 57.0563 57.4224 56.5927 57.6751C56.0934 57.9458 55.5941 57.8736 55.0414 57.7112C54.2211 57.4765 53.4366 57.0614 52.5807 56.9531C52.4915 56.935 52.4202 56.8087 52.331 56.7184C49.2463 59.6607 45.7514 61.7545 41.6681 62.9278C41.4719 63.9025 41.2936 64.9134 41.0797 65.9061C40.8657 66.8809 40.2238 67.4946 39.3144 67.7834C38.9756 67.8917 38.619 68 38.2267 68C35.7303 67.9639 33.234 67.9639 30.7377 68C30.0244 68 29.4182 67.7112 28.8476 67.3863C28.3305 67.1155 28.0273 66.5379 27.9203 65.9964C27.7242 64.9314 27.5281 63.9386 27.3141 62.8917ZM28.4731 46.9892C28.8297 46.7906 29.2398 46.6643 29.2577 46.231C29.2933 45.5812 29.3825 44.9134 29.2398 44.2996C28.9902 43.2527 28.5444 42.2419 28.277 41.1949C28.0987 40.5271 27.7064 39.8953 27.7242 39.1733C27.1536 37.7473 26.797 36.2491 26.3156 34.8051C25.9233 33.6137 25.638 32.3863 25.21 31.213C24.9782 30.5632 24.9247 29.8412 24.4968 29.2635C24.4611 29.2094 24.4433 29.1733 24.4433 29.1733C23.9619 28.8484 23.4626 28.9567 23.0346 28.9567C22.785 29.1913 22.571 29.3899 22.3749 29.5704C22.3571 30.148 21.9469 30.5993 22.0183 31.1588C21.3942 32.5668 21.1267 34.083 20.6096 35.5271C20.3422 36.2671 20.1817 37.0253 19.9677 37.7834C19.7716 38.5415 19.3436 39.2274 19.3436 40.0397C18.666 41.574 18.3272 43.2166 17.828 44.8231C17.7032 45.2202 17.6318 45.5993 17.8815 45.9783C17.9528 46.0866 17.9171 46.2491 17.9171 46.231C18.2024 46.5379 18.4164 46.7545 18.5947 46.9711C18.9335 46.9711 19.2901 46.9711 19.6646 46.9711C19.9142 46.6462 20.1638 46.3394 20.3956 46.0325C20.3422 45.0036 20.5561 44.3177 21.0197 43.2166C22.7672 43.2166 24.5146 43.2166 26.2621 43.2166C26.4047 43.7942 26.476 44.3538 26.6722 44.8773C26.7613 45.0939 26.8505 45.3105 26.8148 45.5271C26.7613 46.1949 26.9753 46.7184 27.7242 46.9711C27.9025 46.9892 28.17 46.9892 28.4731 46.9892ZM32.6456 46.9892C33.127 46.9531 33.6798 47.0975 34.0721 46.7004C34.2147 46.5199 34.3395 46.3394 34.5178 46.0866C34.5178 44.2816 34.5178 42.3863 34.5178 40.491C35.8195 40.491 37.1033 40.4368 38.3693 40.509C39.1361 40.5451 39.7602 40.3105 40.3664 39.9314C40.6517 39.7509 40.9013 39.4801 41.151 39.2274C41.8107 38.5776 42.1317 37.7834 42.1495 36.8448C42.1495 35.3646 42.1495 33.9025 42.1495 32.4224C42.1495 32.2058 42.096 31.9711 42.0425 31.7545C41.8464 30.9783 41.4363 30.4007 40.8835 29.8953C40.2416 29.2996 39.4927 28.9386 38.6011 28.9386C36.6041 28.9386 34.6248 28.9386 32.6099 28.9386C32.4138 29.1552 32.2176 29.3718 31.9858 29.5884C31.9858 35.148 31.9858 40.7437 31.9858 46.3574C32.2176 46.556 32.4316 46.7726 32.6456 46.9892ZM45.4839 46.9892C46.7143 46.9892 47.9624 46.9892 49.1928 46.9892C49.4067 46.7726 49.6207 46.556 49.8347 46.3574C49.8347 46.0144 49.8347 45.6895 49.8347 45.3466C49.8347 45.3105 49.8347 45.2924 49.8347 45.2744C49.5672 44.769 49.1571 44.4621 48.6222 44.4079C48.6222 40.0939 48.6222 35.7978 48.6222 31.5921C49.0145 31.3935 49.3533 31.213 49.7455 30.9964C49.799 30.5271 49.8347 30.0397 49.8704 29.6968C49.5851 29.3718 49.3889 29.1372 49.2284 28.9567C47.9446 28.9567 46.6964 28.9567 45.5909 28.9567C45.2878 29.2274 45.0738 29.426 44.8063 29.6787C44.8598 30.1119 44.9312 30.5993 44.9847 31.0144C45.4126 31.231 45.7514 31.4116 46.0545 31.574C46.0545 35.87 46.0545 40.1661 46.0545 44.426C45.8762 44.4621 45.6801 44.426 45.6087 44.5162C45.3591 44.769 44.9312 44.8412 44.842 45.2563C44.842 45.6173 44.842 45.9783 44.842 46.3394C45.056 46.556 45.2699 46.7726 45.4839 46.9892Z" fill="#89BCD9"/>
<path d="M25.3186 40.4559C24.2666 40.492 23.161 40.51 22.0555 40.5461C22.0199 40.5461 21.9664 40.6183 21.8594 40.7086C21.8772 39.5894 22.5013 38.6869 22.5726 37.658C23.1075 36.7555 23.161 35.6905 23.5177 34.6797C23.6246 34.788 23.7851 34.8963 23.7851 34.9865C23.803 35.7627 24.2487 36.4306 24.3914 37.1707C24.4984 37.6761 24.7837 38.1634 24.855 38.6689C24.9263 39.3187 25.3543 39.806 25.3186 40.4559Z" fill="#89BCD9"/>
<path d="M39.6744 36.9524C39.5496 37.151 39.4426 37.3495 39.2999 37.53C39.0503 37.8188 38.7294 37.9813 38.3192 37.9632C37.0711 37.9452 35.8229 37.9632 34.5391 37.9632C34.5391 35.8152 34.5391 33.6672 34.5391 31.4651C35.8407 31.4651 37.1781 31.447 38.4976 31.4651C39.1216 31.4831 39.6566 32.1329 39.6744 32.8188C39.6744 33.956 39.6744 35.0932 39.6744 36.2304C39.6744 36.4831 39.6744 36.7178 39.6744 36.9524Z" fill="#89BCD9"/>
<path d="M5.328 80.986C5.988 80.986 6.594 81.076 7.146 81.256C7.71 81.424 8.196 81.682 8.604 82.03C9.024 82.366 9.348 82.786 9.576 83.29C9.816 83.782 9.936 84.358 9.936 85.018C9.936 85.534 9.858 86.038 9.702 86.53C9.558 87.022 9.312 87.472 8.964 87.88C8.616 88.276 8.16 88.6 7.596 88.852C7.044 89.092 6.36 89.212 5.544 89.212H3.618V94H1.872V80.986H5.328ZM5.508 87.538C6.024 87.538 6.45 87.46 6.786 87.304C7.134 87.148 7.404 86.95 7.596 86.71C7.788 86.458 7.926 86.188 8.01 85.9C8.094 85.612 8.136 85.342 8.136 85.09C8.136 84.826 8.088 84.556 7.992 84.28C7.908 83.992 7.764 83.728 7.56 83.488C7.368 83.248 7.11 83.05 6.786 82.894C6.474 82.738 6.09 82.66 5.634 82.66H3.618V87.538H5.508ZM7.65 88.528L11.052 94H9.036L5.58 88.582L7.65 88.528ZM16.5507 94.18C15.6987 94.18 14.9667 94.012 14.3547 93.676C13.7427 93.328 13.2687 92.86 12.9327 92.272C12.6087 91.672 12.4467 90.988 12.4467 90.22C12.4467 89.488 12.6327 88.822 13.0047 88.222C13.3767 87.622 13.8747 87.142 14.4987 86.782C15.1227 86.422 15.8187 86.242 16.5867 86.242C17.5707 86.242 18.3867 86.53 19.0347 87.106C19.6827 87.682 20.1207 88.474 20.3487 89.482L14.2107 91.642L13.8147 90.652L18.8547 88.816L18.4947 89.05C18.3507 88.654 18.1107 88.312 17.7747 88.024C17.4387 87.724 17.0007 87.574 16.4607 87.574C16.0047 87.574 15.5967 87.688 15.2367 87.916C14.8767 88.132 14.5947 88.432 14.3907 88.816C14.1867 89.2 14.0847 89.638 14.0847 90.13C14.0847 90.646 14.1927 91.102 14.4087 91.498C14.6247 91.882 14.9187 92.188 15.2907 92.416C15.6747 92.632 16.1067 92.74 16.5867 92.74C16.9107 92.74 17.2227 92.68 17.5227 92.56C17.8347 92.44 18.1227 92.284 18.3867 92.092L19.1607 93.334C18.7887 93.586 18.3687 93.79 17.9007 93.946C17.4447 94.102 16.9947 94.18 16.5507 94.18ZM24.5343 94.144C24.0063 94.144 23.4903 94.054 22.9863 93.874C22.4943 93.682 22.0863 93.4 21.7623 93.028L22.4643 92.056C22.7763 92.356 23.0943 92.584 23.4183 92.74C23.7543 92.884 24.0843 92.956 24.4083 92.956C24.6483 92.956 24.8703 92.926 25.0743 92.866C25.2783 92.806 25.4403 92.71 25.5603 92.578C25.6923 92.434 25.7583 92.242 25.7583 92.002C25.7583 91.738 25.6683 91.528 25.4883 91.372C25.3203 91.216 25.0983 91.09 24.8223 90.994C24.5583 90.898 24.2763 90.808 23.9763 90.724C23.3643 90.52 22.8963 90.238 22.5723 89.878C22.2483 89.518 22.0863 89.08 22.0863 88.564C22.0863 88.168 22.1823 87.802 22.3743 87.466C22.5783 87.118 22.8723 86.836 23.2563 86.62C23.6523 86.404 24.1383 86.296 24.7143 86.296C25.2303 86.296 25.6923 86.362 26.1003 86.494C26.5083 86.614 26.8923 86.818 27.2523 87.106L26.5863 88.15C26.3703 87.922 26.1123 87.754 25.8123 87.646C25.5123 87.538 25.2423 87.478 25.0023 87.466C24.7983 87.454 24.6003 87.484 24.4083 87.556C24.2283 87.628 24.0783 87.73 23.9583 87.862C23.8383 87.994 23.7783 88.15 23.7783 88.33C23.7783 88.582 23.8623 88.786 24.0303 88.942C24.1983 89.098 24.4143 89.224 24.6783 89.32C24.9543 89.404 25.2243 89.494 25.4883 89.59C25.8603 89.698 26.1903 89.842 26.4783 90.022C26.7663 90.202 26.9943 90.424 27.1623 90.688C27.3423 90.952 27.4323 91.282 27.4323 91.678C27.4323 92.122 27.3243 92.536 27.1083 92.92C26.9043 93.292 26.5863 93.592 26.1543 93.82C25.7343 94.036 25.1943 94.144 24.5343 94.144ZM30.4964 83.272H32.1704V86.584H34.2224V87.898H32.1704V94H30.4964V87.898H29.1284V86.584H30.4964V83.272ZM35.7411 89.392H39.1071V90.868H35.7411V89.392ZM40.8299 94L46.5179 80.446H46.6259L52.2959 94H50.2979L46.0499 83.182L47.2919 82.372L42.5399 94H40.8299ZM44.1599 89.068H49.0019L49.5779 90.58H43.6559L44.1599 89.068ZM58.725 94.18C58.161 94.18 57.615 94.048 57.087 93.784C56.571 93.52 56.169 93.166 55.881 92.722L55.989 92.2V97.582H54.333V86.44H55.773L56.007 88.348L55.827 87.826C56.187 87.37 56.643 86.992 57.195 86.692C57.747 86.392 58.365 86.242 59.049 86.242C59.745 86.242 60.369 86.41 60.921 86.746C61.485 87.082 61.929 87.55 62.253 88.15C62.577 88.75 62.739 89.452 62.739 90.256C62.739 91.06 62.565 91.756 62.217 92.344C61.869 92.932 61.389 93.388 60.777 93.712C60.177 94.024 59.493 94.18 58.725 94.18ZM58.401 92.848C58.881 92.848 59.319 92.74 59.715 92.524C60.123 92.296 60.447 91.99 60.687 91.606C60.927 91.21 61.047 90.766 61.047 90.274C61.047 89.77 60.933 89.326 60.705 88.942C60.477 88.546 60.171 88.234 59.787 88.006C59.415 87.778 58.995 87.664 58.527 87.664C58.095 87.664 57.705 87.748 57.357 87.916C57.009 88.084 56.721 88.318 56.493 88.618C56.265 88.906 56.103 89.242 56.007 89.626V90.868C56.067 91.252 56.211 91.594 56.439 91.894C56.667 92.194 56.949 92.428 57.285 92.596C57.633 92.764 58.005 92.848 58.401 92.848ZM65.0029 86.548H66.6769V94H65.0029V86.548ZM64.8769 83.848C64.8769 83.584 64.9789 83.362 65.1829 83.182C65.3989 83.002 65.6329 82.912 65.8849 82.912C66.1369 82.912 66.3589 83.002 66.5509 83.182C66.7549 83.362 66.8569 83.584 66.8569 83.848C66.8569 84.124 66.7549 84.352 66.5509 84.532C66.3589 84.7 66.1369 84.784 65.8849 84.784C65.6329 84.784 65.3989 84.694 65.1829 84.514C64.9789 84.334 64.8769 84.112 64.8769 83.848Z" fill="#89BCD9"/>
</svg>
