<svg width="27" height="31" viewBox="0 0 27 31" fill="none" xmlns="http://www.w3.org/2000/svg">
<path d="M8.18457 4.86719C8.19003 4.87091 8.20013 4.87758 8.21289 4.89258C8.25249 4.93924 8.29688 5.0304 8.29688 5.15625C8.29688 6.85315 8.52699 8.48622 8.9541 10.0146V10.0156C9.00002 10.1878 8.95463 10.3432 8.88477 10.4258L6.47852 13.2617L6.07617 13.7354L6.32227 14.3057C7.97227 18.1273 10.6423 21.2735 13.9316 23.2598L14.6602 23.7002L15.2109 23.0508L17.6172 20.2148C17.6232 20.2078 17.6294 20.2032 17.6338 20.1992C18.9591 20.7117 20.3894 20.9898 21.8564 20.9922C21.8618 20.9957 21.8722 21.0027 21.8857 21.0186C21.9253 21.0652 21.9697 21.1565 21.9697 21.2822V25.7812C21.9697 25.9071 21.9253 25.9983 21.8857 26.0449C21.873 26.0599 21.862 26.0655 21.8564 26.0693C12.2943 26.0571 4.28125 16.8608 4.28125 5.15625C4.28125 5.0304 4.32564 4.93924 4.36523 4.89258C4.37794 4.87764 4.38807 4.87095 4.39355 4.86719H8.18457Z" stroke="#F8F5EC" stroke-width="2"/>
</svg>
