<svg width="75" height="64" viewBox="0 0 75 64" fill="none" xmlns="http://www.w3.org/2000/svg">
<path d="M68.4116 37.1732C70.9376 51.3942 56.3441 61.6857 38.9934 58.3061C21.6428 54.9265 2.63535 40.5807 5.05772 24.8328C7.27656 10.408 21.6262 2.28895 32.4459 4.39646C49.7965 7.7761 65.2495 19.3702 68.4116 37.1732Z" fill="#89BCD9" fill-opacity="0.12"/>
<path d="M18.875 17.0423C18.875 25.2266 28.2127 35.1965 35.5924 41C42.0685 35.6429 51.4814 27.0866 52.1592 17.0423C52.671 9.45643 46.2102 -0.219418 35.5924 0.00379216C22.8661 0.271327 18.875 10.2715 18.875 17.0423Z" fill="#F8F5EC"/>
<path d="M39.4069 15.1473C39.3392 17.3487 37.5837 19.0823 35.4859 19.0194C33.3881 18.9565 31.7423 17.1208 31.8101 14.9194C31.8778 12.718 33.6334 10.9843 35.7312 11.0473C37.829 11.1102 39.4747 12.9458 39.4069 15.1473Z" fill="#89BCD9"/>
</svg>
