<svg width="66" height="100" viewBox="0 0 66 100" fill="none" xmlns="http://www.w3.org/2000/svg">
<path d="M33.0016 8L60.9016 17.96L56.6476 54.89L33.0016 68L9.35556 54.89L5.10156 17.96L33.0016 8ZM33.0016 14.63L15.5596 53.78H22.0636L25.5706 45.02H40.3726L43.8826 53.78H50.3836L33.0016 14.63ZM38.0956 39.62H27.9076L33.0016 27.35L38.0956 39.62Z" fill="#89BCD9"/>
<path d="M0.576 94L6.264 80.446H6.372L12.042 94H10.044L5.796 83.182L7.038 82.372L2.286 94H0.576ZM3.906 89.068H8.748L9.324 90.58H3.402L3.906 89.068ZM15.5731 86.548L15.7171 88.366L15.6451 88.078C15.8851 87.526 16.2751 87.088 16.8151 86.764C17.3551 86.428 17.9791 86.26 18.6871 86.26C19.3951 86.26 19.9711 86.47 20.4151 86.89C20.8711 87.298 21.1051 87.832 21.1171 88.492V94H19.4251V89.086C19.4131 88.678 19.2931 88.348 19.0651 88.096C18.8491 87.832 18.5071 87.7 18.0391 87.7C17.6071 87.7 17.2171 87.82 16.8691 88.06C16.5211 88.3 16.2451 88.63 16.0411 89.05C15.8491 89.47 15.7531 89.956 15.7531 90.508V94H14.0791V86.548H15.5731ZM27.6103 97.69C27.0583 97.69 26.5723 97.624 26.1523 97.492C25.7323 97.372 25.3483 97.198 25.0003 96.97C24.6643 96.742 24.3403 96.484 24.0283 96.196L25.0003 95.062C25.3963 95.434 25.7983 95.722 26.2063 95.926C26.6143 96.13 27.0703 96.232 27.5743 96.232C28.1383 96.232 28.6123 96.136 28.9963 95.944C29.3923 95.764 29.6923 95.506 29.8963 95.17C30.1003 94.846 30.2023 94.468 30.2023 94.036L30.2203 92.02L30.3643 92.344C30.1483 92.86 29.7583 93.298 29.1943 93.658C28.6303 94.006 27.9463 94.18 27.1423 94.18C26.4583 94.18 25.8283 94.006 25.2523 93.658C24.6883 93.31 24.2323 92.842 23.8843 92.254C23.5483 91.654 23.3803 90.982 23.3803 90.238C23.3803 89.458 23.5603 88.774 23.9203 88.186C24.2803 87.586 24.7543 87.112 25.3423 86.764C25.9303 86.416 26.5723 86.242 27.2683 86.242C27.9283 86.242 28.5283 86.38 29.0683 86.656C29.6203 86.92 30.0223 87.262 30.2743 87.682L30.1843 87.988L30.3643 86.548H31.8943V94.054C31.8943 94.726 31.7203 95.338 31.3723 95.89C31.0243 96.442 30.5323 96.88 29.8963 97.204C29.2603 97.528 28.4983 97.69 27.6103 97.69ZM25.0543 90.202C25.0543 90.682 25.1683 91.12 25.3963 91.516C25.6243 91.912 25.9303 92.224 26.3143 92.452C26.7103 92.68 27.1483 92.794 27.6283 92.794C28.0723 92.794 28.4683 92.716 28.8163 92.56C29.1763 92.392 29.4763 92.17 29.7163 91.894C29.9563 91.606 30.1243 91.276 30.2203 90.904V89.428C30.1123 89.068 29.9323 88.756 29.6803 88.492C29.4283 88.216 29.1283 88.006 28.7803 87.862C28.4323 87.706 28.0483 87.628 27.6283 87.628C27.1483 87.628 26.7103 87.736 26.3143 87.952C25.9303 88.168 25.6243 88.474 25.3963 88.87C25.1683 89.254 25.0543 89.698 25.0543 90.202ZM37.1441 94.288C36.4721 94.288 35.9141 94.084 35.4701 93.676C35.0381 93.256 34.8101 92.716 34.7861 92.056V86.548H36.4601V91.462C36.4841 91.87 36.5981 92.2 36.8021 92.452C37.0181 92.704 37.3541 92.836 37.8101 92.848C38.2301 92.848 38.6021 92.728 38.9261 92.488C39.2621 92.236 39.5321 91.9 39.7361 91.48C39.9401 91.048 40.0421 90.562 40.0421 90.022V86.548H41.7161V94H40.1861L40.0421 92.164L40.1321 92.488C39.9881 92.836 39.7661 93.148 39.4661 93.424C39.1781 93.688 38.8361 93.898 38.4401 94.054C38.0441 94.21 37.6121 94.288 37.1441 94.288ZM44.6123 80.068H46.2863V94H44.6123V80.068ZM52.2786 94.18C51.5826 94.18 50.9466 94.03 50.3706 93.73C49.8066 93.43 49.3566 92.992 49.0206 92.416C48.6966 91.828 48.5346 91.114 48.5346 90.274C48.5346 89.446 48.7086 88.732 49.0566 88.132C49.4046 87.52 49.8666 87.052 50.4426 86.728C51.0306 86.404 51.6726 86.242 52.3686 86.242C53.0646 86.242 53.6526 86.404 54.1326 86.728C54.6126 87.04 54.9786 87.412 55.2306 87.844L55.1226 88.132L55.2846 86.548H56.8326V94H55.1586V92.056L55.3386 92.488C55.2906 92.608 55.1826 92.764 55.0146 92.956C54.8586 93.136 54.6426 93.322 54.3666 93.514C54.1026 93.706 53.7966 93.868 53.4486 94C53.1006 94.12 52.7106 94.18 52.2786 94.18ZM52.7286 92.794C53.1486 92.794 53.5266 92.716 53.8626 92.56C54.1986 92.404 54.4746 92.188 54.6906 91.912C54.9186 91.624 55.0746 91.282 55.1586 90.886V89.428C55.0626 89.068 54.8946 88.756 54.6546 88.492C54.4146 88.216 54.1266 88.006 53.7906 87.862C53.4546 87.706 53.0826 87.628 52.6746 87.628C52.2306 87.628 51.8226 87.736 51.4506 87.952C51.0786 88.168 50.7786 88.468 50.5506 88.852C50.3346 89.236 50.2266 89.686 50.2266 90.202C50.2266 90.682 50.3406 91.12 50.5686 91.516C50.7966 91.912 51.1026 92.224 51.4866 92.452C51.8706 92.68 52.2846 92.794 52.7286 92.794ZM61.2235 86.548L61.3855 88.708L61.2955 88.42C61.4875 87.964 61.7635 87.58 62.1235 87.268C62.4955 86.944 62.8795 86.698 63.2755 86.53C63.6835 86.35 64.0375 86.26 64.3375 86.26L64.2475 87.916C63.6835 87.88 63.1855 87.988 62.7535 88.24C62.3335 88.492 61.9975 88.828 61.7455 89.248C61.5055 89.668 61.3855 90.118 61.3855 90.598V94H59.7295V86.548H61.2235Z" fill="#89BCD9"/>
</svg>
