<svg width="84" height="100" viewBox="0 0 84 100" fill="none" xmlns="http://www.w3.org/2000/svg">
<path d="M12 8C32.0135 8 51.9865 8 72 8C72 28.0135 72 48.027 72 68C52.027 68 32.0135 68 12 68C12 47.946 12 27.973 12 8ZM65.6799 39.7623C64.4645 37.5746 62.8035 36.0756 60.4132 35.549C58.7117 35.1438 57.0101 35.1438 55.3086 35.5084C49.7988 36.6428 47.449 43.287 51.0142 47.7029C52.2701 49.2424 53.9311 50.1742 55.6732 50.9845C57.2127 51.7137 58.7927 52.4024 60.3322 53.1722C61.3855 53.6989 61.8312 54.6712 61.7097 55.8461C61.5881 57.0209 60.7778 57.6691 59.765 58.0338C57.4963 58.844 54.8629 58.1148 53.3234 56.2107C52.9993 55.8055 52.6752 55.3599 52.3511 54.9142C50.8116 55.8055 49.3126 56.6563 47.8136 57.5476C48.7454 59.3707 50.0419 60.8292 51.8244 61.8015C54.8629 63.4625 58.0635 63.7056 61.345 62.8953C63.4922 62.3687 65.3153 61.2748 66.4497 59.2897C68.5564 55.5219 67.341 50.8224 63.6138 48.5132C61.9527 47.5003 60.0891 46.8116 58.3471 45.9203C57.4963 45.4747 56.605 45.0695 55.8758 44.5024C54.5793 43.449 54.8224 41.3423 56.2809 40.5321C57.6988 39.7218 59.684 40.208 60.7778 41.6259C61.0209 41.9095 61.183 42.2336 61.4261 42.5577C62.8035 41.6259 64.2215 40.6941 65.6799 39.7623ZM27.8001 58.1553C28.6104 59.8974 29.7853 61.2748 31.4463 62.1661C33.5935 63.341 35.9433 63.5436 38.3336 63.1789C40.4808 62.8548 42.2633 61.8825 43.4382 59.9379C44.4105 58.3174 44.6941 56.5348 44.6941 54.6307C44.6941 48.4727 44.6941 42.3147 44.6941 36.1567C44.6941 35.9946 44.6941 35.792 44.6941 35.5895C42.79 35.5895 40.9669 35.5895 39.0628 35.5895C39.0628 35.8325 39.0628 36.0351 39.0628 36.2782C39.0628 42.3552 39.0628 48.3916 39.0628 54.4686C39.0628 55.0358 39.0223 55.6435 38.9413 56.2107C38.7792 57.1425 38.293 57.8312 37.3612 58.1148C35.6192 58.6415 34.2012 58.1148 33.1884 56.6158C32.9453 56.2107 32.7022 55.8055 32.4186 55.4004C30.8386 56.3322 29.3396 57.2235 27.8001 58.1553Z" fill="#89BCD9"/>
<path d="M4.698 91.642C4.698 92.698 4.494 93.598 4.086 94.342C3.69 95.086 3.144 95.65 2.448 96.034C1.752 96.43 0.954 96.646 0.054 96.682V94.99C0.894 94.942 1.584 94.642 2.124 94.09C2.676 93.55 2.952 92.716 2.952 91.588V80.986H4.698V91.642ZM11.1282 94.18C10.4322 94.18 9.79622 94.03 9.22022 93.73C8.65622 93.43 8.20622 92.992 7.87022 92.416C7.54622 91.828 7.38422 91.114 7.38422 90.274C7.38422 89.446 7.55822 88.732 7.90622 88.132C8.25422 87.52 8.71622 87.052 9.29222 86.728C9.88022 86.404 10.5222 86.242 11.2182 86.242C11.9142 86.242 12.5022 86.404 12.9822 86.728C13.4622 87.04 13.8282 87.412 14.0802 87.844L13.9722 88.132L14.1342 86.548H15.6822V94H14.0082V92.056L14.1882 92.488C14.1402 92.608 14.0322 92.764 13.8642 92.956C13.7082 93.136 13.4922 93.322 13.2162 93.514C12.9522 93.706 12.6462 93.868 12.2982 94C11.9502 94.12 11.5602 94.18 11.1282 94.18ZM11.5782 92.794C11.9982 92.794 12.3762 92.716 12.7122 92.56C13.0482 92.404 13.3242 92.188 13.5402 91.912C13.7682 91.624 13.9242 91.282 14.0082 90.886V89.428C13.9122 89.068 13.7442 88.756 13.5042 88.492C13.2642 88.216 12.9762 88.006 12.6402 87.862C12.3042 87.706 11.9322 87.628 11.5242 87.628C11.0802 87.628 10.6722 87.736 10.3002 87.952C9.92822 88.168 9.62822 88.468 9.40022 88.852C9.18422 89.236 9.07622 89.686 9.07622 90.202C9.07622 90.682 9.19022 91.12 9.41822 91.516C9.64622 91.912 9.95222 92.224 10.3362 92.452C10.7202 92.68 11.1342 92.794 11.5782 92.794ZM21.6031 94.216L17.4631 86.548H19.4431L22.2511 92.47L21.2251 92.434L23.7991 86.548H25.6711L21.6931 94.216H21.6031ZM30.2708 94.18C29.5748 94.18 28.9388 94.03 28.3628 93.73C27.7988 93.43 27.3488 92.992 27.0128 92.416C26.6888 91.828 26.5268 91.114 26.5268 90.274C26.5268 89.446 26.7008 88.732 27.0488 88.132C27.3968 87.52 27.8588 87.052 28.4348 86.728C29.0228 86.404 29.6648 86.242 30.3608 86.242C31.0568 86.242 31.6448 86.404 32.1248 86.728C32.6048 87.04 32.9708 87.412 33.2228 87.844L33.1148 88.132L33.2768 86.548H34.8248V94H33.1508V92.056L33.3308 92.488C33.2828 92.608 33.1748 92.764 33.0068 92.956C32.8508 93.136 32.6348 93.322 32.3588 93.514C32.0948 93.706 31.7888 93.868 31.4408 94C31.0928 94.12 30.7028 94.18 30.2708 94.18ZM30.7208 92.794C31.1408 92.794 31.5188 92.716 31.8548 92.56C32.1908 92.404 32.4668 92.188 32.6828 91.912C32.9108 91.624 33.0668 91.282 33.1508 90.886V89.428C33.0548 89.068 32.8868 88.756 32.6468 88.492C32.4068 88.216 32.1188 88.006 31.7828 87.862C31.4468 87.706 31.0748 87.628 30.6668 87.628C30.2228 87.628 29.8148 87.736 29.4428 87.952C29.0708 88.168 28.7708 88.468 28.5428 88.852C28.3268 89.236 28.2188 89.686 28.2188 90.202C28.2188 90.682 28.3328 91.12 28.5608 91.516C28.7888 91.912 29.0948 92.224 29.4788 92.452C29.8628 92.68 30.2768 92.794 30.7208 92.794ZM44.8677 83.308C44.4237 83.08 43.9377 82.882 43.4097 82.714C42.8817 82.546 42.3657 82.462 41.8617 82.462C41.1657 82.462 40.6077 82.624 40.1877 82.948C39.7797 83.272 39.5757 83.704 39.5757 84.244C39.5757 84.652 39.7077 85 39.9717 85.288C40.2357 85.564 40.5837 85.804 41.0157 86.008C41.4477 86.212 41.8977 86.404 42.3657 86.584C42.7737 86.74 43.1757 86.914 43.5717 87.106C43.9677 87.298 44.3217 87.538 44.6337 87.826C44.9577 88.114 45.2097 88.468 45.3897 88.888C45.5817 89.308 45.6777 89.83 45.6777 90.454C45.6777 91.138 45.5037 91.762 45.1557 92.326C44.8197 92.89 44.3337 93.334 43.6977 93.658C43.0617 93.982 42.3057 94.144 41.4297 94.144C40.8537 94.144 40.3017 94.078 39.7737 93.946C39.2577 93.814 38.7777 93.646 38.3337 93.442C37.8897 93.226 37.4937 93.004 37.1457 92.776L37.9197 91.408C38.2077 91.612 38.5377 91.81 38.9097 92.002C39.2817 92.182 39.6717 92.332 40.0797 92.452C40.4877 92.56 40.8837 92.614 41.2677 92.614C41.6757 92.614 42.0777 92.542 42.4737 92.398C42.8817 92.242 43.2177 92.008 43.4817 91.696C43.7457 91.384 43.8777 90.97 43.8777 90.454C43.8777 90.01 43.7577 89.644 43.5177 89.356C43.2897 89.056 42.9837 88.804 42.5997 88.6C42.2157 88.384 41.8077 88.192 41.3757 88.024C40.9677 87.868 40.5537 87.7 40.1337 87.52C39.7137 87.328 39.3237 87.1 38.9637 86.836C38.6037 86.56 38.3157 86.224 38.0997 85.828C37.8837 85.432 37.7757 84.952 37.7757 84.388C37.7757 83.704 37.9377 83.11 38.2617 82.606C38.5977 82.09 39.0537 81.688 39.6297 81.4C40.2057 81.1 40.8657 80.938 41.6097 80.914C42.4497 80.914 43.1877 81.016 43.8237 81.22C44.4717 81.424 45.0417 81.676 45.5337 81.976L44.8677 83.308ZM54.2462 93.316C53.9102 93.58 53.5082 93.79 53.0402 93.946C52.5722 94.102 52.1042 94.18 51.6362 94.18C50.8202 94.18 50.1062 94.018 49.4942 93.694C48.8822 93.37 48.4022 92.92 48.0542 92.344C47.7182 91.756 47.5502 91.066 47.5502 90.274C47.5502 89.482 47.7302 88.792 48.0902 88.204C48.4622 87.616 48.9422 87.166 49.5302 86.854C50.1302 86.53 50.7722 86.368 51.4562 86.368C52.0562 86.368 52.5902 86.452 53.0582 86.62C53.5382 86.788 53.9462 87.016 54.2822 87.304L53.4542 88.384C53.2382 88.216 52.9742 88.066 52.6622 87.934C52.3502 87.802 51.9962 87.736 51.6002 87.736C51.1682 87.736 50.7662 87.85 50.3942 88.078C50.0342 88.294 49.7462 88.594 49.5302 88.978C49.3262 89.362 49.2242 89.794 49.2242 90.274C49.2242 90.73 49.3322 91.156 49.5482 91.552C49.7642 91.936 50.0642 92.242 50.4482 92.47C50.8322 92.686 51.2702 92.794 51.7622 92.794C52.0862 92.794 52.3802 92.746 52.6442 92.65C52.9202 92.554 53.1662 92.422 53.3822 92.254L54.2462 93.316ZM57.9012 86.548L58.0632 88.708L57.9732 88.42C58.1652 87.964 58.4412 87.58 58.8012 87.268C59.1732 86.944 59.5572 86.698 59.9532 86.53C60.3612 86.35 60.7152 86.26 61.0152 86.26L60.9252 87.916C60.3612 87.88 59.8632 87.988 59.4312 88.24C59.0112 88.492 58.6752 88.828 58.4232 89.248C58.1832 89.668 58.0632 90.118 58.0632 90.598V94H56.4072V86.548H57.9012ZM63.1748 86.548H64.8488V94H63.1748V86.548ZM63.0488 83.848C63.0488 83.584 63.1508 83.362 63.3548 83.182C63.5708 83.002 63.8048 82.912 64.0568 82.912C64.3088 82.912 64.5308 83.002 64.7228 83.182C64.9268 83.362 65.0288 83.584 65.0288 83.848C65.0288 84.124 64.9268 84.352 64.7228 84.532C64.5308 84.7 64.3088 84.784 64.0568 84.784C63.8048 84.784 63.5708 84.694 63.3548 84.514C63.1508 84.334 63.0488 84.112 63.0488 83.848ZM72.1371 94.18C71.5731 94.18 71.0271 94.048 70.4991 93.784C69.9831 93.52 69.5811 93.166 69.2931 92.722L69.4011 92.2V97.582H67.7451V86.44H69.1851L69.4191 88.348L69.2391 87.826C69.5991 87.37 70.0551 86.992 70.6071 86.692C71.1591 86.392 71.7771 86.242 72.4611 86.242C73.1571 86.242 73.7811 86.41 74.3331 86.746C74.8971 87.082 75.3411 87.55 75.6651 88.15C75.9891 88.75 76.1511 89.452 76.1511 90.256C76.1511 91.06 75.9771 91.756 75.6291 92.344C75.2811 92.932 74.8011 93.388 74.1891 93.712C73.5891 94.024 72.9051 94.18 72.1371 94.18ZM71.8131 92.848C72.2931 92.848 72.7311 92.74 73.1271 92.524C73.5351 92.296 73.8591 91.99 74.0991 91.606C74.3391 91.21 74.4591 90.766 74.4591 90.274C74.4591 89.77 74.3451 89.326 74.1171 88.942C73.8891 88.546 73.5831 88.234 73.1991 88.006C72.8271 87.778 72.4071 87.664 71.9391 87.664C71.5071 87.664 71.1171 87.748 70.7691 87.916C70.4211 88.084 70.1331 88.318 69.9051 88.618C69.6771 88.906 69.5151 89.242 69.4191 89.626V90.868C69.4791 91.252 69.6231 91.594 69.8511 91.894C70.0791 92.194 70.3611 92.428 70.6971 92.596C71.0451 92.764 71.4171 92.848 71.8131 92.848ZM79.135 83.272H80.809V86.584H82.861V87.898H80.809V94H79.135V87.898H77.767V86.584H79.135V83.272Z" fill="#89BCD9"/>
</svg>
