<svg width="76" height="124" viewBox="0 0 76 124" fill="none" xmlns="http://www.w3.org/2000/svg">
<g clip-path="url(#clip0_1988_1511)">
<path d="M15.9 19.8008V60.3008C11 54.9008 8 47.8008 8 40.0008C8 32.2008 11 25.1008 15.9 19.8008Z" fill="#89BCD9"/>
<path d="M19.1016 24.1992L36.4016 58.8992H19.1016V24.1992Z" fill="#89BCD9"/>
<path d="M38 55.0016L21 21.1016H55L38 55.0016Z" fill="#89BCD9"/>
<path d="M37.9969 10C45.7969 10 52.8969 13 58.1969 17.9H17.7969C23.0969 13 30.1969 10 37.9969 10Z" fill="#89BCD9"/>
<path d="M56.9016 58.8992H39.6016L56.9016 24.1992V58.8992Z" fill="#89BCD9"/>
<path d="M58.1969 62.1016C52.8969 67.0016 45.7969 70.0016 37.9969 70.0016C30.1969 70.0016 23.0969 67.0016 17.7969 62.1016H58.1969Z" fill="#89BCD9"/>
<path d="M60.1016 60.2008V19.8008C65.0016 25.1008 68.0016 32.2008 68.0016 40.0008C68.0016 47.8008 65.0016 54.9008 60.1016 60.2008Z" fill="#89BCD9"/>
<path d="M19.1016 24.2031L36.4016 58.9031H19.1016V24.2031Z" fill="#89BCD9"/>
<path d="M38 55.0016L21 21.1016H55L38 55.0016Z" fill="#89BCD9"/>
<path d="M39.6016 58.9031L56.9016 24.2031V58.9031H39.6016Z" fill="#89BCD9"/>
<path d="M21 21.1016H55L38 55.0016L21 21.1016Z" fill="#89BCD9"/>
</g>
<path d="M2.27239 96V82.572H2.29039L9.11239 92.256L8.37439 92.112L15.1784 82.572H15.2144V96H13.4864V86.532L13.5944 87.414L8.68039 94.362H8.64439L3.65839 87.414L3.96439 86.604V96H2.27239ZM21.636 96.18C20.94 96.18 20.304 96.03 19.728 95.73C19.164 95.43 18.714 94.992 18.378 94.416C18.054 93.828 17.892 93.114 17.892 92.274C17.892 91.446 18.066 90.732 18.414 90.132C18.762 89.52 19.224 89.052 19.8 88.728C20.388 88.404 21.03 88.242 21.726 88.242C22.422 88.242 23.01 88.404 23.49 88.728C23.97 89.04 24.336 89.412 24.588 89.844L24.48 90.132L24.642 88.548H26.19V96H24.516V94.056L24.696 94.488C24.648 94.608 24.54 94.764 24.372 94.956C24.216 95.136 24 95.322 23.724 95.514C23.46 95.706 23.154 95.868 22.806 96C22.458 96.12 22.068 96.18 21.636 96.18ZM22.086 94.794C22.506 94.794 22.884 94.716 23.22 94.56C23.556 94.404 23.832 94.188 24.048 93.912C24.276 93.624 24.432 93.282 24.516 92.886V91.428C24.42 91.068 24.252 90.756 24.012 90.492C23.772 90.216 23.484 90.006 23.148 89.862C22.812 89.706 22.44 89.628 22.032 89.628C21.588 89.628 21.18 89.736 20.808 89.952C20.436 90.168 20.136 90.468 19.908 90.852C19.692 91.236 19.584 91.686 19.584 92.202C19.584 92.682 19.698 93.12 19.926 93.516C20.154 93.912 20.46 94.224 20.844 94.452C21.228 94.68 21.642 94.794 22.086 94.794ZM29.8069 85.272H31.4809V88.584H33.5329V89.898H31.4809V96H29.8069V89.898H28.4389V88.584H29.8069V85.272ZM39.0117 96.18C38.1597 96.18 37.4277 96.012 36.8157 95.676C36.2037 95.328 35.7297 94.86 35.3937 94.272C35.0697 93.672 34.9077 92.988 34.9077 92.22C34.9077 91.488 35.0937 90.822 35.4657 90.222C35.8377 89.622 36.3357 89.142 36.9597 88.782C37.5837 88.422 38.2797 88.242 39.0477 88.242C40.0317 88.242 40.8477 88.53 41.4957 89.106C42.1437 89.682 42.5817 90.474 42.8097 91.482L36.6717 93.642L36.2757 92.652L41.3157 90.816L40.9557 91.05C40.8117 90.654 40.5717 90.312 40.2357 90.024C39.8997 89.724 39.4617 89.574 38.9217 89.574C38.4657 89.574 38.0577 89.688 37.6977 89.916C37.3377 90.132 37.0557 90.432 36.8517 90.816C36.6477 91.2 36.5457 91.638 36.5457 92.13C36.5457 92.646 36.6537 93.102 36.8697 93.498C37.0857 93.882 37.3797 94.188 37.7517 94.416C38.1357 94.632 38.5677 94.74 39.0477 94.74C39.3717 94.74 39.6837 94.68 39.9837 94.56C40.2957 94.44 40.5837 94.284 40.8477 94.092L41.6217 95.334C41.2497 95.586 40.8297 95.79 40.3617 95.946C39.9057 96.102 39.4557 96.18 39.0117 96.18ZM46.4012 88.548L46.5632 90.708L46.4732 90.42C46.6652 89.964 46.9412 89.58 47.3012 89.268C47.6732 88.944 48.0572 88.698 48.4532 88.53C48.8612 88.35 49.2152 88.26 49.5152 88.26L49.4252 89.916C48.8612 89.88 48.3632 89.988 47.9312 90.24C47.5112 90.492 47.1752 90.828 46.9232 91.248C46.6832 91.668 46.5632 92.118 46.5632 92.598V96H44.9072V88.548H46.4012ZM51.6748 88.548H53.3488V96H51.6748V88.548ZM51.5488 85.848C51.5488 85.584 51.6508 85.362 51.8548 85.182C52.0708 85.002 52.3048 84.912 52.5568 84.912C52.8088 84.912 53.0308 85.002 53.2228 85.182C53.4268 85.362 53.5288 85.584 53.5288 85.848C53.5288 86.124 53.4268 86.352 53.2228 86.532C53.0308 86.7 52.8088 86.784 52.5568 86.784C52.3048 86.784 52.0708 86.694 51.8548 86.514C51.6508 86.334 51.5488 86.112 51.5488 85.848ZM59.3411 96.18C58.6451 96.18 58.0091 96.03 57.4331 95.73C56.8691 95.43 56.4191 94.992 56.0831 94.416C55.7591 93.828 55.5971 93.114 55.5971 92.274C55.5971 91.446 55.7711 90.732 56.1191 90.132C56.4671 89.52 56.9291 89.052 57.5051 88.728C58.0931 88.404 58.7351 88.242 59.4311 88.242C60.1271 88.242 60.7151 88.404 61.1951 88.728C61.6751 89.04 62.0411 89.412 62.2931 89.844L62.1851 90.132L62.3471 88.548H63.8951V96H62.2211V94.056L62.4011 94.488C62.3531 94.608 62.2451 94.764 62.0771 94.956C61.9211 95.136 61.7051 95.322 61.4291 95.514C61.1651 95.706 60.8591 95.868 60.5111 96C60.1631 96.12 59.7731 96.18 59.3411 96.18ZM59.7911 94.794C60.2111 94.794 60.5891 94.716 60.9251 94.56C61.2611 94.404 61.5371 94.188 61.7531 93.912C61.9811 93.624 62.1371 93.282 62.2211 92.886V91.428C62.1251 91.068 61.9571 90.756 61.7171 90.492C61.4771 90.216 61.1891 90.006 60.8531 89.862C60.5171 89.706 60.1451 89.628 59.7371 89.628C59.2931 89.628 58.8851 89.736 58.5131 89.952C58.1411 90.168 57.8411 90.468 57.6131 90.852C57.3971 91.236 57.2891 91.686 57.2891 92.202C57.2891 92.682 57.4031 93.12 57.6311 93.516C57.8591 93.912 58.1651 94.224 58.5491 94.452C58.9331 94.68 59.3471 94.794 59.7911 94.794ZM66.792 82.068H68.466V96H66.792V82.068ZM12.1161 118V104.986H15.6621C16.9461 104.986 18.0381 105.184 18.9381 105.58C19.8501 105.976 20.5821 106.498 21.1341 107.146C21.6861 107.794 22.0881 108.514 22.3401 109.306C22.6041 110.086 22.7361 110.866 22.7361 111.646C22.7361 112.63 22.5621 113.512 22.2141 114.292C21.8781 115.072 21.4101 115.738 20.8101 116.29C20.2101 116.842 19.5201 117.268 18.7401 117.568C17.9721 117.856 17.1561 118 16.2921 118H12.1161ZM13.8621 116.326H15.9501C16.6701 116.326 17.3301 116.218 17.9301 116.002C18.5421 115.786 19.0701 115.474 19.5141 115.066C19.9701 114.658 20.3241 114.16 20.5761 113.572C20.8281 112.972 20.9541 112.294 20.9541 111.538C20.9541 110.734 20.8221 110.032 20.5581 109.432C20.2941 108.82 19.9341 108.31 19.4781 107.902C19.0221 107.494 18.5061 107.188 17.9301 106.984C17.3541 106.768 16.7481 106.66 16.1121 106.66H13.8621V116.326ZM28.7109 118.18C27.8589 118.18 27.1269 118.012 26.5149 117.676C25.9029 117.328 25.4289 116.86 25.0929 116.272C24.7689 115.672 24.6069 114.988 24.6069 114.22C24.6069 113.488 24.7929 112.822 25.1649 112.222C25.5369 111.622 26.0349 111.142 26.6589 110.782C27.2829 110.422 27.9789 110.242 28.7469 110.242C29.7309 110.242 30.5469 110.53 31.1949 111.106C31.8429 111.682 32.2809 112.474 32.5089 113.482L26.3709 115.642L25.9749 114.652L31.0149 112.816L30.6549 113.05C30.5109 112.654 30.2709 112.312 29.9349 112.024C29.5989 111.724 29.1609 111.574 28.6209 111.574C28.1649 111.574 27.7569 111.688 27.3969 111.916C27.0369 112.132 26.7549 112.432 26.5509 112.816C26.3469 113.2 26.2449 113.638 26.2449 114.13C26.2449 114.646 26.3529 115.102 26.5689 115.498C26.7849 115.882 27.0789 116.188 27.4509 116.416C27.8349 116.632 28.2669 116.74 28.7469 116.74C29.0709 116.74 29.3829 116.68 29.6829 116.56C29.9949 116.44 30.2829 116.284 30.5469 116.092L31.3209 117.334C30.9489 117.586 30.5289 117.79 30.0609 117.946C29.6049 118.102 29.1549 118.18 28.7109 118.18ZM36.6944 118.144C36.1664 118.144 35.6504 118.054 35.1464 117.874C34.6544 117.682 34.2464 117.4 33.9224 117.028L34.6244 116.056C34.9364 116.356 35.2544 116.584 35.5784 116.74C35.9144 116.884 36.2444 116.956 36.5684 116.956C36.8084 116.956 37.0304 116.926 37.2344 116.866C37.4384 116.806 37.6004 116.71 37.7204 116.578C37.8524 116.434 37.9184 116.242 37.9184 116.002C37.9184 115.738 37.8284 115.528 37.6484 115.372C37.4804 115.216 37.2584 115.09 36.9824 114.994C36.7184 114.898 36.4364 114.808 36.1364 114.724C35.5244 114.52 35.0564 114.238 34.7324 113.878C34.4084 113.518 34.2464 113.08 34.2464 112.564C34.2464 112.168 34.3424 111.802 34.5344 111.466C34.7384 111.118 35.0324 110.836 35.4164 110.62C35.8124 110.404 36.2984 110.296 36.8744 110.296C37.3904 110.296 37.8524 110.362 38.2604 110.494C38.6684 110.614 39.0524 110.818 39.4124 111.106L38.7464 112.15C38.5304 111.922 38.2724 111.754 37.9724 111.646C37.6724 111.538 37.4024 111.478 37.1624 111.466C36.9584 111.454 36.7604 111.484 36.5684 111.556C36.3884 111.628 36.2384 111.73 36.1184 111.862C35.9984 111.994 35.9384 112.15 35.9384 112.33C35.9384 112.582 36.0224 112.786 36.1904 112.942C36.3584 113.098 36.5744 113.224 36.8384 113.32C37.1144 113.404 37.3844 113.494 37.6484 113.59C38.0204 113.698 38.3504 113.842 38.6384 114.022C38.9264 114.202 39.1544 114.424 39.3224 114.688C39.5024 114.952 39.5924 115.282 39.5924 115.678C39.5924 116.122 39.4844 116.536 39.2684 116.92C39.0644 117.292 38.7464 117.592 38.3144 117.82C37.8944 118.036 37.3544 118.144 36.6944 118.144ZM41.9365 110.548H43.6105V118H41.9365V110.548ZM41.8105 107.848C41.8105 107.584 41.9125 107.362 42.1165 107.182C42.3325 107.002 42.5665 106.912 42.8185 106.912C43.0705 106.912 43.2925 107.002 43.4845 107.182C43.6885 107.362 43.7905 107.584 43.7905 107.848C43.7905 108.124 43.6885 108.352 43.4845 108.532C43.2925 108.7 43.0705 108.784 42.8185 108.784C42.5665 108.784 42.3325 108.694 42.1165 108.514C41.9125 108.334 41.8105 108.112 41.8105 107.848ZM50.0888 121.69C49.5368 121.69 49.0508 121.624 48.6308 121.492C48.2108 121.372 47.8268 121.198 47.4788 120.97C47.1428 120.742 46.8188 120.484 46.5068 120.196L47.4788 119.062C47.8748 119.434 48.2768 119.722 48.6848 119.926C49.0928 120.13 49.5488 120.232 50.0528 120.232C50.6168 120.232 51.0908 120.136 51.4748 119.944C51.8708 119.764 52.1708 119.506 52.3748 119.17C52.5788 118.846 52.6808 118.468 52.6808 118.036L52.6988 116.02L52.8428 116.344C52.6268 116.86 52.2368 117.298 51.6728 117.658C51.1088 118.006 50.4248 118.18 49.6208 118.18C48.9368 118.18 48.3068 118.006 47.7308 117.658C47.1668 117.31 46.7108 116.842 46.3628 116.254C46.0268 115.654 45.8588 114.982 45.8588 114.238C45.8588 113.458 46.0388 112.774 46.3988 112.186C46.7588 111.586 47.2328 111.112 47.8208 110.764C48.4088 110.416 49.0508 110.242 49.7468 110.242C50.4068 110.242 51.0068 110.38 51.5468 110.656C52.0988 110.92 52.5008 111.262 52.7528 111.682L52.6628 111.988L52.8428 110.548H54.3728V118.054C54.3728 118.726 54.1988 119.338 53.8508 119.89C53.5028 120.442 53.0108 120.88 52.3748 121.204C51.7388 121.528 50.9768 121.69 50.0888 121.69ZM47.5328 114.202C47.5328 114.682 47.6468 115.12 47.8748 115.516C48.1028 115.912 48.4088 116.224 48.7928 116.452C49.1888 116.68 49.6268 116.794 50.1068 116.794C50.5508 116.794 50.9468 116.716 51.2948 116.56C51.6548 116.392 51.9548 116.17 52.1948 115.894C52.4348 115.606 52.6028 115.276 52.6988 114.904V113.428C52.5908 113.068 52.4108 112.756 52.1588 112.492C51.9068 112.216 51.6068 112.006 51.2588 111.862C50.9108 111.706 50.5268 111.628 50.1068 111.628C49.6268 111.628 49.1888 111.736 48.7928 111.952C48.4088 112.168 48.1028 112.474 47.8748 112.87C47.6468 113.254 47.5328 113.698 47.5328 114.202ZM58.7586 110.548L58.9026 112.366L58.8306 112.078C59.0706 111.526 59.4606 111.088 60.0006 110.764C60.5406 110.428 61.1646 110.26 61.8726 110.26C62.5806 110.26 63.1566 110.47 63.6006 110.89C64.0566 111.298 64.2906 111.832 64.3026 112.492V118H62.6106V113.086C62.5986 112.678 62.4786 112.348 62.2506 112.096C62.0346 111.832 61.6926 111.7 61.2246 111.7C60.7926 111.7 60.4026 111.82 60.0546 112.06C59.7066 112.3 59.4306 112.63 59.2266 113.05C59.0346 113.47 58.9386 113.956 58.9386 114.508V118H57.2646V110.548H58.7586Z" fill="#89BCD9"/>
<defs>
<clipPath id="clip0_1988_1511">
<rect width="60" height="60" fill="white" transform="translate(8 10)"/>
</clipPath>
</defs>
</svg>
