<svg width="65" height="100" viewBox="0 0 65 100" fill="none" xmlns="http://www.w3.org/2000/svg">
<path fill-rule="evenodd" clip-rule="evenodd" d="M62.7463 23.7639L57.0645 31.7083L51.3827 23.7639H54.4806C54.2445 17.8611 49.3684 13.1389 43.4088 13.1389C38.3799 13.1389 34.1151 16.5139 32.7676 21.1111C31.1283 20.5833 29.4335 20.25 27.7109 20.0972C27.9054 19.3611 28.1555 18.625 28.4611 17.9167C29.2807 15.9861 30.4476 14.25 31.9341 12.7639C33.4205 11.2778 35.157 10.0972 37.088 9.29167C39.0884 8.43056 41.2139 8 43.4088 8C45.6037 8 47.7292 8.43056 49.7296 9.27778C51.6606 10.0972 53.3971 11.2639 54.8835 12.75C56.3699 14.2361 57.5368 15.9722 58.3565 17.9028C59.1483 19.7639 59.579 21.7361 59.6206 23.7639H62.7463Z" fill="#89BCD9"/>
<path fill-rule="evenodd" clip-rule="evenodd" d="M54.8063 68.0009V64.5842H35.2188C35.3577 64.5148 35.4966 64.4592 35.6355 64.3898C37.761 63.3759 39.7197 62.0564 41.4701 60.4453C41.7063 60.2231 41.9285 60.0148 42.1369 59.8064C42.3731 59.5703 42.6231 59.3203 42.8593 59.0564C43.1371 58.7509 43.415 58.4314 43.665 58.112H54.8063V54.6953L64.1139 61.3481L54.8063 68.0009Z" fill="#89BCD9"/>
<path fill-rule="evenodd" clip-rule="evenodd" d="M47.5798 43.3212C47.5798 46.2795 46.9963 49.1545 45.8572 51.8628C44.8847 54.1684 43.5233 56.2795 41.8285 58.1267C41.6062 58.3629 41.384 58.599 41.1617 58.8351C40.9533 59.0434 40.7449 59.2379 40.5366 59.4462C38.8973 60.9601 37.0636 62.1962 35.0631 63.1545C34.7853 63.2934 34.4936 63.4184 34.2019 63.5434C34.188 63.5434 34.188 63.5573 34.1741 63.5573C32.507 64.2656 30.715 64.6129 28.8951 64.6129H0V58.1545H26.8253C34.9381 58.1545 41.5923 51.6684 41.7035 43.5573C41.7035 43.4878 41.7035 43.4184 41.7035 43.349C41.7035 34.4878 34.5075 27.2934 25.6444 27.2934C16.7814 27.2656 9.58541 34.4462 9.58541 43.3212H13.3084L6.65422 52.6267L0 43.3212H3.72303C3.72303 40.3628 4.30649 37.4878 5.44562 34.7795C6.55698 32.1684 8.12676 29.8212 10.1411 27.8073C12.1554 25.7934 14.5031 24.2101 17.1148 23.1128C19.8237 21.974 22.6994 21.3906 25.6583 21.3906C26.2557 21.3906 26.8391 21.4184 27.4226 21.4601C29.1452 21.599 30.8261 21.9323 32.4654 22.474C33.0488 22.6684 33.6184 22.8767 34.188 23.1267C36.7996 24.2378 39.1474 25.8073 41.1617 27.8212C43.176 29.8351 44.7597 32.1823 45.8572 34.7934C46.9963 37.4878 47.5798 40.3628 47.5798 43.3212Z" fill="#89BCD9"/>
<path d="M15.1587 83.308C14.7147 83.08 14.2287 82.882 13.7007 82.714C13.1727 82.546 12.6567 82.462 12.1527 82.462C11.4567 82.462 10.8987 82.624 10.4787 82.948C10.0707 83.272 9.86669 83.704 9.86669 84.244C9.86669 84.652 9.99869 85 10.2627 85.288C10.5267 85.564 10.8747 85.804 11.3067 86.008C11.7387 86.212 12.1887 86.404 12.6567 86.584C13.0647 86.74 13.4667 86.914 13.8627 87.106C14.2587 87.298 14.6127 87.538 14.9247 87.826C15.2487 88.114 15.5007 88.468 15.6807 88.888C15.8727 89.308 15.9687 89.83 15.9687 90.454C15.9687 91.138 15.7947 91.762 15.4467 92.326C15.1107 92.89 14.6247 93.334 13.9887 93.658C13.3527 93.982 12.5967 94.144 11.7207 94.144C11.1447 94.144 10.5927 94.078 10.0647 93.946C9.54869 93.814 9.06869 93.646 8.62469 93.442C8.18069 93.226 7.78469 93.004 7.43669 92.776L8.21069 91.408C8.49869 91.612 8.82869 91.81 9.20069 92.002C9.57269 92.182 9.96269 92.332 10.3707 92.452C10.7787 92.56 11.1747 92.614 11.5587 92.614C11.9667 92.614 12.3687 92.542 12.7647 92.398C13.1727 92.242 13.5087 92.008 13.7727 91.696C14.0367 91.384 14.1687 90.97 14.1687 90.454C14.1687 90.01 14.0487 89.644 13.8087 89.356C13.5807 89.056 13.2747 88.804 12.8907 88.6C12.5067 88.384 12.0987 88.192 11.6667 88.024C11.2587 87.868 10.8447 87.7 10.4247 87.52C10.0047 87.328 9.61469 87.1 9.25469 86.836C8.89469 86.56 8.60669 86.224 8.39069 85.828C8.17469 85.432 8.06669 84.952 8.06669 84.388C8.06669 83.704 8.22869 83.11 8.55269 82.606C8.88869 82.09 9.34469 81.688 9.92069 81.4C10.4967 81.1 11.1567 80.938 11.9007 80.914C12.7407 80.914 13.4787 81.016 14.1147 81.22C14.7627 81.424 15.3327 81.676 15.8247 81.976L15.1587 83.308ZM24.5373 93.316C24.2013 93.58 23.7993 93.79 23.3313 93.946C22.8633 94.102 22.3953 94.18 21.9273 94.18C21.1113 94.18 20.3973 94.018 19.7853 93.694C19.1733 93.37 18.6933 92.92 18.3453 92.344C18.0093 91.756 17.8413 91.066 17.8413 90.274C17.8413 89.482 18.0213 88.792 18.3813 88.204C18.7533 87.616 19.2333 87.166 19.8213 86.854C20.4213 86.53 21.0633 86.368 21.7473 86.368C22.3473 86.368 22.8813 86.452 23.3493 86.62C23.8293 86.788 24.2373 87.016 24.5733 87.304L23.7453 88.384C23.5293 88.216 23.2653 88.066 22.9533 87.934C22.6413 87.802 22.2873 87.736 21.8913 87.736C21.4593 87.736 21.0573 87.85 20.6853 88.078C20.3253 88.294 20.0373 88.594 19.8213 88.978C19.6173 89.362 19.5153 89.794 19.5153 90.274C19.5153 90.73 19.6233 91.156 19.8393 91.552C20.0553 91.936 20.3553 92.242 20.7393 92.47C21.1233 92.686 21.5613 92.794 22.0533 92.794C22.3773 92.794 22.6713 92.746 22.9353 92.65C23.2113 92.554 23.4573 92.422 23.6733 92.254L24.5373 93.316ZM28.1922 86.548L28.3542 88.708L28.2642 88.42C28.4562 87.964 28.7322 87.58 29.0922 87.268C29.4642 86.944 29.8482 86.698 30.2442 86.53C30.6522 86.35 31.0062 86.26 31.3062 86.26L31.2162 87.916C30.6522 87.88 30.1542 87.988 29.7222 88.24C29.3022 88.492 28.9662 88.828 28.7142 89.248C28.4742 89.668 28.3542 90.118 28.3542 90.598V94H26.6982V86.548H28.1922ZM35.8238 94.288C35.1518 94.288 34.5938 94.084 34.1498 93.676C33.7178 93.256 33.4898 92.716 33.4658 92.056V86.548H35.1398V91.462C35.1638 91.87 35.2778 92.2 35.4818 92.452C35.6978 92.704 36.0338 92.836 36.4898 92.848C36.9098 92.848 37.2818 92.728 37.6058 92.488C37.9418 92.236 38.2118 91.9 38.4158 91.48C38.6198 91.048 38.7218 90.562 38.7218 90.022V86.548H40.3958V94H38.8658L38.7218 92.164L38.8118 92.488C38.6678 92.836 38.4458 93.148 38.1458 93.424C37.8578 93.688 37.5158 93.898 37.1198 94.054C36.7238 94.21 36.2918 94.288 35.8238 94.288ZM44.786 86.548L44.93 88.222L44.858 88.078C45.134 87.514 45.524 87.07 46.028 86.746C46.544 86.422 47.132 86.26 47.792 86.26C48.212 86.26 48.584 86.326 48.908 86.458C49.232 86.59 49.496 86.782 49.7 87.034C49.916 87.274 50.054 87.574 50.114 87.934L50.024 87.988C50.312 87.448 50.708 87.028 51.212 86.728C51.728 86.416 52.268 86.26 52.832 86.26C53.564 86.26 54.14 86.47 54.56 86.89C54.992 87.298 55.214 87.832 55.226 88.492V94H53.552V89.086C53.54 88.702 53.444 88.384 53.264 88.132C53.096 87.868 52.796 87.724 52.364 87.7C51.932 87.7 51.542 87.832 51.194 88.096C50.858 88.36 50.594 88.702 50.402 89.122C50.21 89.53 50.108 89.974 50.096 90.454V94H48.422V89.086C48.41 88.702 48.308 88.384 48.116 88.132C47.936 87.868 47.63 87.724 47.198 87.7C46.754 87.7 46.364 87.832 46.028 88.096C45.692 88.36 45.428 88.702 45.236 89.122C45.056 89.542 44.966 89.992 44.966 90.472V94H43.292V86.548H44.786Z" fill="#89BCD9"/>
</svg>
